<?xml version="1.0" standalone="no"?>
<svg viewBox="0 0 1024 768" version="1.1" xmlns="http://www.w3.org/2000/svg" stroke-linecap="round" stroke-linejoin="round" fill-rule="evenodd" xml:space="preserve" >
<defs >
<clipPath id="clipId0" >
<path d="M0,768 1024,768 1024,0 0,0 z" />
</clipPath>
</defs>
<g stroke-width="0.75" clip-path="url(#clipId0)" fill="none" stroke="rgb(0,0,0)" />
<g stroke-width="0.3" clip-path="url(#clipId0)" fill="rgb(0,0,0)" stroke="none" >
<path d="M531.624,390.152 531.624,389.579 531.63,390.152 z" />
<path d="M531.624,390.152 531.605,389.007 531.624,389.579 z" />
<path d="M531.605,390.152 531.605,389.007 531.624,390.152 z" />
<path d="M531.605,390.152 531.574,388.436 531.605,389.007 z" />
<path d="M531.574,390.152 531.574,388.436 531.605,390.152 z" />
<path d="M531.574,390.152 531.53,387.865 531.574,388.436 z" />
<path d="M531.53,390.152 531.53,387.865 531.574,390.152 z" />
<path d="M531.53,390.152 522.884,388.621 531.53,387.865 z" />
<path d="M522.884,390.152 522.884,388.621 531.53,390.152 z" />
<path d="M522.884,390.152 522.879,388.622 522.884,388.621 z" />
<path d="M522.879,389.77 522.879,388.622 522.884,390.152 z" />
<path d="M522.879,389.77 522.867,388.623 522.879,388.622 z" />
<path d="M522.867,389.389 522.867,388.623 522.879,389.77 z" />
<path d="M522.867,389.389 522.846,388.625 522.867,388.623 z" />
<path d="M522.846,389.008 522.846,388.625 522.867,389.389 z" />
<path d="M522.846,389.008 522.817,388.627 522.846,388.625 z" />
</g>
<g stroke-width="0.75" clip-path="url(#clipId0)" fill="none" stroke="rgb(0,0,0)" >
<ellipse rx="26.2404" ry="26.2404" cx="505.39" cy="390.152" />
</g>
<g stroke-width="0.3" clip-path="url(#clipId0)" fill="rgb(0,0,0)" stroke="none" >
<path d="M522.879,390.533 522.879,389.77 522.884,390.152 z" />
<path d="M522.879,390.533 522.867,389.389 522.879,389.77 z" />
<path d="M522.867,390.915 522.867,389.389 522.879,390.533 z" />
<path d="M522.867,390.915 522.846,389.008 522.867,389.389 z" />
<path d="M522.846,391.296 522.846,389.008 522.867,390.915 z" />
<path d="M522.846,391.296 522.817,388.627 522.846,389.008 z" />
<path d="M522.817,391.677 522.817,388.627 522.846,391.296 z" />
<path d="M522.817,391.677 507.139,389.999 522.817,388.627 z" />
<path d="M507.139,390.305 507.139,389.999 522.817,391.677 z" />
<path d="M507.139,390.152 507.139,389.999 507.139,389.999 z" />
<path d="M507.139,390.114 507.139,389.999 507.139,390.152 z" />
<path d="M507.139,390.305 507.139,390.19 507.139,390.152 z" />
<path d="M507.139,390.305 507.139,390.19 507.139,390.305 z" />
<path d="M507.139,390.114 507.138,389.999 507.139,389.999 z" />
<path d="M507.138,390.076 507.138,389.999 507.139,390.114 z" />
<path d="M507.139,390.305 507.138,390.228 507.139,390.19 z" />
<path d="M507.138,390.305 507.138,390.228 507.139,390.305 z" />
<path d="M507.138,390.076 507.136,389.999 507.138,389.999 z" />
<path d="M507.136,390.037 507.136,389.999 507.138,390.076 z" />
<path d="M507.138,390.305 507.136,390.266 507.138,390.228 z" />
<path d="M507.136,390.305 507.136,390.266 507.138,390.305 z" />
<path d="M507.136,390.037 507.133,389.999 507.136,389.999 z" />
<path d="M507.136,390.305 507.133,390.304 507.136,390.266 z" />
</g>
<g stroke-width="0.75" clip-path="url(#clipId0)" fill="none" stroke="rgb(0,0,0)" >
<ellipse rx="17.4936" ry="17.4936" cx="505.39" cy="390.152" />
<polyline points="522.884,390.152 531.63,390.152 " />
<polyline points="522.817,388.627 531.53,387.865 " />
</g>
<g stroke-width="0.3" clip-path="url(#clipId0)" fill="rgb(0,0,0)" stroke="none" >
<path d="M531.126,385.614 531.126,385.033 531.232,385.595 z" />
<path d="M531.126,385.614 531.008,384.472 531.126,385.033 z" />
<path d="M531.008,385.635 531.008,384.472 531.126,385.614 z" />
<path d="M531.008,385.635 530.878,383.915 531.008,384.472 z" />
<path d="M530.878,385.658 530.878,383.915 531.008,385.635 z" />
<path d="M530.878,385.658 530.736,383.36 530.878,383.915 z" />
<path d="M530.736,385.683 530.736,383.36 530.878,385.658 z" />
<path d="M530.736,385.683 522.618,385.536 530.736,383.36 z" />
<path d="M522.618,387.114 522.618,385.536 530.736,385.683 z" />
<path d="M522.618,387.114 522.547,385.555 522.618,385.536 z" />
<path d="M522.547,386.739 522.547,385.555 522.618,387.114 z" />
<path d="M522.547,386.739 522.469,385.576 522.547,385.555 z" />
<path d="M522.469,386.366 522.469,385.576 522.547,386.739 z" />
<path d="M522.469,386.366 522.382,385.599 522.469,385.576 z" />
<path d="M522.382,385.994 522.382,385.599 522.469,386.366 z" />
<path d="M522.382,385.994 522.287,385.624 522.382,385.599 z" />
</g>
<g stroke-width="0.75" clip-path="url(#clipId0)" fill="none" stroke="rgb(0,0,0)" >
<polyline points="522.618,387.114 531.232,385.595 " />
<polyline points="522.287,385.624 530.736,383.36 " />
</g>
<g stroke-width="0.3" clip-path="url(#clipId0)" fill="rgb(0,0,0)" stroke="none" >
<path d="M529.846,381.251 529.846,380.641 530.048,381.177 z" />
<path d="M529.846,381.251 529.633,380.11 529.846,380.641 z" />
<path d="M529.633,381.328 529.633,380.11 529.846,381.251 z" />
<path d="M529.633,381.328 529.408,379.584 529.633,380.11 z" />
<path d="M529.408,381.41 529.408,379.584 529.633,381.328 z" />
<path d="M529.408,381.41 529.172,379.062 529.408,379.584 z" />
<path d="M529.172,381.496 529.172,379.062 529.408,381.41 z" />
<path d="M529.172,381.496 521.829,382.486 529.172,379.062 z" />
<path d="M521.829,384.169 521.829,382.486 529.172,381.496 z" />
<path d="M521.829,384.169 521.694,382.549 521.829,382.486 z" />
<path d="M521.694,383.812 521.694,382.549 521.829,384.169 z" />
<path d="M521.694,383.812 521.552,382.615 521.694,382.549 z" />
<path d="M521.552,383.457 521.552,382.615 521.694,383.812 z" />
<path d="M521.552,383.457 521.402,382.685 521.552,382.615 z" />
<path d="M521.402,383.106 521.402,382.685 521.552,383.457 z" />
<path d="M521.402,383.106 521.245,382.759 521.402,382.685 z" />
</g>
<g stroke-width="0.75" clip-path="url(#clipId0)" fill="none" stroke="rgb(0,0,0)" >
<polyline points="521.829,384.169 530.048,381.177 " />
<polyline points="521.245,382.759 529.172,379.062 " />
</g>
<g stroke-width="0.3" clip-path="url(#clipId0)" fill="rgb(0,0,0)" stroke="none" >
<path d="M527.823,377.2 527.823,376.539 528.115,377.032 z" />
<path d="M527.823,377.2 527.521,376.053 527.823,376.539 z" />
<path d="M527.521,377.375 527.521,376.053 527.823,377.2 z" />
<path d="M527.521,377.375 527.208,375.574 527.521,376.053 z" />
<path d="M527.208,377.555 527.208,375.574 527.521,377.375 z" />
<path d="M527.208,377.555 526.885,375.101 527.208,375.574 z" />
<path d="M526.885,377.742 526.885,375.101 527.208,377.555 z" />
<path d="M526.885,377.742 520.54,379.544 526.885,375.101 z" />
<path d="M520.54,381.405 520.54,379.544 526.885,377.742 z" />
<path d="M520.54,381.405 520.345,379.68 520.54,379.544 z" />
<path d="M520.345,381.077 520.345,379.68 520.54,381.405 z" />
<path d="M520.345,381.077 520.144,379.821 520.345,379.68 z" />
<path d="M520.144,380.753 520.144,379.821 520.345,381.077 z" />
<path d="M520.144,380.753 519.935,379.967 520.144,379.821 z" />
<path d="M519.935,380.433 519.935,379.967 520.144,380.753 z" />
<path d="M519.935,380.433 519.72,380.118 519.935,379.967 z" />
</g>
<g stroke-width="0.75" clip-path="url(#clipId0)" fill="none" stroke="rgb(0,0,0)" >
<polyline points="520.54,381.405 528.115,377.032 " />
<polyline points="519.72,380.118 526.885,375.101 " />
</g>
<g stroke-width="0.3" clip-path="url(#clipId0)" fill="rgb(0,0,0)" stroke="none" >
<path d="M525.119,373.598 525.119,372.85 525.491,373.285 z" />
<path d="M525.119,373.598 524.736,372.424 525.119,372.85 z" />
<path d="M524.736,373.918 524.736,372.424 525.119,373.598 z" />
<path d="M524.736,373.918 524.345,372.006 524.736,372.424 z" />
<path d="M524.345,374.247 524.345,372.006 524.736,373.918 z" />
<path d="M524.345,374.247 523.945,371.597 524.345,372.006 z" />
<path d="M523.945,374.583 523.945,371.597 524.345,374.247 z" />
<path d="M523.945,374.583 518.791,376.751 523.945,371.597 z" />
<path d="M518.791,378.907 518.791,376.751 523.945,374.583 z" />
<path d="M518.791,378.907 518.542,376.999 518.791,376.751 z" />
<path d="M518.542,378.618 518.542,376.999 518.791,378.907 z" />
<path d="M518.542,378.618 518.288,377.254 518.542,376.999 z" />
<path d="M518.288,378.333 518.288,377.254 518.542,378.618 z" />
<path d="M518.288,378.333 518.027,377.515 518.288,377.254 z" />
<path d="M518.027,378.055 518.027,377.515 518.288,378.333 z" />
<path d="M518.027,378.055 517.76,377.782 518.027,377.515 z" />
</g>
<g stroke-width="0.75" clip-path="url(#clipId0)" fill="none" stroke="rgb(0,0,0)" >
<polyline points="518.791,378.907 525.491,373.285 " />
<polyline points="517.76,377.782 523.945,371.597 " />
</g>
<g stroke-width="0.3" clip-path="url(#clipId0)" fill="rgb(0,0,0)" stroke="none" >
<path d="M521.814,370.578 521.814,369.687 522.257,370.051 z" />
<path d="M521.814,370.578 521.364,369.334 521.814,369.687 z" />
<path d="M521.364,371.115 521.364,369.334 521.814,370.578 z" />
<path d="M521.364,371.115 520.906,368.99 521.364,369.334 z" />
<path d="M520.906,371.66 520.906,368.99 521.364,371.115 z" />
<path d="M520.906,371.66 520.441,368.657 520.906,368.99 z" />
<path d="M520.441,372.215 520.441,368.657 520.906,371.66 z" />
<path d="M520.441,372.215 516.635,374.093 520.441,368.657 z" />
<path d="M516.635,376.751 516.635,374.093 520.441,372.215 z" />
<path d="M516.635,376.751 516.34,374.514 516.635,374.093 z" />
<path d="M516.34,376.509 516.34,374.514 516.635,376.751 z" />
<path d="M516.34,376.509 516.039,374.943 516.34,374.514 z" />
<path d="M516.039,376.273 516.039,374.943 516.34,376.509 z" />
<path d="M516.039,376.273 515.734,375.379 516.039,374.943 z" />
<path d="M515.734,376.044 515.734,375.379 516.039,376.273 z" />
<path d="M515.734,376.044 515.424,375.822 515.734,375.379 z" />
</g>
<g stroke-width="0.75" clip-path="url(#clipId0)" fill="none" stroke="rgb(0,0,0)" >
<polyline points="516.635,376.751 522.257,370.051 " />
<polyline points="515.424,375.822 520.441,368.657 " />
</g>
<g stroke-width="0.3" clip-path="url(#clipId0)" fill="rgb(0,0,0)" stroke="none" >
<path d="M518.011,368.291 518.011,367.146 518.51,367.427 z" />
<path d="M518.011,368.291 517.506,366.876 518.011,367.146 z" />
<path d="M517.506,369.166 517.506,366.876 518.011,368.291 z" />
<path d="M517.506,369.166 516.996,366.618 517.506,366.876 z" />
<path d="M516.996,370.05 516.996,366.618 517.506,369.166 z" />
<path d="M516.996,370.05 516.48,366.37 516.996,366.618 z" />
<path d="M516.48,370.944 516.48,366.37 516.996,370.05 z" />
<path d="M516.48,370.944 514.137,371.394 516.48,366.37 z" />
<path d="M514.137,375.002 514.137,371.394 516.48,370.944 z" />
<path d="M514.137,375.002 513.804,372.108 514.137,371.394 z" />
<path d="M513.804,374.815 513.804,372.108 514.137,375.002 z" />
<path d="M513.804,374.815 513.468,372.829 513.804,372.108 z" />
<path d="M513.468,374.635 513.468,372.829 513.804,374.815 z" />
<path d="M513.468,374.635 513.127,373.559 513.468,372.829 z" />
<path d="M513.127,374.462 513.127,373.559 513.468,374.635 z" />
<path d="M513.127,374.462 512.783,374.297 513.127,373.559 z" />
</g>
<g stroke-width="0.75" clip-path="url(#clipId0)" fill="none" stroke="rgb(0,0,0)" >
<polyline points="514.137,375.002 518.51,367.427 " />
<polyline points="512.783,374.297 516.48,366.37 " />
</g>
<g stroke-width="0.3" clip-path="url(#clipId0)" fill="rgb(0,0,0)" stroke="none" >
<path d="M513.825,366.978 513.825,365.304 514.365,365.494 z" />
<path d="M513.825,366.978 513.281,365.126 513.825,365.304 z" />
<path d="M513.281,368.473 513.281,365.126 513.825,366.978 z" />
<path d="M513.281,368.473 512.733,364.96 513.281,365.126 z" />
<path d="M512.733,369.978 512.733,364.96 513.281,368.473 z" />
<path d="M512.733,369.978 512.181,364.806 512.733,364.96 z" />
<path d="M512.181,371.492 512.181,364.806 512.733,369.978 z" />
<path d="M512.181,371.492 511.373,367.822 512.181,364.806 z" />
<path d="M511.373,373.713 511.373,367.822 512.181,371.492 z" />
<path d="M511.373,373.713 511.013,369.166 511.373,367.822 z" />
<path d="M511.013,373.587 511.013,369.166 511.373,373.713 z" />
<path d="M511.013,373.587 510.65,370.52 511.013,369.166 z" />
<path d="M510.65,373.468 510.65,370.52 511.013,373.587 z" />
<path d="M510.65,373.468 510.285,371.883 510.65,370.52 z" />
<path d="M510.285,373.357 510.285,371.883 510.65,373.468 z" />
<path d="M510.285,373.357 509.918,373.254 510.285,371.883 z" />
</g>
<g stroke-width="0.75" clip-path="url(#clipId0)" fill="none" stroke="rgb(0,0,0)" >
<polyline points="511.373,373.713 514.365,365.494 " />
<polyline points="509.918,373.254 512.181,364.806 " />
</g>
<g stroke-width="0.3" clip-path="url(#clipId0)" fill="rgb(0,0,0)" stroke="none" >
<path d="M509.382,367.513 509.382,364.217 509.947,364.31 z" />
<path d="M509.382,367.513 508.815,364.136 509.382,364.217 z" />
<path d="M508.815,370.727 508.815,364.136 509.382,367.513 z" />
<path d="M508.815,370.727 508.428,364.089 508.815,364.136 z" />
<path d="M508.428,372.924 508.428,364.089 508.815,370.727 z" />
<path d="M508.428,372.924 508.247,364.067 508.428,364.089 z" />
<path d="M508.247,372.894 508.247,364.067 508.428,372.924 z" />
<path d="M508.247,372.894 508.051,364.048 508.247,364.067 z" />
<path d="M508.051,372.862 508.051,364.048 508.247,372.894 z" />
<path d="M508.051,372.862 507.677,364.011 508.051,364.048 z" />
<path d="M507.677,372.808 507.677,364.011 508.051,372.862 z" />
<path d="M507.677,372.808 507.673,364.053 507.677,364.011 z" />
<path d="M507.673,372.808 507.673,364.053 507.677,372.808 z" />
<path d="M507.673,372.808 507.294,368.384 507.673,364.053 z" />
<path d="M507.294,372.762 507.294,368.384 507.673,372.808 z" />
<path d="M507.294,372.762 506.915,372.725 507.294,368.384 z" />
</g>
<g stroke-width="0.75" clip-path="url(#clipId0)" fill="none" stroke="rgb(0,0,0)" >
<polyline points="508.428,372.924 509.947,364.31 " />
<polyline points="506.915,372.725 507.677,364.011 " />
</g>
<g stroke-width="0.3" clip-path="url(#clipId0)" fill="rgb(0,0,0)" stroke="none" >
<path d="M505.39,372.658 505.008,363.916 505.39,363.911 z" />
<path d="M505.008,372.662 505.008,363.916 505.39,372.658 z" />
<path d="M505.008,372.662 504.818,363.918 505.008,363.916 z" />
<path d="M504.818,372.669 504.818,363.918 505.008,372.662 z" />
<path d="M504.818,372.669 504.627,363.924 504.818,363.918 z" />
<path d="M504.627,372.675 504.627,363.924 504.818,372.669 z" />
<path d="M504.627,372.675 504.246,363.936 504.627,363.924 z" />
<path d="M504.246,372.696 504.246,363.936 504.627,372.675 z" />
<path d="M504.246,372.696 504.245,363.936 504.246,363.936 z" />
<path d="M504.245,372.696 504.245,363.936 504.246,372.696 z" />
<path d="M504.245,372.696 503.865,363.957 504.245,363.936 z" />
<path d="M503.865,372.725 503.865,363.957 504.245,372.696 z" />
<path d="M503.865,372.725 503.674,363.968 503.865,363.957 z" />
<path d="M503.674,370.536 503.674,363.968 503.865,372.725 z" />
<path d="M503.674,370.536 503.103,364.011 503.674,363.968 z" />
</g>
<g stroke-width="0.75" clip-path="url(#clipId0)" fill="none" stroke="rgb(0,0,0)" >
<polyline points="505.39,372.658 505.39,363.911 " />
<polyline points="503.865,372.725 503.103,364.011 " />
</g>
<g stroke-width="0.3" clip-path="url(#clipId0)" fill="rgb(0,0,0)" stroke="none" >
<path d="M501.977,372.994 501.977,370.797 502.352,372.924 z" />
<path d="M501.977,372.994 501.604,368.679 501.977,370.797 z" />
<path d="M501.604,373.073 501.604,368.679 501.977,372.994 z" />
<path d="M501.604,373.073 501.232,366.571 501.604,368.679 z" />
<path d="M501.232,373.16 501.232,366.571 501.604,373.073 z" />
<path d="M501.232,373.16 500.862,364.474 501.232,366.571 z" />
<path d="M500.862,373.254 500.862,364.474 501.232,373.16 z" />
<path d="M500.862,373.254 500.833,364.31 500.862,364.474 z" />
<path d="M500.833,373.146 500.833,364.31 500.862,373.254 z" />
<path d="M500.833,373.146 500.271,364.416 500.833,364.31 z" />
<path d="M500.271,371.047 500.271,364.416 500.833,373.146 z" />
<path d="M500.271,371.047 499.71,364.533 500.271,364.416 z" />
<path d="M499.71,368.956 499.71,364.533 500.271,371.047 z" />
<path d="M499.71,368.956 499.153,364.663 499.71,364.533 z" />
<path d="M499.153,366.875 499.153,364.663 499.71,368.956 z" />
<path d="M499.153,366.875 498.598,364.806 499.153,364.663 z" />
</g>
<g stroke-width="0.75" clip-path="url(#clipId0)" fill="none" stroke="rgb(0,0,0)" >
<polyline points="502.352,372.924 500.833,364.31 " />
<polyline points="500.862,373.254 498.598,364.806 " />
</g>
<g stroke-width="0.3" clip-path="url(#clipId0)" fill="rgb(0,0,0)" stroke="none" >
<path d="M499.05,373.848 499.05,372.732 499.407,373.713 z" />
<path d="M499.05,373.848 498.695,371.759 499.05,372.732 z" />
<path d="M498.695,373.99 498.695,371.759 499.05,373.848 z" />
<path d="M498.695,373.99 498.344,370.795 498.695,371.759 z" />
<path d="M498.344,374.14 498.344,370.795 498.695,373.99 z" />
<path d="M498.344,374.14 497.997,369.839 498.344,370.795 z" />
<path d="M497.997,374.297 497.997,369.839 498.344,374.14 z" />
<path d="M497.997,374.297 496.415,365.494 497.997,369.839 z" />
<path d="M496.415,370.905 496.415,365.494 497.997,374.297 z" />
<path d="M496.415,370.905 495.879,365.696 496.415,365.494 z" />
<path d="M495.879,369.757 495.879,365.696 496.415,370.905 z" />
<path d="M495.879,369.757 495.348,365.909 495.879,365.696 z" />
<path d="M495.348,368.617 495.348,365.909 495.879,369.757 z" />
<path d="M495.348,368.617 494.822,366.134 495.348,365.909 z" />
<path d="M494.822,367.488 494.822,366.134 495.348,368.617 z" />
<path d="M494.822,367.488 494.3,366.37 494.822,366.134 z" />
</g>
<g stroke-width="0.75" clip-path="url(#clipId0)" fill="none" stroke="rgb(0,0,0)" >
<polyline points="499.407,373.713 496.415,365.494 " />
<polyline points="497.997,374.297 494.3,366.37 " />
</g>
<g stroke-width="0.3" clip-path="url(#clipId0)" fill="rgb(0,0,0)" stroke="none" >
<path d="M496.315,375.196 496.315,374.433 496.643,375.002 z" />
<path d="M496.315,375.196 495.991,373.872 496.315,374.433 z" />
<path d="M495.991,375.398 495.991,373.872 496.315,375.196 z" />
<path d="M495.991,375.398 495.671,373.318 495.991,373.872 z" />
<path d="M495.671,375.606 495.671,373.318 495.991,375.398 z" />
<path d="M495.671,375.606 495.356,372.773 495.671,373.318 z" />
<path d="M495.356,375.822 495.356,372.773 495.671,375.606 z" />
<path d="M495.356,375.822 492.27,367.427 495.356,372.773 z" />
<path d="M492.27,371.414 492.27,367.427 495.356,375.822 z" />
<path d="M492.27,371.414 491.777,367.719 492.27,367.427 z" />
<path d="M491.777,370.711 491.777,367.719 492.27,371.414 z" />
<path d="M491.777,370.711 491.291,368.021 491.777,367.719 z" />
<path d="M491.291,370.016 491.291,368.021 491.777,370.711 z" />
<path d="M491.291,370.016 490.812,368.334 491.291,368.021 z" />
<path d="M490.812,369.332 490.812,368.334 491.291,370.016 z" />
<path d="M490.812,369.332 490.339,368.657 490.812,368.334 z" />
</g>
<g stroke-width="0.75" clip-path="url(#clipId0)" fill="none" stroke="rgb(0,0,0)" >
<polyline points="496.643,375.002 492.27,367.427 " />
<polyline points="495.356,375.822 490.339,368.657 " />
</g>
<g stroke-width="0.3" clip-path="url(#clipId0)" fill="rgb(0,0,0)" stroke="none" >
<path d="M493.856,376.999 493.856,376.406 494.145,376.751 z" />
<path d="M493.856,376.999 493.571,376.067 493.856,376.406 z" />
<path d="M493.571,377.254 493.571,376.067 493.856,376.999 z" />
<path d="M493.571,377.254 493.293,375.735 493.571,376.067 z" />
<path d="M493.293,377.515 493.293,375.735 493.571,377.254 z" />
<path d="M493.293,377.515 493.02,375.41 493.293,375.735 z" />
<path d="M493.02,377.782 493.02,375.41 493.293,377.515 z" />
<path d="M493.02,377.782 488.523,370.051 493.02,375.41 z" />
<path d="M488.523,373.285 488.523,370.051 493.02,377.782 z" />
<path d="M488.523,373.285 488.088,370.423 488.523,370.051 z" />
<path d="M488.088,372.85 488.088,370.423 488.523,373.285 z" />
<path d="M488.088,372.85 487.662,370.805 488.088,370.423 z" />
<path d="M487.662,372.424 487.662,370.805 488.088,372.85 z" />
<path d="M487.662,372.424 487.244,371.197 487.662,370.805 z" />
<path d="M487.244,372.006 487.244,371.197 487.662,372.424 z" />
<path d="M487.244,372.006 486.835,371.597 487.244,371.197 z" />
</g>
<g stroke-width="0.75" clip-path="url(#clipId0)" fill="none" stroke="rgb(0,0,0)" >
<polyline points="494.145,376.751 488.523,370.051 " />
<polyline points="493.02,377.782 486.835,371.597 " />
</g>
<g stroke-width="0.3" clip-path="url(#clipId0)" fill="rgb(0,0,0)" stroke="none" >
<path d="M491.747,379.202 491.747,378.704 491.989,378.907 z" />
<path d="M491.747,379.202 491.511,378.506 491.747,378.704 z" />
<path d="M491.511,379.502 491.511,378.506 491.747,379.202 z" />
<path d="M491.511,379.502 491.282,378.314 491.511,378.506 z" />
<path d="M491.282,379.808 491.282,378.314 491.511,379.502 z" />
<path d="M491.282,379.808 491.06,378.128 491.282,378.314 z" />
<path d="M491.06,380.118 491.06,378.128 491.282,379.808 z" />
<path d="M491.06,380.118 485.289,373.285 491.06,378.128 z" />
<path d="M485.289,376.077 485.289,373.285 491.06,380.118 z" />
<path d="M485.289,376.077 484.925,373.727 485.289,373.285 z" />
<path d="M484.925,375.823 484.925,373.727 485.289,376.077 z" />
<path d="M484.925,375.823 484.572,374.178 484.925,373.727 z" />
<path d="M484.572,375.575 484.572,374.178 484.925,375.823 z" />
<path d="M484.572,375.575 484.229,374.636 484.572,374.178 z" />
<path d="M484.229,375.334 484.229,374.636 484.572,375.575 z" />
<path d="M484.229,375.334 483.895,375.101 484.229,374.636 z" />
</g>
<g stroke-width="0.75" clip-path="url(#clipId0)" fill="none" stroke="rgb(0,0,0)" >
<polyline points="491.989,378.907 485.289,373.285 " />
<polyline points="491.06,380.118 483.895,375.101 " />
</g>
<g stroke-width="0.3" clip-path="url(#clipId0)" fill="rgb(0,0,0)" stroke="none" >
<path d="M490.053,381.738 490.053,381.297 490.24,381.405 z" />
<path d="M490.053,381.738 489.873,381.193 490.053,381.297 z" />
<path d="M489.873,382.074 489.873,381.193 490.053,381.738 z" />
<path d="M489.873,382.074 489.7,381.094 489.873,381.193 z" />
<path d="M489.7,382.415 489.7,381.094 489.873,382.074 z" />
<path d="M489.7,382.415 489.535,380.998 489.7,381.094 z" />
<path d="M489.535,382.759 489.535,380.998 489.7,382.415 z" />
<path d="M489.535,382.759 482.665,377.032 489.535,380.998 z" />
<path d="M482.665,379.555 482.665,377.032 489.535,382.759 z" />
<path d="M482.665,379.555 482.384,377.531 482.665,377.032 z" />
<path d="M482.384,379.424 482.384,377.531 482.665,379.555 z" />
<path d="M482.384,379.424 482.114,378.035 482.384,377.531 z" />
<path d="M482.114,379.298 482.114,378.035 482.384,379.424 z" />
<path d="M482.114,379.298 481.856,378.546 482.114,378.035 z" />
<path d="M481.856,379.178 481.856,378.546 482.114,379.298 z" />
<path d="M481.856,379.178 481.608,379.062 481.856,378.546 z" />
</g>
<g stroke-width="0.75" clip-path="url(#clipId0)" fill="none" stroke="rgb(0,0,0)" >
<polyline points="490.24,381.405 482.665,377.032 " />
<polyline points="489.535,382.759 481.608,379.062 " />
</g>
<g stroke-width="0.3" clip-path="url(#clipId0)" fill="rgb(0,0,0)" stroke="none" >
<path d="M488.825,384.529 488.825,384.123 488.951,384.169 z" />
<path d="M488.825,384.529 488.706,384.079 488.825,384.123 z" />
<path d="M488.706,384.891 488.706,384.079 488.825,384.529 z" />
<path d="M488.706,384.891 488.595,384.039 488.706,384.079 z" />
<path d="M488.595,385.257 488.595,384.039 488.706,384.891 z" />
<path d="M488.595,385.257 488.492,384.002 488.595,384.039 z" />
<path d="M488.492,385.624 488.492,384.002 488.595,385.257 z" />
<path d="M488.492,385.624 480.732,381.177 488.492,384.002 z" />
<path d="M480.732,383.545 480.732,381.177 488.492,385.624 z" />
<path d="M480.732,383.545 480.542,381.717 480.732,381.177 z" />
<path d="M480.542,383.494 480.542,381.717 480.732,383.545 z" />
<path d="M480.542,383.494 480.364,382.261 480.542,381.717 z" />
<path d="M480.364,383.446 480.364,382.261 480.542,383.494 z" />
<path d="M480.364,383.446 480.198,382.809 480.364,382.261 z" />
<path d="M480.198,383.402 480.198,382.809 480.364,383.446 z" />
<path d="M480.198,383.402 480.044,383.36 480.198,382.809 z" />
</g>
<g stroke-width="0.75" clip-path="url(#clipId0)" fill="none" stroke="rgb(0,0,0)" >
<polyline points="488.951,384.169 480.732,381.177 " />
<polyline points="488.492,385.624 480.044,383.36 " />
</g>
<g stroke-width="0.3" clip-path="url(#clipId0)" fill="rgb(0,0,0)" stroke="none" >
<path d="M488.1,387.491 488.1,387.103 488.162,387.114 z" />
<path d="M488.1,387.491 488.046,387.094 488.1,387.103 z" />
<path d="M488.046,387.869 488.046,387.094 488.1,387.491 z" />
<path d="M488.046,387.869 488,387.086 488.046,387.094 z" />
<path d="M488,388.247 488,387.086 488.046,387.869 z" />
<path d="M488,388.247 487.963,387.079 488,387.086 z" />
<path d="M487.963,388.627 487.963,387.079 488,388.247 z" />
<path d="M487.963,388.627 479.548,385.595 487.963,387.079 z" />
<path d="M479.548,387.891 479.548,385.595 487.963,388.627 z" />
<path d="M479.548,387.891 479.455,386.16 479.548,385.595 z" />
<path d="M479.455,387.883 479.455,386.16 479.548,387.891 z" />
<path d="M479.455,387.883 479.374,386.727 479.455,386.16 z" />
<path d="M479.374,387.876 479.374,386.727 479.455,387.883 z" />
<path d="M479.374,387.876 479.306,387.295 479.374,386.727 z" />
<path d="M479.306,387.87 479.306,387.295 479.374,387.876 z" />
<path d="M479.306,387.87 479.249,387.865 479.306,387.295 z" />
</g>
<g stroke-width="0.75" clip-path="url(#clipId0)" fill="none" stroke="rgb(0,0,0)" >
<polyline points="488.162,387.114 479.548,385.595 " />
<polyline points="487.963,388.627 479.249,387.865 " />
</g>
<g stroke-width="0.3" clip-path="url(#clipId0)" fill="rgb(0,0,0)" stroke="none" >
<path d="M487.934,391.679 487.934,391.296 487.963,391.677 z" />
<path d="M487.934,391.679 487.913,390.915 487.934,391.296 z" />
<path d="M487.913,391.681 487.913,390.915 487.934,391.679 z" />
<path d="M487.913,391.681 487.901,390.533 487.913,390.915 z" />
<path d="M487.901,391.682 487.901,390.533 487.913,391.681 z" />
<path d="M487.901,391.682 487.896,390.152 487.901,390.533 z" />
<path d="M487.896,391.682 487.896,390.152 487.901,391.682 z" />
<path d="M487.896,391.682 479.249,390.152 487.896,390.152 z" />
<path d="M479.249,392.439 479.249,390.152 487.896,391.682 z" />
<path d="M479.249,392.439 479.206,390.152 479.249,390.152 z" />
<path d="M479.206,391.868 479.206,390.152 479.249,392.439 z" />
<path d="M479.206,391.868 479.175,390.152 479.206,390.152 z" />
<path d="M479.175,391.296 479.175,390.152 479.206,391.868 z" />
<path d="M479.175,391.296 479.156,390.152 479.175,390.152 z" />
<path d="M479.156,390.724 479.156,390.152 479.175,391.296 z" />
<path d="M479.156,390.724 479.15,390.152 479.156,390.152 z" />
</g>
<g stroke-width="0.75" clip-path="url(#clipId0)" fill="none" stroke="rgb(0,0,0)" >
<polyline points="487.896,390.152 479.15,390.152 " />
<polyline points="487.963,391.677 479.249,392.439 " />
</g>
<g stroke-width="0.3" clip-path="url(#clipId0)" fill="rgb(0,0,0)" stroke="none" >
<path d="M488.398,394.705 488.398,394.31 488.492,394.68 z" />
<path d="M488.398,394.705 488.311,393.938 488.398,394.31 z" />
<path d="M488.311,394.728 488.311,393.938 488.398,394.705 z" />
<path d="M488.311,394.728 488.232,393.565 488.311,393.938 z" />
<path d="M488.232,394.749 488.232,393.565 488.311,394.728 z" />
<path d="M488.232,394.749 488.162,393.19 488.232,393.565 z" />
<path d="M488.162,394.768 488.162,393.19 488.232,394.749 z" />
<path d="M488.162,394.768 480.044,394.621 488.162,393.19 z" />
<path d="M480.044,396.943 480.044,394.621 488.162,394.768 z" />
<path d="M480.044,396.943 479.902,394.646 480.044,394.621 z" />
<path d="M479.902,396.389 479.902,394.646 480.044,396.943 z" />
<path d="M479.902,396.389 479.772,394.669 479.902,394.646 z" />
<path d="M479.772,395.831 479.772,394.669 479.902,396.389 z" />
<path d="M479.772,395.831 479.654,394.69 479.772,394.669 z" />
<path d="M479.654,395.271 479.654,394.69 479.772,395.831 z" />
<path d="M479.654,395.271 479.548,394.708 479.654,394.69 z" />
</g>
<g stroke-width="0.75" clip-path="url(#clipId0)" fill="none" stroke="rgb(0,0,0)" >
<polyline points="488.162,393.19 479.548,394.708 " />
<polyline points="488.492,394.68 480.044,396.943 " />
</g>
<g stroke-width="0.3" clip-path="url(#clipId0)" fill="rgb(0,0,0)" stroke="none" >
<path d="M489.378,397.618 489.378,397.197 489.535,397.545 z" />
<path d="M489.378,397.618 489.228,396.846 489.378,397.197 z" />
<path d="M489.228,397.688 489.228,396.846 489.378,397.618 z" />
<path d="M489.228,397.688 489.086,396.492 489.228,396.846 z" />
<path d="M489.086,397.755 489.086,396.492 489.228,397.688 z" />
<path d="M489.086,397.755 488.951,396.135 489.086,396.492 z" />
<path d="M488.951,397.817 488.951,396.135 489.086,397.755 z" />
<path d="M488.951,397.817 481.608,398.808 488.951,396.135 z" />
<path d="M481.608,401.242 481.608,398.808 488.951,397.817 z" />
<path d="M481.608,401.242 481.372,398.894 481.608,398.808 z" />
<path d="M481.372,400.72 481.372,398.894 481.608,401.242 z" />
<path d="M481.372,400.72 481.147,398.976 481.372,398.894 z" />
<path d="M481.147,400.194 481.147,398.976 481.372,400.72 z" />
<path d="M481.147,400.194 480.934,399.053 481.147,398.976 z" />
<path d="M480.934,399.662 480.934,399.053 481.147,400.194 z" />
<path d="M480.934,399.662 480.732,399.127 480.934,399.053 z" />
</g>
<g stroke-width="0.75" clip-path="url(#clipId0)" fill="none" stroke="rgb(0,0,0)" >
<polyline points="488.951,396.135 480.732,399.127 " />
<polyline points="489.535,397.545 481.608,401.242 " />
</g>
<g stroke-width="0.3" clip-path="url(#clipId0)" fill="rgb(0,0,0)" stroke="none" >
<path d="M490.845,400.337 490.845,399.871 491.06,400.186 z" />
<path d="M490.845,400.337 490.636,399.551 490.845,399.871 z" />
<path d="M490.636,400.483 490.636,399.551 490.845,400.337 z" />
<path d="M490.636,400.483 490.434,399.227 490.636,399.551 z" />
<path d="M490.434,400.624 490.434,399.227 490.636,400.483 z" />
<path d="M490.434,400.624 490.24,398.899 490.434,399.227 z" />
<path d="M490.24,400.76 490.24,398.899 490.434,400.624 z" />
<path d="M490.24,400.76 483.895,402.562 490.24,398.899 z" />
<path d="M483.895,405.203 483.895,402.562 490.24,400.76 z" />
<path d="M483.895,405.203 483.572,402.749 483.895,402.562 z" />
<path d="M483.572,404.73 483.572,402.749 483.895,405.203 z" />
<path d="M483.572,404.73 483.259,402.929 483.572,402.749 z" />
<path d="M483.259,404.251 483.259,402.929 483.572,404.73 z" />
<path d="M483.259,404.251 482.957,403.104 483.259,402.929 z" />
<path d="M482.957,403.765 482.957,403.104 483.259,404.251 z" />
<path d="M482.957,403.765 482.665,403.272 482.957,403.104 z" />
</g>
<g stroke-width="0.75" clip-path="url(#clipId0)" fill="none" stroke="rgb(0,0,0)" >
<polyline points="490.24,398.899 482.665,403.272 " />
<polyline points="491.06,400.186 483.895,405.203 " />
</g>
<g stroke-width="0.3" clip-path="url(#clipId0)" fill="rgb(0,0,0)" stroke="none" >
<path d="M492.753,402.789 492.753,402.249 493.02,402.522 z" />
<path d="M492.753,402.789 492.492,401.97 492.753,402.249 z" />
<path d="M492.492,403.049 492.492,401.97 492.753,402.789 z" />
<path d="M492.492,403.049 492.238,401.686 492.492,401.97 z" />
<path d="M492.238,403.304 492.238,401.686 492.492,403.049 z" />
<path d="M492.238,403.304 491.989,401.397 492.238,401.686 z" />
<path d="M491.989,403.553 491.989,401.397 492.238,403.304 z" />
<path d="M491.989,403.553 486.835,405.721 491.989,401.397 z" />
<path d="M486.835,408.707 486.835,405.721 491.989,403.553 z" />
<path d="M486.835,408.707 486.435,406.057 486.835,405.721 z" />
<path d="M486.435,408.297 486.435,406.057 486.835,408.707 z" />
<path d="M486.435,408.297 486.044,406.385 486.435,406.057 z" />
<path d="M486.044,407.88 486.044,406.385 486.435,408.297 z" />
<path d="M486.044,407.88 485.661,406.706 486.044,406.385 z" />
<path d="M485.661,407.453 485.661,406.706 486.044,407.88 z" />
<path d="M485.661,407.453 485.289,407.019 485.661,406.706 z" />
</g>
<g stroke-width="0.75" clip-path="url(#clipId0)" fill="none" stroke="rgb(0,0,0)" >
<polyline points="491.989,401.397 485.289,407.019 " />
<polyline points="493.02,402.522 486.835,408.707 " />
</g>
<g stroke-width="0.3" clip-path="url(#clipId0)" fill="rgb(0,0,0)" stroke="none" >
<path d="M495.046,404.925 495.046,404.259 495.356,404.482 z" />
<path d="M495.046,404.925 494.741,404.03 495.046,404.259 z" />
<path d="M494.741,405.361 494.741,404.03 495.046,404.925 z" />
<path d="M494.741,405.361 494.44,403.795 494.741,404.03 z" />
<path d="M494.44,405.79 494.44,403.795 494.741,405.361 z" />
<path d="M494.44,405.79 494.145,403.553 494.44,403.795 z" />
<path d="M494.145,406.211 494.145,403.553 494.44,405.79 z" />
<path d="M494.145,406.211 490.339,408.089 494.145,403.553 z" />
<path d="M490.339,411.647 490.339,408.089 494.145,406.211 z" />
<path d="M490.339,411.647 489.874,408.643 490.339,408.089 z" />
<path d="M489.874,411.313 489.874,408.643 490.339,411.647 z" />
<path d="M489.874,411.313 489.416,409.189 489.874,408.643 z" />
<path d="M489.416,410.97 489.416,409.189 489.874,411.313 z" />
<path d="M489.416,410.97 488.965,409.726 489.416,409.189 z" />
<path d="M488.965,410.616 488.965,409.726 489.416,410.97 z" />
<path d="M488.965,410.616 488.523,410.253 488.965,409.726 z" />
</g>
<g stroke-width="0.75" clip-path="url(#clipId0)" fill="none" stroke="rgb(0,0,0)" >
<polyline points="494.145,403.553 488.523,410.253 " />
<polyline points="495.356,404.482 490.339,411.647 " />
</g>
<g stroke-width="0.3" clip-path="url(#clipId0)" fill="rgb(0,0,0)" stroke="none" >
<path d="M497.653,406.744 497.653,405.841 497.997,406.006 z" />
<path d="M497.653,406.744 497.312,405.669 497.653,405.841 z" />
<path d="M497.312,407.474 497.312,405.669 497.653,406.744 z" />
<path d="M497.312,407.474 496.976,405.489 497.312,405.669 z" />
<path d="M496.976,408.196 496.976,405.489 497.312,407.474 z" />
<path d="M496.976,408.196 496.643,405.302 496.976,405.489 z" />
<path d="M496.643,408.909 496.643,405.302 496.976,408.196 z" />
<path d="M496.643,408.909 494.3,409.36 496.643,405.302 z" />
<path d="M494.3,413.934 494.3,409.36 496.643,408.909 z" />
<path d="M494.3,413.934 493.784,410.254 494.3,409.36 z" />
<path d="M493.784,413.686 493.784,410.254 494.3,413.934 z" />
<path d="M493.784,413.686 493.273,411.138 493.784,410.254 z" />
<path d="M493.273,413.427 493.273,411.138 493.784,413.686 z" />
<path d="M493.273,413.427 492.769,412.013 493.273,411.138 z" />
<path d="M492.769,413.158 492.769,412.013 493.273,413.427 z" />
<path d="M492.769,413.158 492.27,412.877 492.769,412.013 z" />
</g>
<g stroke-width="0.75" clip-path="url(#clipId0)" fill="none" stroke="rgb(0,0,0)" >
<polyline points="496.643,405.302 492.27,412.877 " />
<polyline points="497.997,406.006 494.3,413.934 " />
</g>
<g stroke-width="0.3" clip-path="url(#clipId0)" fill="rgb(0,0,0)" stroke="none" >
<path d="M500.495,408.421 500.495,406.947 500.862,407.049 z" />
<path d="M500.495,408.421 500.13,406.836 500.495,406.947 z" />
<path d="M500.13,409.784 500.13,406.836 500.495,408.421 z" />
<path d="M500.13,409.784 499.767,406.717 500.13,406.836 z" />
<path d="M499.767,411.138 499.767,406.717 500.13,409.784 z" />
<path d="M499.767,411.138 499.407,406.59 499.767,406.717 z" />
<path d="M499.407,412.481 499.407,406.59 499.767,411.138 z" />
<path d="M499.407,412.481 498.598,408.811 499.407,406.59 z" />
<path d="M498.598,415.498 498.598,408.811 499.407,412.481 z" />
<path d="M498.598,415.498 498.047,410.326 498.598,408.811 z" />
<path d="M498.047,415.344 498.047,410.326 498.598,415.498 z" />
<path d="M498.047,415.344 497.499,411.831 498.047,410.326 z" />
<path d="M497.499,415.178 497.499,411.831 498.047,415.344 z" />
<path d="M497.499,415.178 496.955,413.326 497.499,411.831 z" />
<path d="M496.955,415 496.955,413.326 497.499,415.178 z" />
<path d="M496.955,415 496.415,414.81 496.955,413.326 z" />
</g>
<g stroke-width="0.75" clip-path="url(#clipId0)" fill="none" stroke="rgb(0,0,0)" >
<polyline points="499.407,406.59 496.415,414.81 " />
<polyline points="500.862,407.049 498.598,415.498 " />
</g>
<g stroke-width="0.3" clip-path="url(#clipId0)" fill="rgb(0,0,0)" stroke="none" >
<path d="M503.485,411.92 503.485,407.541 503.865,407.579 z" />
<path d="M503.485,411.92 503.107,407.496 503.485,407.541 z" />
<path d="M503.107,416.251 503.107,407.496 503.485,411.92 z" />
<path d="M503.107,416.251 503.103,407.495 503.107,407.496 z" />
<path d="M503.103,416.292 503.103,407.495 503.107,416.251 z" />
<path d="M503.103,416.292 502.729,407.442 503.103,407.495 z" />
<path d="M502.729,416.256 502.729,407.442 503.103,416.292 z" />
<path d="M502.729,416.256 502.533,407.41 502.729,407.442 z" />
<path d="M502.533,416.236 502.533,407.41 502.729,416.256 z" />
<path d="M502.533,416.236 502.352,407.38 502.533,407.41 z" />
<path d="M502.352,416.214 502.352,407.38 502.533,416.236 z" />
<path d="M502.352,416.214 501.965,409.576 502.352,407.38 z" />
<path d="M501.965,416.168 501.965,409.576 502.352,416.214 z" />
<path d="M501.965,416.168 501.398,412.79 501.965,409.576 z" />
<path d="M501.398,416.087 501.398,412.79 501.965,416.168 z" />
<path d="M501.398,416.087 500.833,415.994 501.398,412.79 z" />
</g>
<g stroke-width="0.75" clip-path="url(#clipId0)" fill="none" stroke="rgb(0,0,0)" >
<polyline points="502.352,407.38 500.833,415.994 " />
<polyline points="503.865,407.579 503.103,416.292 " />
</g>
<g stroke-width="0.3" clip-path="url(#clipId0)" fill="rgb(0,0,0)" stroke="none" >
<path d="M507.106,416.336 507.106,409.768 507.677,416.292 z" />
<path d="M507.106,416.336 506.915,407.579 507.106,409.768 z" />
<path d="M506.915,416.347 506.915,407.579 507.106,416.336 z" />
<path d="M506.915,416.347 506.535,407.608 506.915,407.579 z" />
<path d="M506.535,416.367 506.535,407.608 506.915,416.347 z" />
<path d="M506.535,416.367 506.534,407.608 506.535,407.608 z" />
<path d="M506.534,416.367 506.534,407.608 506.535,416.367 z" />
<path d="M506.534,416.367 506.153,407.629 506.534,407.608 z" />
<path d="M506.153,416.38 506.153,407.629 506.534,416.367 z" />
<path d="M506.153,416.38 505.962,407.635 506.153,407.629 z" />
<path d="M505.962,416.386 505.962,407.635 506.153,416.38 z" />
<path d="M505.962,416.386 505.772,407.641 505.962,407.635 z" />
<path d="M505.772,416.388 505.772,407.641 505.962,416.386 z" />
<path d="M505.772,416.388 505.39,407.645 505.772,407.641 z" />
<path d="M505.39,416.392 505.39,407.645 505.772,416.388 z" />
</g>
<g stroke-width="0.75" clip-path="url(#clipId0)" fill="none" stroke="rgb(0,0,0)" >
<polyline points="505.39,407.645 505.39,416.392 " />
<polyline points="506.915,407.579 507.677,416.292 " />
</g>
<g stroke-width="0.3" clip-path="url(#clipId0)" fill="rgb(0,0,0)" stroke="none" >
<path d="M511.627,415.64 511.627,413.429 512.181,415.498 z" />
<path d="M511.627,415.64 511.069,411.348 511.627,413.429 z" />
<path d="M511.069,415.77 511.069,411.348 511.627,415.64 z" />
<path d="M511.069,415.77 510.509,409.257 511.069,411.348 z" />
<path d="M510.509,415.888 510.509,409.257 511.069,415.77 z" />
<path d="M510.509,415.888 509.947,407.157 510.509,409.257 z" />
<path d="M509.947,415.994 509.947,407.157 510.509,415.888 z" />
<path d="M509.947,415.994 509.918,407.049 509.947,407.157 z" />
<path d="M509.918,415.83 509.918,407.049 509.947,415.994 z" />
<path d="M509.918,415.83 509.548,407.144 509.918,407.049 z" />
<path d="M509.548,413.733 509.548,407.144 509.918,415.83 z" />
<path d="M509.548,413.733 509.176,407.231 509.548,407.144 z" />
<path d="M509.176,411.625 509.176,407.231 509.548,413.733 z" />
<path d="M509.176,411.625 508.803,407.309 509.176,407.231 z" />
<path d="M508.803,409.507 508.803,407.309 509.176,411.625 z" />
<path d="M508.803,409.507 508.428,407.38 508.803,407.309 z" />
</g>
<g stroke-width="0.75" clip-path="url(#clipId0)" fill="none" stroke="rgb(0,0,0)" >
<polyline points="508.428,407.38 509.947,415.994 " />
<polyline points="509.918,407.049 512.181,415.498 " />
</g>
<g stroke-width="0.3" clip-path="url(#clipId0)" fill="rgb(0,0,0)" stroke="none" >
<path d="M515.958,414.17 515.958,412.816 516.48,413.934 z" />
<path d="M515.958,414.17 515.432,411.686 515.958,412.816 z" />
<path d="M515.432,414.395 515.432,411.686 515.958,414.17 z" />
<path d="M515.432,414.395 514.9,410.547 515.432,411.686 z" />
<path d="M514.9,414.608 514.9,410.547 515.432,414.395 z" />
<path d="M514.9,414.608 514.365,409.398 514.9,410.547 z" />
<path d="M514.365,414.81 514.365,409.398 514.9,414.608 z" />
<path d="M514.365,414.81 512.783,406.006 514.365,409.398 z" />
<path d="M512.783,410.464 512.783,406.006 514.365,414.81 z" />
<path d="M512.783,410.464 512.435,406.164 512.783,406.006 z" />
<path d="M512.435,409.509 512.435,406.164 512.783,410.464 z" />
<path d="M512.435,409.509 512.084,406.314 512.435,406.164 z" />
<path d="M512.084,408.545 512.084,406.314 512.435,409.509 z" />
<path d="M512.084,408.545 511.73,406.456 512.084,406.314 z" />
<path d="M511.73,407.572 511.73,406.456 512.084,408.545 z" />
<path d="M511.73,407.572 511.373,406.59 511.73,406.456 z" />
</g>
<g stroke-width="0.75" clip-path="url(#clipId0)" fill="none" stroke="rgb(0,0,0)" >
<polyline points="511.373,406.59 514.365,414.81 " />
<polyline points="512.783,406.006 516.48,413.934 " />
</g>
<g stroke-width="0.3" clip-path="url(#clipId0)" fill="rgb(0,0,0)" stroke="none" >
<path d="M519.968,411.97 519.968,410.972 520.441,411.647 z" />
<path d="M519.968,411.97 519.489,410.287 519.968,410.972 z" />
<path d="M519.489,412.283 519.489,410.287 519.968,411.97 z" />
<path d="M519.489,412.283 519.003,409.593 519.489,410.287 z" />
<path d="M519.003,412.585 519.003,409.593 519.489,412.283 z" />
<path d="M519.003,412.585 518.51,408.889 519.003,409.593 z" />
<path d="M518.51,412.877 518.51,408.889 519.003,412.585 z" />
<path d="M518.51,412.877 515.424,404.482 518.51,408.889 z" />
<path d="M515.424,407.531 515.424,404.482 518.51,412.877 z" />
<path d="M515.424,407.531 515.109,404.697 515.424,404.482 z" />
<path d="M515.109,406.986 515.109,404.697 515.424,407.531 z" />
<path d="M515.109,406.986 514.789,404.906 515.109,404.697 z" />
<path d="M514.789,406.432 514.789,404.906 515.109,406.986 z" />
<path d="M514.789,406.432 514.465,405.107 514.789,404.906 z" />
<path d="M514.465,405.871 514.465,405.107 514.789,406.432 z" />
<path d="M514.465,405.871 514.137,405.302 514.465,405.107 z" />
</g>
<g stroke-width="0.75" clip-path="url(#clipId0)" fill="none" stroke="rgb(0,0,0)" >
<polyline points="514.137,405.302 518.51,412.877 " />
<polyline points="515.424,404.482 520.441,411.647 " />
</g>
<g stroke-width="0.3" clip-path="url(#clipId0)" fill="rgb(0,0,0)" stroke="none" >
<path d="M523.536,409.107 523.536,408.297 523.945,408.707 z" />
<path d="M523.536,409.107 523.118,407.88 523.536,408.297 z" />
<path d="M523.118,409.498 523.118,407.88 523.536,409.107 z" />
<path d="M523.118,409.498 522.691,407.453 523.118,407.88 z" />
<path d="M522.691,409.88 522.691,407.453 523.118,409.498 z" />
<path d="M522.691,409.88 522.257,407.019 522.691,407.453 z" />
<path d="M522.257,410.253 522.257,407.019 522.691,409.88 z" />
<path d="M522.257,410.253 517.76,402.522 522.257,407.019 z" />
<path d="M517.76,404.894 517.76,402.522 522.257,410.253 z" />
<path d="M517.76,404.894 517.487,402.789 517.76,402.522 z" />
<path d="M517.487,404.569 517.487,402.789 517.76,404.894 z" />
<path d="M517.487,404.569 517.208,403.049 517.487,402.789 z" />
<path d="M517.208,404.237 517.208,403.049 517.487,404.569 z" />
<path d="M517.208,404.237 516.924,403.304 517.208,403.049 z" />
<path d="M516.924,403.898 516.924,403.304 517.208,404.237 z" />
<path d="M516.924,403.898 516.635,403.553 516.924,403.304 z" />
</g>
<g stroke-width="0.75" clip-path="url(#clipId0)" fill="none" stroke="rgb(0,0,0)" >
<polyline points="516.635,403.553 522.257,410.253 " />
<polyline points="517.76,402.522 523.945,408.707 " />
</g>
<g stroke-width="0.3" clip-path="url(#clipId0)" fill="rgb(0,0,0)" stroke="none" >
<path d="M526.551,405.668 526.551,404.969 526.885,405.203 z" />
<path d="M526.551,405.668 526.208,404.729 526.551,404.969 z" />
<path d="M526.208,406.126 526.208,404.729 526.551,405.668 z" />
<path d="M526.208,406.126 525.854,404.481 526.208,404.729 z" />
<path d="M525.854,406.576 525.854,404.481 526.208,406.126 z" />
<path d="M525.854,406.576 525.491,404.227 525.854,404.481 z" />
<path d="M525.491,407.019 525.491,404.227 525.854,406.576 z" />
<path d="M525.491,407.019 519.72,400.186 525.491,404.227 z" />
<path d="M519.72,402.176 519.72,400.186 525.491,407.019 z" />
<path d="M519.72,402.176 519.498,400.496 519.72,400.186 z" />
<path d="M519.498,401.99 519.498,400.496 519.72,402.176 z" />
<path d="M519.498,401.99 519.269,400.801 519.498,400.496 z" />
<path d="M519.269,401.797 519.269,400.801 519.498,401.99 z" />
<path d="M519.269,401.797 519.033,401.102 519.269,400.801 z" />
<path d="M519.033,401.6 519.033,401.102 519.269,401.797 z" />
<path d="M519.033,401.6 518.791,401.397 519.033,401.102 z" />
</g>
<g stroke-width="0.75" clip-path="url(#clipId0)" fill="none" stroke="rgb(0,0,0)" >
<polyline points="518.791,401.397 525.491,407.019 " />
<polyline points="519.72,400.186 526.885,405.203 " />
</g>
<g stroke-width="0.3" clip-path="url(#clipId0)" fill="rgb(0,0,0)" stroke="none" >
<path d="M528.924,401.758 528.924,401.126 529.172,401.242 z" />
<path d="M528.924,401.758 528.665,401.005 528.924,401.126 z" />
<path d="M528.665,402.268 528.665,401.005 528.924,401.758 z" />
<path d="M528.665,402.268 528.396,400.88 528.665,401.005 z" />
<path d="M528.396,402.773 528.396,400.88 528.665,402.268 z" />
<path d="M528.396,402.773 528.115,400.749 528.396,400.88 z" />
<path d="M528.115,403.272 528.115,400.749 528.396,402.773 z" />
<path d="M528.115,403.272 521.245,397.545 528.115,400.749 z" />
<path d="M521.245,399.306 521.245,397.545 528.115,403.272 z" />
<path d="M521.245,399.306 521.079,397.889 521.245,397.545 z" />
<path d="M521.079,399.21 521.079,397.889 521.245,399.306 z" />
<path d="M521.079,399.21 520.907,398.23 521.079,397.889 z" />
<path d="M520.907,399.111 520.907,398.23 521.079,399.21 z" />
<path d="M520.907,399.111 520.727,398.566 520.907,398.23 z" />
<path d="M520.727,399.007 520.727,398.566 520.907,399.111 z" />
<path d="M520.727,399.007 520.54,398.899 520.727,398.566 z" />
</g>
<g stroke-width="0.75" clip-path="url(#clipId0)" fill="none" stroke="rgb(0,0,0)" >
<polyline points="520.54,398.899 528.115,403.272 " />
<polyline points="521.245,397.545 529.172,401.242 " />
</g>
<g stroke-width="0.3" clip-path="url(#clipId0)" fill="rgb(0,0,0)" stroke="none" >
<path d="M530.582,397.495 530.582,396.902 530.736,396.943 z" />
<path d="M530.582,397.495 530.416,396.858 530.582,396.902 z" />
<path d="M530.416,398.043 530.416,396.858 530.582,397.495 z" />
<path d="M530.416,398.043 530.238,396.81 530.416,396.858 z" />
<path d="M530.238,398.587 530.238,396.81 530.416,398.043 z" />
<path d="M530.238,398.587 530.048,396.759 530.238,396.81 z" />
<path d="M530.048,399.127 530.048,396.759 530.238,398.587 z" />
<path d="M530.048,399.127 522.287,394.68 530.048,396.759 z" />
<path d="M522.287,396.302 522.287,394.68 530.048,399.127 z" />
<path d="M522.287,396.302 522.185,395.047 522.287,394.68 z" />
<path d="M522.185,396.265 522.185,395.047 522.287,396.302 z" />
<path d="M522.185,396.265 522.074,395.412 522.185,395.047 z" />
<path d="M522.074,396.224 522.074,395.412 522.185,396.265 z" />
<path d="M522.074,396.224 521.955,395.775 522.074,395.412 z" />
<path d="M521.955,396.181 521.955,395.775 522.074,396.224 z" />
<path d="M521.955,396.181 521.829,396.135 521.955,395.775 z" />
</g>
<g stroke-width="0.75" clip-path="url(#clipId0)" fill="none" stroke="rgb(0,0,0)" >
<polyline points="521.829,396.135 530.048,399.127 " />
<polyline points="522.287,394.68 530.736,396.943 " />
</g>
<g stroke-width="0.3" clip-path="url(#clipId0)" fill="rgb(0,0,0)" stroke="none" >
<path d="M531.474,393.009 531.474,392.434 531.53,392.439 z" />
<path d="M531.474,393.009 531.406,392.428 531.474,392.434 z" />
<path d="M531.406,393.577 531.406,392.428 531.474,393.009 z" />
<path d="M531.406,393.577 531.325,392.421 531.406,392.428 z" />
<path d="M531.325,394.144 531.325,392.421 531.406,393.577 z" />
<path d="M531.325,394.144 531.232,392.413 531.325,392.421 z" />
<path d="M531.232,394.708 531.232,392.413 531.325,394.144 z" />
<path d="M531.232,394.708 522.817,391.677 531.232,392.413 z" />
<path d="M522.817,393.225 522.817,391.677 531.232,394.708 z" />
<path d="M522.817,393.225 522.78,392.056 522.817,391.677 z" />
<path d="M522.78,393.218 522.78,392.056 522.817,393.225 z" />
<path d="M522.78,393.218 522.734,392.435 522.78,392.056 z" />
<path d="M522.734,393.21 522.734,392.435 522.78,393.218 z" />
<path d="M522.734,393.21 522.68,392.813 522.734,392.435 z" />
<path d="M522.68,393.201 522.68,392.813 522.734,393.21 z" />
<path d="M522.68,393.201 522.618,393.19 522.68,392.813 z" />
</g>
<g stroke-width="0.75" clip-path="url(#clipId0)" fill="none" stroke="rgb(0,0,0)" >
<polyline points="522.618,393.19 531.232,394.708 " />
<polyline points="522.817,391.677 531.53,392.439 " />
<ellipse rx="1.74936" ry="1.74936" cx="505.39" cy="390.152" />
<polyline points="505.39,390.152 522.817,391.677 " />
<polyline points="505.39,390.152 522.817,388.627 " />
</g>
</svg>
