<?xml version="1.0" standalone="no"?>
<svg viewBox="0 0 1024 768" version="1.1" xmlns="http://www.w3.org/2000/svg" stroke-linecap="round" stroke-linejoin="round" fill-rule="evenodd" xml:space="preserve" >
<defs >
<clipPath id="clipId0" >
<path d="M0,768 1024,768 1024,0 0,0 z" />
</clipPath>
</defs>
<g stroke-width="0.75" clip-path="url(#clipId0)" fill="none" stroke="rgb(0,0,0)" />
<g stroke-width="0.3" clip-path="url(#clipId0)" fill="rgb(0,0,0)" stroke="none" >
<path d="M510.575,381.519 510.575,380.947 510.582,381.519 z" />
<path d="M510.575,381.519 510.557,380.375 510.575,380.947 z" />
<path d="M510.557,381.519 510.557,380.375 510.575,381.519 z" />
<path d="M510.557,381.519 510.525,379.803 510.557,380.375 z" />
<path d="M510.525,381.519 510.525,379.803 510.557,381.519 z" />
<path d="M510.525,381.519 510.482,379.232 510.525,379.803 z" />
<path d="M510.482,381.519 510.482,379.232 510.525,381.519 z" />
<path d="M510.482,381.519 501.835,379.989 510.482,379.232 z" />
<path d="M501.835,381.519 501.835,379.989 510.482,381.519 z" />
<path d="M501.835,381.519 501.831,379.989 501.835,379.989 z" />
<path d="M501.831,381.138 501.831,379.989 501.835,381.519 z" />
<path d="M501.831,381.138 501.818,379.99 501.831,379.989 z" />
<path d="M501.818,380.756 501.818,379.99 501.831,381.138 z" />
<path d="M501.818,380.756 501.797,379.992 501.818,379.99 z" />
<path d="M501.797,380.375 501.797,379.992 501.818,380.756 z" />
<path d="M501.797,380.375 501.768,379.995 501.797,379.992 z" />
</g>
<g stroke-width="0.75" clip-path="url(#clipId0)" fill="none" stroke="rgb(0,0,0)" >
<ellipse rx="26.2404" ry="26.2404" cx="484.341" cy="381.519" />
<ellipse rx="17.4936" ry="17.4936" cx="484.341" cy="381.519" />
<polyline points="501.835,381.519 510.582,381.519 " />
<polyline points="501.768,379.995 510.482,379.232 " />
</g>
<g stroke-width="0.3" clip-path="url(#clipId0)" fill="rgb(0,0,0)" stroke="none" >
<path d="M510.077,376.981 510.077,376.4 510.183,376.963 z" />
<path d="M510.077,376.981 509.96,375.84 510.077,376.4 z" />
<path d="M509.96,377.002 509.96,375.84 510.077,376.981 z" />
<path d="M509.96,377.002 509.83,375.282 509.96,375.84 z" />
<path d="M509.83,377.025 509.83,375.282 509.96,377.002 z" />
<path d="M509.83,377.025 509.687,374.728 509.83,375.282 z" />
<path d="M509.687,377.05 509.687,374.728 509.83,377.025 z" />
<path d="M509.687,377.05 501.569,376.903 509.687,374.728 z" />
<path d="M501.569,378.482 501.569,376.903 509.687,377.05 z" />
<path d="M501.569,378.482 501.499,376.922 501.569,376.903 z" />
<path d="M501.499,378.107 501.499,376.922 501.569,378.482 z" />
<path d="M501.499,378.107 501.42,376.943 501.499,376.922 z" />
<path d="M501.42,377.733 501.42,376.943 501.499,378.107 z" />
<path d="M501.42,377.733 501.333,376.966 501.42,376.943 z" />
<path d="M501.333,377.361 501.333,376.966 501.42,377.733 z" />
<path d="M501.333,377.361 501.239,376.992 501.333,376.966 z" />
</g>
<g stroke-width="0.75" clip-path="url(#clipId0)" fill="none" stroke="rgb(0,0,0)" >
<polyline points="501.569,378.482 510.183,376.963 " />
<polyline points="501.239,376.992 509.687,374.728 " />
</g>
<g stroke-width="0.3" clip-path="url(#clipId0)" fill="rgb(0,0,0)" stroke="none" >
<path d="M508.797,372.618 508.797,372.009 508.999,372.545 z" />
<path d="M508.797,372.618 508.584,371.478 508.797,372.009 z" />
<path d="M508.584,372.696 508.584,371.478 508.797,372.618 z" />
<path d="M508.584,372.696 508.359,370.951 508.584,371.478 z" />
<path d="M508.359,372.778 508.359,370.951 508.584,372.696 z" />
<path d="M508.359,372.778 508.123,370.43 508.359,370.951 z" />
<path d="M508.123,372.864 508.123,370.43 508.359,372.778 z" />
<path d="M508.123,372.864 500.78,373.854 508.123,370.43 z" />
<path d="M500.78,375.536 500.78,373.854 508.123,372.864 z" />
<path d="M500.78,375.536 500.645,373.917 500.78,373.854 z" />
<path d="M500.645,375.179 500.645,373.917 500.78,375.536 z" />
<path d="M500.645,375.179 500.503,373.983 500.645,373.917 z" />
<path d="M500.503,374.825 500.503,373.983 500.645,375.179 z" />
<path d="M500.503,374.825 500.353,374.053 500.503,373.983 z" />
<path d="M500.353,374.474 500.353,374.053 500.503,374.825 z" />
<path d="M500.353,374.474 500.196,374.126 500.353,374.053 z" />
</g>
<g stroke-width="0.75" clip-path="url(#clipId0)" fill="none" stroke="rgb(0,0,0)" >
<polyline points="500.78,375.536 508.999,372.545 " />
<polyline points="500.196,374.126 508.123,370.43 " />
</g>
<g stroke-width="0.3" clip-path="url(#clipId0)" fill="rgb(0,0,0)" stroke="none" >
<path d="M506.774,368.568 506.774,367.907 507.066,368.399 z" />
<path d="M506.774,368.568 506.472,367.42 506.774,367.907 z" />
<path d="M506.472,368.742 506.472,367.42 506.774,368.568 z" />
<path d="M506.472,368.742 506.159,366.941 506.472,367.42 z" />
<path d="M506.159,368.923 506.159,366.941 506.472,368.742 z" />
<path d="M506.159,368.923 505.836,366.469 506.159,366.941 z" />
<path d="M505.836,369.109 505.836,366.469 506.159,368.923 z" />
<path d="M505.836,369.109 499.491,370.911 505.836,366.469 z" />
<path d="M499.491,372.773 499.491,370.911 505.836,369.109 z" />
<path d="M499.491,372.773 499.297,371.047 499.491,370.911 z" />
<path d="M499.297,372.444 499.297,371.047 499.491,372.773 z" />
<path d="M499.297,372.444 499.095,371.189 499.297,371.047 z" />
<path d="M499.095,372.12 499.095,371.189 499.297,372.444 z" />
<path d="M499.095,372.12 498.887,371.335 499.095,371.189 z" />
<path d="M498.887,371.801 498.887,371.335 499.095,372.12 z" />
<path d="M498.887,371.801 498.671,371.486 498.887,371.335 z" />
</g>
<g stroke-width="0.75" clip-path="url(#clipId0)" fill="none" stroke="rgb(0,0,0)" >
<polyline points="499.491,372.773 507.066,368.399 " />
<polyline points="498.671,371.486 505.836,366.469 " />
</g>
<g stroke-width="0.3" clip-path="url(#clipId0)" fill="rgb(0,0,0)" stroke="none" >
<path d="M504.07,364.965 504.07,364.218 504.442,364.652 z" />
<path d="M504.07,364.965 503.688,363.792 504.07,364.218 z" />
<path d="M503.688,365.286 503.688,363.792 504.07,364.965 z" />
<path d="M503.688,365.286 503.296,363.374 503.688,363.792 z" />
<path d="M503.296,365.614 503.296,363.374 503.688,365.286 z" />
<path d="M503.296,365.614 502.896,362.965 503.296,363.374 z" />
<path d="M502.896,365.95 502.896,362.965 503.296,365.614 z" />
<path d="M502.896,365.95 497.742,368.119 502.896,362.965 z" />
<path d="M497.742,370.275 497.742,368.119 502.896,365.95 z" />
<path d="M497.742,370.275 497.494,368.367 497.742,368.119 z" />
<path d="M497.494,369.985 497.494,368.367 497.742,370.275 z" />
<path d="M497.494,369.985 497.239,368.622 497.494,368.367 z" />
<path d="M497.239,369.701 497.239,368.622 497.494,369.985 z" />
<path d="M497.239,369.701 496.978,368.883 497.239,368.622 z" />
<path d="M496.978,369.422 496.978,368.883 497.239,369.701 z" />
<path d="M496.978,369.422 496.711,369.15 496.978,368.883 z" />
</g>
<g stroke-width="0.75" clip-path="url(#clipId0)" fill="none" stroke="rgb(0,0,0)" >
<polyline points="497.742,370.275 504.442,364.652 " />
<polyline points="496.711,369.15 502.896,362.965 " />
</g>
<g stroke-width="0.3" clip-path="url(#clipId0)" fill="rgb(0,0,0)" stroke="none" >
<path d="M500.766,361.945 500.766,361.055 501.208,361.418 z" />
<path d="M500.766,361.945 500.315,360.702 500.766,361.055 z" />
<path d="M500.315,362.482 500.315,360.702 500.766,361.945 z" />
<path d="M500.315,362.482 499.857,360.358 500.315,360.702 z" />
<path d="M499.857,363.028 499.857,360.358 500.315,362.482 z" />
<path d="M499.857,363.028 499.392,360.025 499.857,360.358 z" />
<path d="M499.392,363.582 499.392,360.025 499.857,363.028 z" />
<path d="M499.392,363.582 495.586,365.46 499.392,360.025 z" />
<path d="M495.586,368.119 495.586,365.46 499.392,363.582 z" />
<path d="M495.586,368.119 495.291,365.882 495.586,365.46 z" />
<path d="M495.291,367.876 495.291,365.882 495.586,368.119 z" />
<path d="M495.291,367.876 494.991,366.31 495.291,365.882 z" />
<path d="M494.991,367.641 494.991,366.31 495.291,367.876 z" />
<path d="M494.991,367.641 494.685,366.746 494.991,366.31 z" />
<path d="M494.685,367.412 494.685,366.746 494.991,367.641 z" />
<path d="M494.685,367.412 494.375,367.19 494.685,366.746 z" />
</g>
<g stroke-width="0.75" clip-path="url(#clipId0)" fill="none" stroke="rgb(0,0,0)" >
<polyline points="495.586,368.119 501.208,361.418 " />
<polyline points="494.375,367.19 499.392,360.025 " />
</g>
<g stroke-width="0.3" clip-path="url(#clipId0)" fill="rgb(0,0,0)" stroke="none" >
<path d="M496.963,359.659 496.963,358.514 497.461,358.795 z" />
<path d="M496.963,359.659 496.458,358.244 496.963,358.514 z" />
<path d="M496.458,360.533 496.458,358.244 496.963,359.659 z" />
<path d="M496.458,360.533 495.947,357.985 496.458,358.244 z" />
<path d="M495.947,361.418 495.947,357.985 496.458,360.533 z" />
<path d="M495.947,361.418 495.431,357.738 495.947,357.985 z" />
<path d="M495.431,362.312 495.431,357.738 495.947,361.418 z" />
<path d="M495.431,362.312 493.088,362.762 495.431,357.738 z" />
<path d="M493.088,366.37 493.088,362.762 495.431,362.312 z" />
<path d="M493.088,366.37 492.755,363.475 493.088,362.762 z" />
<path d="M492.755,366.182 492.755,363.475 493.088,366.37 z" />
<path d="M492.755,366.182 492.419,364.197 492.755,363.475 z" />
<path d="M492.419,366.002 492.419,364.197 492.755,366.182 z" />
<path d="M492.419,366.002 492.078,364.927 492.419,364.197 z" />
<path d="M492.078,365.83 492.078,364.927 492.419,366.002 z" />
<path d="M492.078,365.83 491.734,365.665 492.078,364.927 z" />
</g>
<g stroke-width="0.75" clip-path="url(#clipId0)" fill="none" stroke="rgb(0,0,0)" >
<polyline points="493.088,366.37 497.461,358.795 " />
<polyline points="491.734,365.665 495.431,357.738 " />
</g>
<g stroke-width="0.3" clip-path="url(#clipId0)" fill="rgb(0,0,0)" stroke="none" >
<path d="M492.776,358.345 492.776,356.672 493.316,356.862 z" />
<path d="M492.776,358.345 492.232,356.494 492.776,356.672 z" />
<path d="M492.232,359.84 492.232,356.494 492.776,358.345 z" />
<path d="M492.232,359.84 491.684,356.327 492.232,356.494 z" />
<path d="M491.684,361.345 491.684,356.327 492.232,359.84 z" />
<path d="M491.684,361.345 491.133,356.173 491.684,356.327 z" />
<path d="M491.133,362.86 491.133,356.173 491.684,361.345 z" />
<path d="M491.133,362.86 490.324,359.19 491.133,356.173 z" />
<path d="M490.324,365.081 490.324,359.19 491.133,362.86 z" />
<path d="M490.324,365.081 489.964,360.534 490.324,359.19 z" />
<path d="M489.964,364.954 489.964,360.534 490.324,365.081 z" />
<path d="M489.964,364.954 489.602,361.887 489.964,360.534 z" />
<path d="M489.602,364.835 489.602,361.887 489.964,364.954 z" />
<path d="M489.602,364.835 489.236,363.25 489.602,361.887 z" />
<path d="M489.236,364.725 489.236,363.25 489.602,364.835 z" />
<path d="M489.236,364.725 488.869,364.622 489.236,363.25 z" />
</g>
<g stroke-width="0.75" clip-path="url(#clipId0)" fill="none" stroke="rgb(0,0,0)" >
<polyline points="490.324,365.081 493.316,356.862 " />
<polyline points="488.869,364.622 491.133,356.173 " />
</g>
<g stroke-width="0.3" clip-path="url(#clipId0)" fill="rgb(0,0,0)" stroke="none" >
<path d="M488.333,358.881 488.333,355.584 488.898,355.678 z" />
<path d="M488.333,358.881 487.766,355.504 488.333,355.584 z" />
<path d="M487.766,362.095 487.766,355.504 488.333,358.881 z" />
<path d="M487.766,362.095 487.379,355.457 487.766,355.504 z" />
<path d="M487.379,364.292 487.379,355.457 487.766,362.095 z" />
<path d="M487.379,364.292 487.198,355.435 487.379,355.457 z" />
<path d="M487.198,364.262 487.198,355.435 487.379,364.292 z" />
<path d="M487.198,364.262 487.002,355.416 487.198,355.435 z" />
<path d="M487.002,364.229 487.002,355.416 487.198,364.262 z" />
<path d="M487.002,364.229 486.628,355.379 487.002,355.416 z" />
<path d="M486.628,364.176 486.628,355.379 487.002,364.229 z" />
<path d="M486.628,364.176 486.625,355.42 486.628,355.379 z" />
<path d="M486.625,364.175 486.625,355.42 486.628,364.176 z" />
<path d="M486.625,364.175 486.246,359.751 486.625,355.42 z" />
<path d="M486.246,364.13 486.246,359.751 486.625,364.175 z" />
<path d="M486.246,364.13 485.866,364.092 486.246,359.751 z" />
</g>
<g stroke-width="0.75" clip-path="url(#clipId0)" fill="none" stroke="rgb(0,0,0)" >
<polyline points="487.379,364.292 488.898,355.678 " />
<polyline points="485.866,364.092 486.628,355.379 " />
</g>
<g stroke-width="0.3" clip-path="url(#clipId0)" fill="rgb(0,0,0)" stroke="none" >
<path d="M484.341,364.026 483.96,355.283 484.341,355.279 z" />
<path d="M483.96,364.03 483.96,355.283 484.341,364.026 z" />
<path d="M483.96,364.03 483.769,355.285 483.96,355.283 z" />
<path d="M483.769,364.036 483.769,355.285 483.96,364.03 z" />
<path d="M483.769,364.036 483.578,355.292 483.769,355.285 z" />
<path d="M483.578,364.042 483.578,355.292 483.769,364.036 z" />
<path d="M483.578,364.042 483.197,355.304 483.578,355.292 z" />
<path d="M483.197,364.063 483.197,355.304 483.578,364.042 z" />
<path d="M483.197,364.063 483.197,355.304 483.197,355.304 z" />
<path d="M483.197,364.063 483.197,355.304 483.197,364.063 z" />
<path d="M483.197,364.063 482.817,355.325 483.197,355.304 z" />
<path d="M482.817,364.092 482.817,355.325 483.197,364.063 z" />
<path d="M482.817,364.092 482.625,355.335 482.817,355.325 z" />
<path d="M482.625,361.903 482.625,355.335 482.817,364.092 z" />
<path d="M482.625,361.903 482.054,355.379 482.625,355.335 z" />
</g>
<g stroke-width="0.75" clip-path="url(#clipId0)" fill="none" stroke="rgb(0,0,0)" >
<polyline points="484.341,364.026 484.341,355.279 " />
<polyline points="482.817,364.092 482.054,355.379 " />
</g>
<g stroke-width="0.3" clip-path="url(#clipId0)" fill="rgb(0,0,0)" stroke="none" >
<path d="M480.928,364.362 480.928,362.164 481.303,364.292 z" />
<path d="M480.928,364.362 480.555,360.046 480.928,362.164 z" />
<path d="M480.555,364.44 480.555,360.046 480.928,364.362 z" />
<path d="M480.555,364.44 480.183,357.938 480.555,360.046 z" />
<path d="M480.183,364.527 480.183,357.938 480.555,364.44 z" />
<path d="M480.183,364.527 479.814,355.842 480.183,357.938 z" />
<path d="M479.814,364.622 479.814,355.842 480.183,364.527 z" />
<path d="M479.814,364.622 479.785,355.678 479.814,355.842 z" />
<path d="M479.785,364.514 479.785,355.678 479.814,364.622 z" />
<path d="M479.785,364.514 479.222,355.783 479.785,355.678 z" />
<path d="M479.222,362.414 479.222,355.783 479.785,364.514 z" />
<path d="M479.222,362.414 478.662,355.901 479.222,355.783 z" />
<path d="M478.662,360.323 478.662,355.901 479.222,362.414 z" />
<path d="M478.662,360.323 478.104,356.031 478.662,355.901 z" />
<path d="M478.104,358.243 478.104,356.031 478.662,360.323 z" />
<path d="M478.104,358.243 477.55,356.173 478.104,356.031 z" />
</g>
<g stroke-width="0.75" clip-path="url(#clipId0)" fill="none" stroke="rgb(0,0,0)" >
<polyline points="481.303,364.292 479.785,355.678 " />
<polyline points="479.814,364.622 477.55,356.173 " />
</g>
<g stroke-width="0.3" clip-path="url(#clipId0)" fill="rgb(0,0,0)" stroke="none" >
<path d="M478.001,365.215 478.001,364.099 478.358,365.081 z" />
<path d="M478.001,365.215 477.647,363.126 478.001,364.099 z" />
<path d="M477.647,365.357 477.647,363.126 478.001,365.215 z" />
<path d="M477.647,365.357 477.296,362.162 477.647,363.126 z" />
<path d="M477.296,365.507 477.296,362.162 477.647,365.357 z" />
<path d="M477.296,365.507 476.948,361.207 477.296,362.162 z" />
<path d="M476.948,365.665 476.948,361.207 477.296,365.507 z" />
<path d="M476.948,365.665 475.366,356.862 476.948,361.207 z" />
<path d="M475.366,362.273 475.366,356.862 476.948,365.665 z" />
<path d="M475.366,362.273 474.831,357.063 475.366,356.862 z" />
<path d="M474.831,361.124 474.831,357.063 475.366,362.273 z" />
<path d="M474.831,361.124 474.299,357.276 474.831,357.063 z" />
<path d="M474.299,359.985 474.299,357.276 474.831,361.124 z" />
<path d="M474.299,359.985 473.773,357.501 474.299,357.276 z" />
<path d="M473.773,358.856 473.773,357.501 474.299,359.985 z" />
<path d="M473.773,358.856 473.252,357.738 473.773,357.501 z" />
</g>
<g stroke-width="0.75" clip-path="url(#clipId0)" fill="none" stroke="rgb(0,0,0)" >
<polyline points="478.358,365.081 475.366,356.862 " />
<polyline points="476.948,365.665 473.252,357.738 " />
</g>
<g stroke-width="0.3" clip-path="url(#clipId0)" fill="rgb(0,0,0)" stroke="none" >
<path d="M475.266,366.564 475.266,365.801 475.594,366.37 z" />
<path d="M475.266,366.564 474.942,365.239 475.266,365.801 z" />
<path d="M474.942,366.765 474.942,365.239 475.266,366.564 z" />
<path d="M474.942,366.765 474.622,364.686 474.942,365.239 z" />
<path d="M474.622,366.974 474.622,364.686 474.942,366.765 z" />
<path d="M474.622,366.974 474.307,364.14 474.622,364.686 z" />
<path d="M474.307,367.19 474.307,364.14 474.622,366.974 z" />
<path d="M474.307,367.19 471.221,358.795 474.307,364.14 z" />
<path d="M471.221,362.782 471.221,358.795 474.307,367.19 z" />
<path d="M471.221,362.782 470.728,359.086 471.221,358.795 z" />
<path d="M470.728,362.078 470.728,359.086 471.221,362.782 z" />
<path d="M470.728,362.078 470.242,359.389 470.728,359.086 z" />
<path d="M470.242,361.384 470.242,359.389 470.728,362.078 z" />
<path d="M470.242,361.384 469.763,359.701 470.242,359.389 z" />
<path d="M469.763,360.699 469.763,359.701 470.242,361.384 z" />
<path d="M469.763,360.699 469.29,360.025 469.763,359.701 z" />
</g>
<g stroke-width="0.75" clip-path="url(#clipId0)" fill="none" stroke="rgb(0,0,0)" >
<polyline points="475.594,366.37 471.221,358.795 " />
<polyline points="474.307,367.19 469.29,360.025 " />
</g>
<g stroke-width="0.3" clip-path="url(#clipId0)" fill="rgb(0,0,0)" stroke="none" >
<path d="M472.807,368.367 472.807,367.773 473.097,368.119 z" />
<path d="M472.807,368.367 472.523,367.435 472.807,367.773 z" />
<path d="M472.523,368.622 472.523,367.435 472.807,368.367 z" />
<path d="M472.523,368.622 472.244,367.103 472.523,367.435 z" />
<path d="M472.244,368.883 472.244,367.103 472.523,368.622 z" />
<path d="M472.244,368.883 471.971,366.778 472.244,367.103 z" />
<path d="M471.971,369.15 471.971,366.778 472.244,368.883 z" />
<path d="M471.971,369.15 467.474,361.418 471.971,366.778 z" />
<path d="M467.474,364.652 467.474,361.418 471.971,369.15 z" />
<path d="M467.474,364.652 467.04,361.791 467.474,361.418 z" />
<path d="M467.04,364.218 467.04,361.791 467.474,364.652 z" />
<path d="M467.04,364.218 466.613,362.173 467.04,361.791 z" />
<path d="M466.613,363.792 466.613,362.173 467.04,364.218 z" />
<path d="M466.613,363.792 466.196,362.564 466.613,362.173 z" />
<path d="M466.196,363.374 466.196,362.564 466.613,363.792 z" />
<path d="M466.196,363.374 465.786,362.965 466.196,362.564 z" />
</g>
<g stroke-width="0.75" clip-path="url(#clipId0)" fill="none" stroke="rgb(0,0,0)" >
<polyline points="473.097,368.119 467.474,361.418 " />
<polyline points="471.971,369.15 465.786,362.965 " />
</g>
<g stroke-width="0.3" clip-path="url(#clipId0)" fill="rgb(0,0,0)" stroke="none" >
<path d="M470.698,370.57 470.698,370.072 470.94,370.275 z" />
<path d="M470.698,370.57 470.463,369.874 470.698,370.072 z" />
<path d="M470.463,370.87 470.463,369.874 470.698,370.57 z" />
<path d="M470.463,370.87 470.234,369.682 470.463,369.874 z" />
<path d="M470.234,371.175 470.234,369.682 470.463,370.87 z" />
<path d="M470.234,371.175 470.011,369.495 470.234,369.682 z" />
<path d="M470.011,371.486 470.011,369.495 470.234,371.175 z" />
<path d="M470.011,371.486 464.24,364.652 470.011,369.495 z" />
<path d="M464.24,367.444 464.24,364.652 470.011,371.486 z" />
<path d="M464.24,367.444 463.877,365.095 464.24,364.652 z" />
<path d="M463.877,367.19 463.877,365.095 464.24,367.444 z" />
<path d="M463.877,367.19 463.523,365.545 463.877,365.095 z" />
<path d="M463.523,366.943 463.523,365.545 463.877,367.19 z" />
<path d="M463.523,366.943 463.18,366.003 463.523,365.545 z" />
<path d="M463.18,366.702 463.18,366.003 463.523,366.943 z" />
<path d="M463.18,366.702 462.846,366.469 463.18,366.003 z" />
</g>
<g stroke-width="0.75" clip-path="url(#clipId0)" fill="none" stroke="rgb(0,0,0)" >
<polyline points="470.94,370.275 464.24,364.652 " />
<polyline points="470.011,371.486 462.846,366.469 " />
</g>
<g stroke-width="0.3" clip-path="url(#clipId0)" fill="rgb(0,0,0)" stroke="none" >
<path d="M469.004,373.105 469.004,372.665 469.191,372.773 z" />
<path d="M469.004,373.105 468.824,372.561 469.004,372.665 z" />
<path d="M468.824,373.442 468.824,372.561 469.004,373.105 z" />
<path d="M468.824,373.442 468.652,372.461 468.824,372.561 z" />
<path d="M468.652,373.782 468.652,372.461 468.824,373.442 z" />
<path d="M468.652,373.782 468.487,372.366 468.652,372.461 z" />
<path d="M468.487,374.126 468.487,372.366 468.652,373.782 z" />
<path d="M468.487,374.126 461.616,368.399 468.487,372.366 z" />
<path d="M461.616,370.923 461.616,368.399 468.487,374.126 z" />
<path d="M461.616,370.923 461.336,368.898 461.616,368.399 z" />
<path d="M461.336,370.792 461.336,368.898 461.616,370.923 z" />
<path d="M461.336,370.792 461.066,369.403 461.336,368.898 z" />
<path d="M461.066,370.666 461.066,369.403 461.336,370.792 z" />
<path d="M461.066,370.666 460.807,369.914 461.066,369.403 z" />
<path d="M460.807,370.545 460.807,369.914 461.066,370.666 z" />
<path d="M460.807,370.545 460.559,370.43 460.807,369.914 z" />
</g>
<g stroke-width="0.75" clip-path="url(#clipId0)" fill="none" stroke="rgb(0,0,0)" >
<polyline points="469.191,372.773 461.616,368.399 " />
<polyline points="468.487,374.126 460.559,370.43 " />
</g>
<g stroke-width="0.3" clip-path="url(#clipId0)" fill="rgb(0,0,0)" stroke="none" >
<path d="M467.776,375.896 467.776,375.49 467.903,375.536 z" />
<path d="M467.776,375.896 467.657,375.447 467.776,375.49 z" />
<path d="M467.657,376.259 467.657,375.447 467.776,375.896 z" />
<path d="M467.657,376.259 467.546,375.407 467.657,375.447 z" />
<path d="M467.546,376.624 467.546,375.407 467.657,376.259 z" />
<path d="M467.546,376.624 467.444,375.369 467.546,375.407 z" />
<path d="M467.444,376.992 467.444,375.369 467.546,376.624 z" />
<path d="M467.444,376.992 459.683,372.545 467.444,375.369 z" />
<path d="M459.683,374.912 459.683,372.545 467.444,376.992 z" />
<path d="M459.683,374.912 459.493,373.085 459.683,372.545 z" />
<path d="M459.493,374.861 459.493,373.085 459.683,374.912 z" />
<path d="M459.493,374.861 459.315,373.629 459.493,373.085 z" />
<path d="M459.315,374.814 459.315,373.629 459.493,374.861 z" />
<path d="M459.315,374.814 459.149,374.177 459.315,373.629 z" />
<path d="M459.149,374.769 459.149,374.177 459.315,374.814 z" />
<path d="M459.149,374.769 458.995,374.728 459.149,374.177 z" />
</g>
<g stroke-width="0.75" clip-path="url(#clipId0)" fill="none" stroke="rgb(0,0,0)" >
<polyline points="467.903,375.536 459.683,372.545 " />
<polyline points="467.444,376.992 458.995,374.728 " />
</g>
<g stroke-width="0.3" clip-path="url(#clipId0)" fill="rgb(0,0,0)" stroke="none" >
<path d="M467.051,378.858 467.051,378.471 467.113,378.482 z" />
<path d="M467.051,378.858 466.997,378.461 467.051,378.471 z" />
<path d="M466.997,379.236 466.997,378.461 467.051,378.858 z" />
<path d="M466.997,379.236 466.952,378.453 466.997,378.461 z" />
<path d="M466.952,379.615 466.952,378.453 466.997,379.236 z" />
<path d="M466.952,379.615 466.914,378.447 466.952,378.453 z" />
<path d="M466.914,379.995 466.914,378.447 466.952,379.615 z" />
<path d="M466.914,379.995 458.499,376.963 466.914,378.447 z" />
<path d="M458.499,379.259 458.499,376.963 466.914,379.995 z" />
<path d="M458.499,379.259 458.406,377.528 458.499,376.963 z" />
<path d="M458.406,379.25 458.406,377.528 458.499,379.259 z" />
<path d="M458.406,379.25 458.325,378.094 458.406,377.528 z" />
<path d="M458.325,379.243 458.325,378.094 458.406,379.25 z" />
<path d="M458.325,379.243 458.257,378.663 458.325,378.094 z" />
<path d="M458.257,379.237 458.257,378.663 458.325,379.243 z" />
<path d="M458.257,379.237 458.201,379.232 458.257,378.663 z" />
</g>
<g stroke-width="0.75" clip-path="url(#clipId0)" fill="none" stroke="rgb(0,0,0)" >
<polyline points="467.113,378.482 458.499,376.963 " />
<polyline points="466.914,379.995 458.201,379.232 " />
</g>
<g stroke-width="0.3" clip-path="url(#clipId0)" fill="rgb(0,0,0)" stroke="none" >
<path d="M466.885,383.047 466.885,382.664 466.914,383.044 z" />
<path d="M466.885,383.047 466.864,382.282 466.885,382.664 z" />
<path d="M466.864,383.048 466.864,382.282 466.885,383.047 z" />
<path d="M466.864,383.048 466.852,381.901 466.864,382.282 z" />
<path d="M466.852,383.05 466.852,381.901 466.864,383.048 z" />
<path d="M466.852,383.05 466.848,381.519 466.852,381.901 z" />
<path d="M466.848,383.05 466.848,381.519 466.852,383.05 z" />
<path d="M466.848,383.05 458.201,381.519 466.848,381.519 z" />
<path d="M458.201,383.806 458.201,381.519 466.848,383.05 z" />
<path d="M458.201,383.806 458.157,381.519 458.201,381.519 z" />
<path d="M458.157,383.236 458.157,381.519 458.201,383.806 z" />
<path d="M458.157,383.236 458.126,381.519 458.157,381.519 z" />
<path d="M458.126,382.664 458.126,381.519 458.157,383.236 z" />
<path d="M458.126,382.664 458.107,381.519 458.126,381.519 z" />
<path d="M458.107,382.092 458.107,381.519 458.126,382.664 z" />
<path d="M458.107,382.092 458.101,381.519 458.107,381.519 z" />
</g>
<g stroke-width="0.75" clip-path="url(#clipId0)" fill="none" stroke="rgb(0,0,0)" >
<polyline points="466.848,381.519 458.101,381.519 " />
<polyline points="466.914,383.044 458.201,383.806 " />
</g>
<g stroke-width="0.3" clip-path="url(#clipId0)" fill="rgb(0,0,0)" stroke="none" >
<path d="M467.349,386.072 467.349,385.677 467.444,386.047 z" />
<path d="M467.349,386.072 467.262,385.306 467.349,385.677 z" />
<path d="M467.262,386.096 467.262,385.306 467.349,386.072 z" />
<path d="M467.262,386.096 467.184,384.932 467.262,385.306 z" />
<path d="M467.184,386.117 467.184,384.932 467.262,386.096 z" />
<path d="M467.184,386.117 467.113,384.557 467.184,384.932 z" />
<path d="M467.113,386.136 467.113,384.557 467.184,386.117 z" />
<path d="M467.113,386.136 458.995,385.989 467.113,384.557 z" />
<path d="M458.995,388.311 458.995,385.989 467.113,386.136 z" />
<path d="M458.995,388.311 458.853,386.014 458.995,385.989 z" />
<path d="M458.853,387.756 458.853,386.014 458.995,388.311 z" />
<path d="M458.853,387.756 458.723,386.037 458.853,386.014 z" />
<path d="M458.723,387.199 458.723,386.037 458.853,387.756 z" />
<path d="M458.723,387.199 458.605,386.057 458.723,386.037 z" />
<path d="M458.605,386.639 458.605,386.057 458.723,387.199 z" />
<path d="M458.605,386.639 458.499,386.076 458.605,386.057 z" />
</g>
<g stroke-width="0.75" clip-path="url(#clipId0)" fill="none" stroke="rgb(0,0,0)" >
<polyline points="467.113,384.557 458.499,386.076 " />
<polyline points="467.444,386.047 458.995,388.311 " />
</g>
<g stroke-width="0.3" clip-path="url(#clipId0)" fill="rgb(0,0,0)" stroke="none" >
<path d="M468.329,388.986 468.329,388.565 468.487,388.913 z" />
<path d="M468.329,388.986 468.179,388.214 468.329,388.565 z" />
<path d="M468.179,389.056 468.179,388.214 468.329,388.986 z" />
<path d="M468.179,389.056 468.037,387.86 468.179,388.214 z" />
<path d="M468.037,389.122 468.037,387.86 468.179,389.056 z" />
<path d="M468.037,389.122 467.903,387.503 468.037,387.86 z" />
<path d="M467.903,389.185 467.903,387.503 468.037,389.122 z" />
<path d="M467.903,389.185 460.559,390.175 467.903,387.503 z" />
<path d="M460.559,392.609 460.559,390.175 467.903,389.185 z" />
<path d="M460.559,392.609 460.323,390.261 460.559,390.175 z" />
<path d="M460.323,392.088 460.323,390.261 460.559,392.609 z" />
<path d="M460.323,392.088 460.098,390.343 460.323,390.261 z" />
<path d="M460.098,391.561 460.098,390.343 460.323,392.088 z" />
<path d="M460.098,391.561 459.885,390.421 460.098,390.343 z" />
<path d="M459.885,391.03 459.885,390.421 460.098,391.561 z" />
<path d="M459.885,391.03 459.683,390.494 459.885,390.421 z" />
</g>
<g stroke-width="0.75" clip-path="url(#clipId0)" fill="none" stroke="rgb(0,0,0)" >
<polyline points="467.903,387.503 459.683,390.494 " />
<polyline points="468.487,388.913 460.559,392.609 " />
</g>
<g stroke-width="0.3" clip-path="url(#clipId0)" fill="rgb(0,0,0)" stroke="none" >
<path d="M469.796,391.704 469.796,391.238 470.011,391.553 z" />
<path d="M469.796,391.704 469.587,390.919 469.796,391.238 z" />
<path d="M469.587,391.85 469.587,390.919 469.796,391.704 z" />
<path d="M469.587,391.85 469.386,390.595 469.587,390.919 z" />
<path d="M469.386,391.991 469.386,390.595 469.587,391.85 z" />
<path d="M469.386,391.991 469.191,390.266 469.386,390.595 z" />
<path d="M469.191,392.127 469.191,390.266 469.386,391.991 z" />
<path d="M469.191,392.127 462.846,393.929 469.191,390.266 z" />
<path d="M462.846,396.57 462.846,393.929 469.191,392.127 z" />
<path d="M462.846,396.57 462.523,394.116 462.846,393.929 z" />
<path d="M462.523,396.098 462.523,394.116 462.846,396.57 z" />
<path d="M462.523,396.098 462.21,394.297 462.523,394.116 z" />
<path d="M462.21,395.618 462.21,394.297 462.523,396.098 z" />
<path d="M462.21,395.618 461.908,394.471 462.21,394.297 z" />
<path d="M461.908,395.132 461.908,394.471 462.21,395.618 z" />
<path d="M461.908,395.132 461.616,394.64 461.908,394.471 z" />
</g>
<g stroke-width="0.75" clip-path="url(#clipId0)" fill="none" stroke="rgb(0,0,0)" >
<polyline points="469.191,390.266 461.616,394.64 " />
<polyline points="470.011,391.553 462.846,396.57 " />
</g>
<g stroke-width="0.3" clip-path="url(#clipId0)" fill="rgb(0,0,0)" stroke="none" >
<path d="M471.704,394.156 471.704,393.616 471.971,393.889 z" />
<path d="M471.704,394.156 471.444,393.338 471.704,393.616 z" />
<path d="M471.444,394.417 471.444,393.338 471.704,394.156 z" />
<path d="M471.444,394.417 471.189,393.054 471.444,393.338 z" />
<path d="M471.189,394.672 471.189,393.054 471.444,394.417 z" />
<path d="M471.189,394.672 470.94,392.764 471.189,393.054 z" />
<path d="M470.94,394.92 470.94,392.764 471.189,394.672 z" />
<path d="M470.94,394.92 465.786,397.089 470.94,392.764 z" />
<path d="M465.786,400.074 465.786,397.089 470.94,394.92 z" />
<path d="M465.786,400.074 465.386,397.425 465.786,397.089 z" />
<path d="M465.386,399.665 465.386,397.425 465.786,400.074 z" />
<path d="M465.386,399.665 464.995,397.753 465.386,397.425 z" />
<path d="M464.995,399.247 464.995,397.753 465.386,399.665 z" />
<path d="M464.995,399.247 464.613,398.074 464.995,397.753 z" />
<path d="M464.613,398.821 464.613,398.074 464.995,399.247 z" />
<path d="M464.613,398.821 464.24,398.386 464.613,398.074 z" />
</g>
<g stroke-width="0.75" clip-path="url(#clipId0)" fill="none" stroke="rgb(0,0,0)" >
<polyline points="470.94,392.764 464.24,398.386 " />
<polyline points="471.971,393.889 465.786,400.074 " />
</g>
<g stroke-width="0.3" clip-path="url(#clipId0)" fill="rgb(0,0,0)" stroke="none" >
<path d="M473.997,396.292 473.997,395.627 474.307,395.849 z" />
<path d="M473.997,396.292 473.692,395.398 473.997,395.627 z" />
<path d="M473.692,396.728 473.692,395.398 473.997,396.292 z" />
<path d="M473.692,396.728 473.392,395.162 473.692,395.398 z" />
<path d="M473.392,397.157 473.392,395.162 473.692,396.728 z" />
<path d="M473.392,397.157 473.097,394.92 473.392,395.162 z" />
<path d="M473.097,397.578 473.097,394.92 473.392,397.157 z" />
<path d="M473.097,397.578 469.29,399.456 473.097,394.92 z" />
<path d="M469.29,403.014 469.29,399.456 473.097,397.578 z" />
<path d="M469.29,403.014 468.825,400.011 469.29,399.456 z" />
<path d="M468.825,402.681 468.825,400.011 469.29,403.014 z" />
<path d="M468.825,402.681 468.367,400.557 468.825,400.011 z" />
<path d="M468.367,402.337 468.367,400.557 468.825,402.681 z" />
<path d="M468.367,402.337 467.917,401.093 468.367,400.557 z" />
<path d="M467.917,401.984 467.917,401.093 468.367,402.337 z" />
<path d="M467.917,401.984 467.474,401.621 467.917,401.093 z" />
</g>
<g stroke-width="0.75" clip-path="url(#clipId0)" fill="none" stroke="rgb(0,0,0)" >
<polyline points="473.097,394.92 467.474,401.621 " />
<polyline points="474.307,395.849 469.29,403.014 " />
</g>
<g stroke-width="0.3" clip-path="url(#clipId0)" fill="rgb(0,0,0)" stroke="none" >
<path d="M476.604,398.112 476.604,397.209 476.948,397.374 z" />
<path d="M476.604,398.112 476.264,397.036 476.604,397.209 z" />
<path d="M476.264,398.842 476.264,397.036 476.604,398.112 z" />
<path d="M476.264,398.842 475.927,396.857 476.264,397.036 z" />
<path d="M475.927,399.564 475.927,396.857 476.264,398.842 z" />
<path d="M475.927,399.564 475.594,396.669 475.927,396.857 z" />
<path d="M475.594,400.277 475.594,396.669 475.927,399.564 z" />
<path d="M475.594,400.277 473.252,400.727 475.594,396.669 z" />
<path d="M473.252,405.301 473.252,400.727 475.594,400.277 z" />
<path d="M473.252,405.301 472.735,401.621 473.252,400.727 z" />
<path d="M472.735,405.054 472.735,401.621 473.252,405.301 z" />
<path d="M472.735,405.054 472.225,402.506 472.735,401.621 z" />
<path d="M472.225,404.795 472.225,402.506 472.735,405.054 z" />
<path d="M472.225,404.795 471.72,403.38 472.225,402.506 z" />
<path d="M471.72,404.525 471.72,403.38 472.225,404.795 z" />
<path d="M471.72,404.525 471.221,404.244 471.72,403.38 z" />
</g>
<g stroke-width="0.75" clip-path="url(#clipId0)" fill="none" stroke="rgb(0,0,0)" >
<polyline points="475.594,396.669 471.221,404.244 " />
<polyline points="476.948,397.374 473.252,405.301 " />
</g>
<g stroke-width="0.3" clip-path="url(#clipId0)" fill="rgb(0,0,0)" stroke="none" >
<path d="M479.446,399.789 479.446,398.314 479.814,398.417 z" />
<path d="M479.446,399.789 479.081,398.203 479.446,398.314 z" />
<path d="M479.081,401.152 479.081,398.203 479.446,399.789 z" />
<path d="M479.081,401.152 478.718,398.085 479.081,398.203 z" />
<path d="M478.718,402.505 478.718,398.085 479.081,401.152 z" />
<path d="M478.718,402.505 478.358,397.958 478.718,398.085 z" />
<path d="M478.358,403.849 478.358,397.958 478.718,402.505 z" />
<path d="M478.358,403.849 477.55,400.179 478.358,397.958 z" />
<path d="M477.55,406.866 477.55,400.179 478.358,403.849 z" />
<path d="M477.55,406.866 476.998,401.694 477.55,400.179 z" />
<path d="M476.998,406.711 476.998,401.694 477.55,406.866 z" />
<path d="M476.998,406.711 476.451,403.199 476.998,401.694 z" />
<path d="M476.451,406.545 476.451,403.199 476.998,406.711 z" />
<path d="M476.451,406.545 475.906,404.694 476.451,403.199 z" />
<path d="M475.906,406.367 475.906,404.694 476.451,406.545 z" />
<path d="M475.906,406.367 475.366,406.177 475.906,404.694 z" />
</g>
<g stroke-width="0.75" clip-path="url(#clipId0)" fill="none" stroke="rgb(0,0,0)" >
<polyline points="478.358,397.958 475.366,406.177 " />
<polyline points="479.814,398.417 477.55,406.866 " />
</g>
<g stroke-width="0.3" clip-path="url(#clipId0)" fill="rgb(0,0,0)" stroke="none" >
<path d="M482.437,403.288 482.437,398.909 482.817,398.946 z" />
<path d="M482.437,403.288 482.058,398.863 482.437,398.909 z" />
<path d="M482.058,407.618 482.058,398.863 482.437,403.288 z" />
<path d="M482.058,407.618 482.054,398.863 482.058,398.863 z" />
<path d="M482.054,407.66 482.054,398.863 482.058,407.618 z" />
<path d="M482.054,407.66 481.68,398.809 482.054,398.863 z" />
<path d="M481.68,407.623 481.68,398.809 482.054,407.66 z" />
<path d="M481.68,407.623 481.484,398.777 481.68,398.809 z" />
<path d="M481.484,407.604 481.484,398.777 481.68,407.623 z" />
<path d="M481.484,407.604 481.303,398.747 481.484,398.777 z" />
<path d="M481.303,407.582 481.303,398.747 481.484,407.604 z" />
<path d="M481.303,407.582 480.916,400.944 481.303,398.747 z" />
<path d="M480.916,407.535 480.916,400.944 481.303,407.582 z" />
<path d="M480.916,407.535 480.349,404.158 480.916,400.944 z" />
<path d="M480.349,407.454 480.349,404.158 480.916,407.535 z" />
<path d="M480.349,407.454 479.785,407.361 480.349,404.158 z" />
</g>
<g stroke-width="0.75" clip-path="url(#clipId0)" fill="none" stroke="rgb(0,0,0)" >
<polyline points="481.303,398.747 479.785,407.361 " />
<polyline points="482.817,398.946 482.054,407.66 " />
</g>
<g stroke-width="0.3" clip-path="url(#clipId0)" fill="rgb(0,0,0)" stroke="none" >
<path d="M486.057,407.704 486.057,401.136 486.628,407.66 z" />
<path d="M486.057,407.704 485.866,398.946 486.057,401.136 z" />
<path d="M485.866,407.714 485.866,398.946 486.057,407.704 z" />
<path d="M485.866,407.714 485.486,398.976 485.866,398.946 z" />
<path d="M485.486,407.735 485.486,398.976 485.866,407.714 z" />
<path d="M485.486,407.735 485.485,398.976 485.486,398.976 z" />
<path d="M485.485,407.735 485.485,398.976 485.486,407.735 z" />
<path d="M485.485,407.735 485.104,398.996 485.485,398.976 z" />
<path d="M485.104,407.747 485.104,398.996 485.485,407.735 z" />
<path d="M485.104,407.747 484.914,399.003 485.104,398.996 z" />
<path d="M484.914,407.754 484.914,399.003 485.104,407.747 z" />
<path d="M484.914,407.754 484.723,399.009 484.914,399.003 z" />
<path d="M484.723,407.756 484.723,399.009 484.914,407.754 z" />
<path d="M484.723,407.756 484.341,399.013 484.723,399.009 z" />
<path d="M484.341,407.76 484.341,399.013 484.723,407.756 z" />
</g>
<g stroke-width="0.75" clip-path="url(#clipId0)" fill="none" stroke="rgb(0,0,0)" >
<polyline points="484.341,399.013 484.341,407.76 " />
<polyline points="485.866,398.946 486.628,407.66 " />
</g>
<g stroke-width="0.3" clip-path="url(#clipId0)" fill="rgb(0,0,0)" stroke="none" >
<path d="M490.578,407.008 490.578,404.796 491.133,406.866 z" />
<path d="M490.578,407.008 490.021,402.715 490.578,404.796 z" />
<path d="M490.021,407.138 490.021,402.715 490.578,407.008 z" />
<path d="M490.021,407.138 489.46,400.625 490.021,402.715 z" />
<path d="M489.46,407.256 489.46,400.625 490.021,407.138 z" />
<path d="M489.46,407.256 488.898,398.525 489.46,400.625 z" />
<path d="M488.898,407.361 488.898,398.525 489.46,407.256 z" />
<path d="M488.898,407.361 488.869,398.417 488.898,398.525 z" />
<path d="M488.869,407.197 488.869,398.417 488.898,407.361 z" />
<path d="M488.869,407.197 488.499,398.512 488.869,398.417 z" />
<path d="M488.499,405.1 488.499,398.512 488.869,407.197 z" />
<path d="M488.499,405.1 488.127,398.598 488.499,398.512 z" />
<path d="M488.127,402.993 488.127,398.598 488.499,405.1 z" />
<path d="M488.127,402.993 487.754,398.677 488.127,398.598 z" />
<path d="M487.754,400.875 487.754,398.677 488.127,402.993 z" />
<path d="M487.754,400.875 487.379,398.747 487.754,398.677 z" />
</g>
<g stroke-width="0.75" clip-path="url(#clipId0)" fill="none" stroke="rgb(0,0,0)" >
<polyline points="487.379,398.747 488.898,407.361 " />
<polyline points="488.869,398.417 491.133,406.866 " />
</g>
<g stroke-width="0.3" clip-path="url(#clipId0)" fill="rgb(0,0,0)" stroke="none" >
<path d="M494.909,405.538 494.909,404.183 495.431,405.301 z" />
<path d="M494.909,405.538 494.383,403.054 494.909,404.183 z" />
<path d="M494.383,405.762 494.383,403.054 494.909,405.538 z" />
<path d="M494.383,405.762 493.852,401.915 494.383,403.054 z" />
<path d="M493.852,405.976 493.852,401.915 494.383,405.762 z" />
<path d="M493.852,405.976 493.316,400.766 493.852,401.915 z" />
<path d="M493.316,406.177 493.316,400.766 493.852,405.976 z" />
<path d="M493.316,406.177 491.734,397.374 493.316,400.766 z" />
<path d="M491.734,401.832 491.734,397.374 493.316,406.177 z" />
<path d="M491.734,401.832 491.387,397.531 491.734,397.374 z" />
<path d="M491.387,400.877 491.387,397.531 491.734,401.832 z" />
<path d="M491.387,400.877 491.036,397.681 491.387,397.531 z" />
<path d="M491.036,399.912 491.036,397.681 491.387,400.877 z" />
<path d="M491.036,399.912 490.682,397.824 491.036,397.681 z" />
<path d="M490.682,398.939 490.682,397.824 491.036,399.912 z" />
<path d="M490.682,398.939 490.324,397.958 490.682,397.824 z" />
</g>
<g stroke-width="0.75" clip-path="url(#clipId0)" fill="none" stroke="rgb(0,0,0)" >
<polyline points="490.324,397.958 493.316,406.177 " />
<polyline points="491.734,397.374 495.431,405.301 " />
</g>
<g stroke-width="0.3" clip-path="url(#clipId0)" fill="rgb(0,0,0)" stroke="none" >
<path d="M498.92,403.337 498.92,402.339 499.392,403.014 z" />
<path d="M498.92,403.337 498.44,401.655 498.92,402.339 z" />
<path d="M498.44,403.65 498.44,401.655 498.92,403.337 z" />
<path d="M498.44,403.65 497.954,400.961 498.44,401.655 z" />
<path d="M497.954,403.953 497.954,400.961 498.44,403.65 z" />
<path d="M497.954,403.953 497.461,400.257 497.954,400.961 z" />
<path d="M497.461,404.244 497.461,400.257 497.954,403.953 z" />
<path d="M497.461,404.244 494.375,395.849 497.461,400.257 z" />
<path d="M494.375,398.899 494.375,395.849 497.461,404.244 z" />
<path d="M494.375,398.899 494.06,396.065 494.375,395.849 z" />
<path d="M494.06,398.353 494.06,396.065 494.375,398.899 z" />
<path d="M494.06,398.353 493.74,396.273 494.06,396.065 z" />
<path d="M493.74,397.799 493.74,396.273 494.06,398.353 z" />
<path d="M493.74,397.799 493.416,396.475 493.74,396.273 z" />
<path d="M493.416,397.238 493.416,396.475 493.74,397.799 z" />
<path d="M493.416,397.238 493.088,396.669 493.416,396.475 z" />
</g>
<g stroke-width="0.75" clip-path="url(#clipId0)" fill="none" stroke="rgb(0,0,0)" >
<polyline points="493.088,396.669 497.461,404.244 " />
<polyline points="494.375,395.849 499.392,403.014 " />
</g>
<g stroke-width="0.3" clip-path="url(#clipId0)" fill="rgb(0,0,0)" stroke="none" >
<path d="M502.487,400.475 502.487,399.665 502.896,400.074 z" />
<path d="M502.487,400.475 502.069,399.247 502.487,399.665 z" />
<path d="M502.069,400.866 502.069,399.247 502.487,400.475 z" />
<path d="M502.069,400.866 501.643,398.821 502.069,399.247 z" />
<path d="M501.643,401.248 501.643,398.821 502.069,400.866 z" />
<path d="M501.643,401.248 501.208,398.386 501.643,398.821 z" />
<path d="M501.208,401.621 501.208,398.386 501.643,401.248 z" />
<path d="M501.208,401.621 496.711,393.889 501.208,398.386 z" />
<path d="M496.711,396.261 496.711,393.889 501.208,401.621 z" />
<path d="M496.711,396.261 496.438,394.156 496.711,393.889 z" />
<path d="M496.438,395.936 496.438,394.156 496.711,396.261 z" />
<path d="M496.438,395.936 496.16,394.417 496.438,394.156 z" />
<path d="M496.16,395.604 496.16,394.417 496.438,395.936 z" />
<path d="M496.16,395.604 495.876,394.672 496.16,394.417 z" />
<path d="M495.876,395.265 495.876,394.672 496.16,395.604 z" />
<path d="M495.876,395.265 495.586,394.92 495.876,394.672 z" />
</g>
<g stroke-width="0.75" clip-path="url(#clipId0)" fill="none" stroke="rgb(0,0,0)" >
<polyline points="495.586,394.92 501.208,401.621 " />
<polyline points="496.711,393.889 502.896,400.074 " />
</g>
<g stroke-width="0.3" clip-path="url(#clipId0)" fill="rgb(0,0,0)" stroke="none" >
<path d="M505.503,397.036 505.503,396.337 505.836,396.57 z" />
<path d="M505.503,397.036 505.159,396.096 505.503,396.337 z" />
<path d="M505.159,397.494 505.159,396.096 505.503,397.036 z" />
<path d="M505.159,397.494 504.806,395.849 505.159,396.096 z" />
<path d="M504.806,397.944 504.806,395.849 505.159,397.494 z" />
<path d="M504.806,397.944 504.442,395.594 504.806,395.849 z" />
<path d="M504.442,398.386 504.442,395.594 504.806,397.944 z" />
<path d="M504.442,398.386 498.671,391.553 504.442,395.594 z" />
<path d="M498.671,393.544 498.671,391.553 504.442,398.386 z" />
<path d="M498.671,393.544 498.449,391.864 498.671,391.553 z" />
<path d="M498.449,393.357 498.449,391.864 498.671,393.544 z" />
<path d="M498.449,393.357 498.22,392.169 498.449,391.864 z" />
<path d="M498.22,393.165 498.22,392.169 498.449,393.357 z" />
<path d="M498.22,393.165 497.984,392.469 498.22,392.169 z" />
<path d="M497.984,392.967 497.984,392.469 498.22,393.165 z" />
<path d="M497.984,392.967 497.742,392.764 497.984,392.469 z" />
</g>
<g stroke-width="0.75" clip-path="url(#clipId0)" fill="none" stroke="rgb(0,0,0)" >
<polyline points="497.742,392.764 504.442,398.386 " />
<polyline points="498.671,391.553 505.836,396.57 " />
</g>
<g stroke-width="0.3" clip-path="url(#clipId0)" fill="rgb(0,0,0)" stroke="none" >
<path d="M507.875,393.125 507.875,392.494 508.123,392.609 z" />
<path d="M507.875,393.125 507.617,392.373 507.875,392.494 z" />
<path d="M507.617,393.636 507.617,392.373 507.875,393.125 z" />
<path d="M507.617,393.636 507.347,392.247 507.617,392.373 z" />
<path d="M507.347,394.141 507.347,392.247 507.617,393.636 z" />
<path d="M507.347,394.141 507.066,392.116 507.347,392.247 z" />
<path d="M507.066,394.64 507.066,392.116 507.347,394.141 z" />
<path d="M507.066,394.64 500.196,388.913 507.066,392.116 z" />
<path d="M500.196,390.673 500.196,388.913 507.066,394.64 z" />
<path d="M500.196,390.673 500.031,389.257 500.196,388.913 z" />
<path d="M500.031,390.578 500.031,389.257 500.196,390.673 z" />
<path d="M500.031,390.578 499.858,389.597 500.031,389.257 z" />
<path d="M499.858,390.478 499.858,389.597 500.031,390.578 z" />
<path d="M499.858,390.478 499.678,389.934 499.858,389.597 z" />
<path d="M499.678,390.374 499.678,389.934 499.858,390.478 z" />
<path d="M499.678,390.374 499.491,390.266 499.678,389.934 z" />
</g>
<g stroke-width="0.75" clip-path="url(#clipId0)" fill="none" stroke="rgb(0,0,0)" >
<polyline points="499.491,390.266 507.066,394.64 " />
<polyline points="500.196,388.913 508.123,392.609 " />
</g>
<g stroke-width="0.3" clip-path="url(#clipId0)" fill="rgb(0,0,0)" stroke="none" >
<path d="M509.533,388.862 509.533,388.27 509.687,388.311 z" />
<path d="M509.533,388.862 509.367,388.225 509.533,388.27 z" />
<path d="M509.367,389.41 509.367,388.225 509.533,388.862 z" />
<path d="M509.367,389.41 509.189,388.177 509.367,388.225 z" />
<path d="M509.189,389.954 509.189,388.177 509.367,389.41 z" />
<path d="M509.189,389.954 508.999,388.126 509.189,388.177 z" />
<path d="M508.999,390.494 508.999,388.126 509.189,389.954 z" />
<path d="M508.999,390.494 501.239,386.047 508.999,388.126 z" />
<path d="M501.239,387.67 501.239,386.047 508.999,390.494 z" />
<path d="M501.239,387.67 501.136,386.415 501.239,386.047 z" />
<path d="M501.136,387.632 501.136,386.415 501.239,387.67 z" />
<path d="M501.136,387.632 501.025,386.78 501.136,386.415 z" />
<path d="M501.025,387.592 501.025,386.78 501.136,387.632 z" />
<path d="M501.025,387.592 500.906,387.143 501.025,386.78 z" />
<path d="M500.906,387.549 500.906,387.143 501.025,387.592 z" />
<path d="M500.906,387.549 500.78,387.503 500.906,387.143 z" />
</g>
<g stroke-width="0.75" clip-path="url(#clipId0)" fill="none" stroke="rgb(0,0,0)" >
<polyline points="500.78,387.503 508.999,390.494 " />
<polyline points="501.239,386.047 509.687,388.311 " />
</g>
<g stroke-width="0.3" clip-path="url(#clipId0)" fill="rgb(0,0,0)" stroke="none" >
<path d="M510.426,384.376 510.426,383.802 510.482,383.806 z" />
<path d="M510.426,384.376 510.357,383.796 510.426,383.802 z" />
<path d="M510.357,384.944 510.357,383.796 510.426,384.376 z" />
<path d="M510.357,384.944 510.276,383.788 510.357,383.796 z" />
<path d="M510.276,385.511 510.276,383.788 510.357,384.944 z" />
<path d="M510.276,385.511 510.183,383.78 510.276,383.788 z" />
<path d="M510.183,386.076 510.183,383.78 510.276,385.511 z" />
<path d="M510.183,386.076 501.768,383.044 510.183,383.78 z" />
<path d="M501.768,384.592 501.768,383.044 510.183,386.076 z" />
<path d="M501.768,384.592 501.731,383.424 501.768,383.044 z" />
<path d="M501.731,384.586 501.731,383.424 501.768,384.592 z" />
<path d="M501.731,384.586 501.685,383.803 501.731,383.424 z" />
<path d="M501.685,384.578 501.685,383.803 501.731,384.586 z" />
<path d="M501.685,384.578 501.631,384.181 501.685,383.803 z" />
<path d="M501.631,384.568 501.631,384.181 501.685,384.578 z" />
<path d="M501.631,384.568 501.569,384.557 501.631,384.181 z" />
</g>
<g stroke-width="0.75" clip-path="url(#clipId0)" fill="none" stroke="rgb(0,0,0)" >
<polyline points="501.569,384.557 510.183,386.076 " />
<polyline points="501.768,383.044 510.482,383.806 " />
</g>
</svg>
