<?xml version="1.0" standalone="no"?>
<svg viewBox="0 0 1024 768" version="1.1" xmlns="http://www.w3.org/2000/svg" stroke-linecap="round" stroke-linejoin="round" fill-rule="evenodd" xml:space="preserve" >
<defs >
<clipPath id="clipId0" >
<path d="M0,768 1024,768 1024,0 0,0 z" />
</clipPath>
</defs>
<g stroke-width="0.75" clip-path="url(#clipId0)" fill="none" stroke="rgb(0,0,0)" >
<ellipse rx="20.1176" ry="20.1176" cx="527.352" cy="383.722" />
<ellipse rx="2.62404" ry="2.62404" cx="527.352" cy="383.722" />
<polyline points="538.679,382.731 547.393,381.968 " />
<polyline points="538.723,383.722 547.469,383.722 " />
<path d="M538.679,382.731  A11.3708,11.3708 -5 0,0 538.55,381.747 " />
<polyline points="538.335,380.779 546.784,378.515 " />
<polyline points="538.55,381.747 547.164,380.228 " />
<polyline points="537.657,378.916 545.584,375.22 " />
<polyline points="538.037,379.833 546.256,376.841 " />
<polyline points="536.666,377.2 543.831,372.183 " />
<polyline points="537.199,378.036 544.774,373.663 " />
<polyline points="535.392,375.681 541.577,369.496 " />
<polyline points="536.062,376.413 542.763,370.79 " />
<polyline points="533.874,374.407 538.891,367.242 " />
<polyline points="534.661,375.011 540.283,368.311 " />
<polyline points="532.157,373.416 535.854,365.489 " />
<polyline points="533.037,373.874 537.411,366.299 " />
<polyline points="530.295,372.738 532.559,364.29 " />
<polyline points="531.241,373.037 534.232,364.817 " />
<polyline points="528.343,372.394 529.105,363.681 " />
<polyline points="529.326,372.524 530.845,363.91 " />
<polyline points="526.361,372.394 525.598,363.681 " />
<polyline points="527.352,372.351 527.352,363.604 " />
<polyline points="524.409,372.738 522.145,364.29 " />
<polyline points="525.377,372.524 523.858,363.91 " />
<polyline points="522.546,373.416 518.85,365.489 " />
<polyline points="523.463,373.037 520.471,364.817 " />
<polyline points="520.83,374.407 515.813,367.242 " />
<polyline points="521.666,373.874 517.293,366.299 " />
<polyline points="519.311,375.681 513.126,369.496 " />
<polyline points="520.043,375.011 514.42,368.311 " />
<polyline points="518.037,377.2 510.872,372.183 " />
<polyline points="518.641,376.413 511.941,370.79 " />
<polyline points="517.046,378.916 509.119,375.22 " />
<polyline points="517.504,378.036 509.929,373.663 " />
<polyline points="516.368,380.779 507.92,378.515 " />
<polyline points="516.667,379.833 508.447,376.841 " />
<polyline points="516.024,382.731 507.311,381.968 " />
<polyline points="516.154,381.747 507.54,380.228 " />
<polyline points="516.024,384.713 507.311,385.475 " />
<polyline points="515.981,383.722 507.234,383.722 " />
<polyline points="516.368,386.665 507.92,388.929 " />
<polyline points="516.154,385.696 507.54,387.215 " />
<polyline points="517.046,388.527 509.119,392.224 " />
<polyline points="516.667,387.611 508.447,390.602 " />
<polyline points="518.037,390.244 510.872,395.261 " />
<polyline points="517.504,389.407 509.929,393.781 " />
<polyline points="519.311,391.762 513.126,397.947 " />
<polyline points="518.641,391.031 511.941,396.653 " />
<polyline points="520.83,393.036 515.813,400.201 " />
<polyline points="520.043,392.432 514.42,399.133 " />
<polyline points="522.546,394.027 518.85,401.955 " />
<polyline points="521.666,393.569 517.293,401.144 " />
<polyline points="524.409,394.705 522.145,403.154 " />
<polyline points="523.463,394.407 520.471,402.626 " />
<polyline points="526.361,395.049 525.598,403.763 " />
<polyline points="525.377,394.92 523.858,403.534 " />
<polyline points="528.343,395.049 529.105,403.763 " />
<polyline points="527.352,395.093 527.352,403.839 " />
<polyline points="530.295,394.705 532.559,403.154 " />
<polyline points="529.326,394.92 530.845,403.534 " />
<polyline points="532.157,394.027 535.854,401.955 " />
<polyline points="531.241,394.407 534.232,402.626 " />
<polyline points="533.874,393.036 538.891,400.201 " />
<polyline points="533.037,393.569 537.411,401.144 " />
<polyline points="535.392,391.762 541.577,397.947 " />
<polyline points="534.661,392.432 540.283,399.133 " />
<polyline points="536.666,390.244 543.831,395.261 " />
<polyline points="536.062,391.031 542.763,396.653 " />
<polyline points="537.657,388.527 545.584,392.224 " />
<polyline points="537.199,389.407 544.774,393.781 " />
<polyline points="538.335,386.665 546.784,388.929 " />
<polyline points="538.037,387.611 546.256,390.602 " />
<polyline points="538.679,384.713 547.393,385.475 " />
<polyline points="538.55,385.696 547.164,387.215 " />
<path d="M538.335,380.779  A11.3708,11.3708 -15 0,0 538.037,379.833 " />
<path d="M537.657,378.916  A11.3708,11.3708 -25 0,0 537.199,378.036 " />
<path d="M536.666,377.2  A11.3708,11.3708 -35 0,0 536.062,376.413 " />
<path d="M535.392,375.681  A11.3708,11.3708 -45 0,0 534.661,375.011 " />
<path d="M533.874,374.407  A11.3708,11.3708 -55 0,0 533.037,373.874 " />
<path d="M532.157,373.416  A11.3708,11.3708 -65 0,0 531.241,373.037 " />
<path d="M530.295,372.738  A11.3708,11.3708 -75 0,0 529.326,372.524 " />
<path d="M528.343,372.394  A11.3708,11.3708 -85 0,0 527.352,372.351 " />
<path d="M526.361,372.394  A11.3708,11.3708 85 0,0 525.377,372.524 " />
<path d="M524.409,372.738  A11.3708,11.3708 75 0,0 523.463,373.037 " />
<path d="M522.546,373.416  A11.3708,11.3708 65 0,0 521.666,373.874 " />
<path d="M520.83,374.407  A11.3708,11.3708 55 0,0 520.043,375.011 " />
<path d="M519.311,375.681  A11.3708,11.3708 45 0,0 518.641,376.413 " />
<path d="M518.037,377.2  A11.3708,11.3708 35 0,0 517.504,378.036 " />
<path d="M517.046,378.916  A11.3708,11.3708 25 0,0 516.667,379.833 " />
<path d="M516.368,380.779  A11.3708,11.3708 15 0,0 516.154,381.747 " />
<path d="M516.024,382.731  A11.3708,11.3708 5 0,0 515.981,383.722 " />
<path d="M516.024,384.713  A11.3708,11.3708 -5 0,0 516.154,385.696 " />
<path d="M516.368,386.665  A11.3708,11.3708 -15 0,0 516.667,387.611 " />
<path d="M517.046,388.527  A11.3708,11.3708 -25 0,0 517.504,389.407 " />
<path d="M518.037,390.244  A11.3708,11.3708 -35 0,0 518.641,391.031 " />
<path d="M519.311,391.762  A11.3708,11.3708 -45 0,0 520.043,392.432 " />
<path d="M520.83,393.036  A11.3708,11.3708 -55 0,0 521.666,393.569 " />
<path d="M522.546,394.027  A11.3708,11.3708 -65 0,0 523.463,394.407 " />
<path d="M524.409,394.705  A11.3708,11.3708 -75 0,0 525.377,394.92 " />
<path d="M526.361,395.049  A11.3708,11.3708 -85 0,0 527.352,395.093 " />
<path d="M528.343,395.049  A11.3708,11.3708 85 0,0 529.326,394.92 " />
<path d="M530.295,394.705  A11.3708,11.3708 75 0,0 531.241,394.407 " />
<path d="M532.157,394.027  A11.3708,11.3708 65 0,0 533.037,393.569 " />
<path d="M533.874,393.036  A11.3708,11.3708 55 0,0 534.661,392.432 " />
<path d="M535.392,391.762  A11.3708,11.3708 45 0,0 536.062,391.031 " />
<path d="M536.666,390.244  A11.3708,11.3708 35 0,0 537.199,389.407 " />
<path d="M537.657,388.527  A11.3708,11.3708 25 0,0 538.037,387.611 " />
<path d="M538.335,386.665  A11.3708,11.3708 15 0,0 538.55,385.696 " />
<path d="M538.679,384.713  A11.3708,11.3708 5 0,0 538.723,383.722 " />
<ellipse rx="2.62404" ry="2.62404" cx="527.352" cy="383.722" />
<polyline points="531.659,382.962 535.966,382.203 " />
<polyline points="531.725,383.722 536.098,383.722 " />
<path d="M531.725,383.722  A4.3734,4.3734 0 0,0 531.659,382.962 " />
<path d="M536.098,383.722  A8.74679,8.74679 0 0,0 535.966,382.203 " />
</g>
</svg>
