<?xml version="1.0" standalone="no"?>
<svg viewBox="0 0 1024 768" version="1.1" xmlns="http://www.w3.org/2000/svg" stroke-linecap="round" stroke-linejoin="round" fill-rule="evenodd" xml:space="preserve" >
<defs >
<clipPath id="clipId0" >
<path d="M0,768 1024,768 1024,0 0,0 z" />
</clipPath>
</defs>
<g stroke-width="0.75" clip-path="url(#clipId0)" fill="none" stroke="rgb(0,0,0)" />
<g stroke-width="0.3" clip-path="url(#clipId0)" fill="rgb(0,0,0)" stroke="none" >
<path d="M484.123,380.321 484.123,379.844 484.128,380.321 z" />
<path d="M484.123,380.321 484.107,379.367 484.123,379.844 z" />
<path d="M484.107,380.321 484.107,379.367 484.123,380.321 z" />
<path d="M484.107,380.321 484.081,378.891 484.107,379.367 z" />
<path d="M484.081,380.321 484.081,378.891 484.107,380.321 z" />
<path d="M484.081,380.321 484.045,378.415 484.081,378.891 z" />
<path d="M484.045,380.321 484.045,378.415 484.081,380.321 z" />
<path d="M484.045,380.321 475.381,379.173 484.045,378.415 z" />
<path d="M475.381,380.321 475.381,379.173 484.045,380.321 z" />
<path d="M475.381,380.321 475.378,379.173 475.381,379.173 z" />
<path d="M475.378,380.035 475.378,379.173 475.381,380.321 z" />
<path d="M475.378,380.035 475.369,379.174 475.378,379.173 z" />
<path d="M475.369,379.749 475.369,379.174 475.378,380.035 z" />
<path d="M475.369,379.749 475.353,379.176 475.369,379.174 z" />
<path d="M475.353,379.463 475.353,379.176 475.369,379.749 z" />
<path d="M475.353,379.463 475.331,379.178 475.353,379.176 z" />
</g>
<g stroke-width="0.75" clip-path="url(#clipId0)" fill="none" stroke="rgb(0,0,0)" >
<ellipse rx="21.867" ry="21.867" cx="462.261" cy="380.321" />
<ellipse rx="13.1202" ry="13.1202" cx="462.261" cy="380.321" />
</g>
<g stroke-width="0.3" clip-path="url(#clipId0)" fill="rgb(0,0,0)" stroke="none" >
<path d="M475.378,380.607 475.378,380.035 475.381,380.321 z" />
<path d="M475.378,380.607 475.369,379.749 475.378,380.035 z" />
<path d="M475.369,380.893 475.369,379.749 475.378,380.607 z" />
<path d="M475.369,380.893 475.353,379.463 475.369,379.749 z" />
<path d="M475.353,381.179 475.353,379.463 475.369,380.893 z" />
<path d="M475.353,381.179 475.331,379.178 475.353,379.463 z" />
<path d="M475.331,381.465 475.331,379.178 475.353,381.179 z" />
<path d="M475.331,381.465 475.303,379.18 475.331,379.178 z" />
<path d="M475.303,381.462 475.303,379.18 475.331,381.465 z" />
<path d="M475.303,381.462 475.269,379.183 475.303,379.18 z" />
<path d="M475.269,381.459 475.269,379.183 475.303,381.462 z" />
<path d="M475.269,381.459 475.228,379.187 475.269,379.183 z" />
<path d="M475.228,381.456 475.228,379.187 475.269,381.459 z" />
<path d="M475.228,381.456 475.182,379.191 475.228,379.187 z" />
<path d="M475.182,381.452 475.182,379.191 475.228,381.456 z" />
<path d="M475.182,381.452 475.129,379.195 475.182,379.191 z" />
<path d="M475.129,381.447 475.129,379.195 475.182,381.452 z" />
<path d="M475.129,381.447 475.07,379.2 475.129,379.195 z" />
<path d="M475.07,381.442 475.07,379.2 475.129,381.447 z" />
<path d="M475.07,381.442 475.005,379.206 475.07,379.2 z" />
<path d="M475.005,381.436 475.005,379.206 475.07,381.442 z" />
<path d="M475.005,381.436 474.934,379.212 475.005,379.206 z" />
<path d="M474.934,381.43 474.934,379.212 475.005,381.436 z" />
<path d="M474.934,381.43 474.857,379.219 474.934,379.212 z" />
<path d="M474.857,381.423 474.857,379.219 474.934,381.43 z" />
<path d="M474.857,381.423 474.774,379.226 474.857,379.219 z" />
<path d="M474.774,381.416 474.774,379.226 474.857,381.423 z" />
<path d="M474.774,381.416 474.685,379.234 474.774,379.226 z" />
<path d="M474.685,381.408 474.685,379.234 474.774,381.416 z" />
<path d="M474.685,381.408 474.59,379.242 474.685,379.234 z" />
<path d="M474.59,381.4 474.59,379.242 474.685,381.408 z" />
<path d="M474.59,381.4 474.489,379.251 474.59,379.242 z" />
<path d="M474.489,381.391 474.489,379.251 474.59,381.4 z" />
<path d="M474.489,381.391 474.382,379.261 474.489,379.251 z" />
<path d="M474.382,381.382 474.382,379.261 474.489,381.391 z" />
<path d="M474.382,381.382 474.27,379.27 474.382,379.261 z" />
<path d="M474.27,381.372 474.27,379.27 474.382,381.382 z" />
<path d="M474.27,381.372 474.152,379.281 474.27,379.27 z" />
<path d="M474.152,381.361 474.152,379.281 474.27,381.372 z" />
<path d="M474.152,381.361 474.028,379.292 474.152,379.281 z" />
<path d="M474.028,381.351 474.028,379.292 474.152,381.361 z" />
<path d="M474.028,381.351 473.899,379.303 474.028,379.292 z" />
<path d="M473.899,381.339 473.899,379.303 474.028,381.351 z" />
<path d="M473.899,381.339 473.764,379.315 473.899,379.303 z" />
<path d="M473.764,381.327 473.764,379.315 473.899,381.339 z" />
<path d="M473.764,381.327 473.623,379.327 473.764,379.315 z" />
<path d="M473.623,381.315 473.623,379.327 473.764,381.327 z" />
<path d="M473.623,381.315 473.478,379.34 473.623,379.327 z" />
<path d="M473.478,381.302 473.478,379.34 473.623,381.315 z" />
<path d="M473.478,381.302 473.326,379.353 473.478,379.34 z" />
<path d="M473.326,381.289 473.326,379.353 473.478,381.302 z" />
<path d="M473.326,381.289 473.17,379.367 473.326,379.353 z" />
<path d="M473.17,381.275 473.17,379.367 473.326,381.289 z" />
<path d="M473.17,381.275 473.008,379.381 473.17,379.367 z" />
<path d="M473.008,381.261 473.008,379.381 473.17,381.275 z" />
<path d="M472.842,372.565 472.842,372.563 473.008,372.796 z" />
<path d="M473.008,381.261 472.842,379.395 473.008,379.381 z" />
<path d="M472.842,381.247 472.842,379.395 473.008,381.261 z" />
<path d="M472.842,372.565 472.807,372.517 472.842,372.563 z" />
<path d="M472.842,381.247 472.807,379.398 472.842,379.395 z" />
<path d="M472.807,381.244 472.807,379.398 472.842,381.247 z" />
<path d="M472.785,372.487 472.785,372.486 472.807,372.517 z" />
<path d="M472.807,381.244 472.785,379.4 472.807,379.398 z" />
<path d="M472.785,381.242 472.785,379.4 472.807,381.244 z" />
<path d="M472.785,372.487 472.746,372.436 472.785,372.486 z" />
<path d="M472.785,381.242 472.746,379.404 472.785,379.4 z" />
<path d="M472.746,381.238 472.746,379.404 472.785,381.242 z" />
<path d="M472.67,372.336 472.67,372.334 472.746,372.436 z" />
<path d="M472.746,381.238 472.67,379.41 472.746,379.404 z" />
<path d="M472.67,381.232 472.67,379.41 472.746,381.238 z" />
<path d="M472.67,372.336 472.591,372.234 472.67,372.334 z" />
<path d="M472.67,381.232 472.591,379.417 472.67,379.41 z" />
<path d="M472.591,381.225 472.591,379.417 472.67,381.232 z" />
<path d="M472.553,372.185 472.553,372.183 472.591,372.234 z" />
<path d="M472.591,381.225 472.553,379.421 472.591,379.417 z" />
<path d="M472.553,381.221 472.553,379.421 472.591,381.225 z" />
<path d="M472.553,372.185 472.528,372.154 472.553,372.183 z" />
<path d="M472.553,381.221 472.528,379.423 472.553,379.421 z" />
<path d="M472.528,381.219 472.528,379.423 472.553,381.221 z" />
<path d="M472.493,372.11 472.493,372.109 472.528,372.154 z" />
<path d="M472.528,381.219 472.493,379.426 472.528,379.423 z" />
<path d="M472.493,381.216 472.493,379.426 472.528,381.219 z" />
<path d="M472.493,372.11 472.312,371.888 472.493,372.109 z" />
<path d="M472.493,381.216 472.312,379.442 472.493,379.426 z" />
<path d="M472.312,381.2 472.312,379.442 472.493,381.216 z" />
<path d="M472.125,371.672 472.125,371.67 472.312,371.888 z" />
<path d="M472.312,381.2 472.125,379.458 472.312,379.442 z" />
<path d="M472.125,381.184 472.125,379.458 472.312,381.2 z" />
<path d="M472.125,371.672 472.092,371.633 472.125,371.67 z" />
<path d="M472.092,371.633 472.092,371.633 472.125,371.672 z" />
<path d="M472.125,381.184 472.092,379.461 472.125,379.458 z" />
<path d="M472.092,381.181 472.092,379.461 472.125,381.184 z" />
<path d="M472.092,371.633 472.087,371.628 472.092,371.633 z" />
<path d="M472.092,381.181 472.087,379.461 472.092,379.461 z" />
<path d="M472.087,381.181 472.087,379.461 472.092,381.181 z" />
<path d="M472.062,371.6 472.062,371.599 472.087,371.628 z" />
<path d="M472.087,381.181 472.062,379.464 472.087,379.461 z" />
<path d="M472.062,381.179 472.062,379.464 472.087,381.181 z" />
<path d="M472.062,371.6 472.019,371.552 472.062,371.599 z" />
<path d="M472.062,381.179 472.019,379.467 472.062,379.464 z" />
<path d="M472.019,381.175 472.019,379.467 472.062,381.179 z" />
<path d="M471.934,371.459 471.934,371.457 472.019,371.552 z" />
<path d="M472.019,381.175 471.934,379.475 472.019,379.467 z" />
<path d="M471.934,381.167 471.934,379.475 472.019,381.175 z" />
<path d="M471.934,371.459 471.847,371.364 471.934,371.457 z" />
<path d="M471.934,381.167 471.847,379.482 471.934,379.475 z" />
<path d="M471.847,381.16 471.847,379.482 471.934,381.167 z" />
<path d="M471.804,371.318 471.804,371.317 471.847,371.364 z" />
<path d="M471.847,381.16 471.804,379.486 471.847,379.482 z" />
<path d="M471.804,381.156 471.804,379.486 471.847,381.16 z" />
<path d="M471.804,371.318 471.778,371.29 471.804,371.317 z" />
<path d="M471.804,381.156 471.778,379.488 471.804,379.486 z" />
<path d="M471.778,381.154 471.778,379.488 471.804,381.156 z" />
<path d="M471.738,371.25 471.738,371.248 471.778,371.29 z" />
<path d="M471.778,381.154 471.738,379.492 471.778,379.488 z" />
<path d="M471.738,381.15 471.738,379.492 471.778,381.154 z" />
<path d="M471.738,371.25 471.538,371.044 471.738,371.248 z" />
<path d="M471.738,381.15 471.538,379.509 471.738,379.492 z" />
<path d="M471.538,381.133 471.538,379.509 471.738,381.15 z" />
<path d="M471.334,370.845 471.334,370.844 471.538,371.044 z" />
<path d="M471.538,381.133 471.334,379.527 471.538,379.509 z" />
<path d="M471.334,381.115 471.334,379.527 471.538,381.133 z" />
<path d="M471.334,370.845 471.292,370.804 471.334,370.844 z" />
<path d="M471.334,381.115 471.292,379.531 471.334,379.527 z" />
<path d="M471.292,381.111 471.292,379.531 471.334,381.115 z" />
<path d="M471.265,370.779 471.265,370.778 471.292,370.804 z" />
<path d="M471.292,381.111 471.265,379.533 471.292,379.531 z" />
<path d="M471.265,381.109 471.265,379.533 471.292,381.111 z" />
<path d="M471.265,370.779 471.218,370.735 471.265,370.778 z" />
<path d="M471.265,381.109 471.218,379.537 471.265,379.533 z" />
<path d="M471.218,381.105 471.218,379.537 471.265,381.109 z" />
<path d="M471.125,370.65 471.125,370.648 471.218,370.735 z" />
<path d="M471.218,381.105 471.125,379.546 471.218,379.537 z" />
<path d="M471.125,381.097 471.125,379.546 471.218,381.105 z" />
<path d="M471.125,370.65 471.05,370.581 471.125,370.648 z" />
<path d="M471.05,370.581 471.05,370.581 471.125,370.65 z" />
<path d="M471.125,381.097 471.05,379.552 471.125,379.546 z" />
<path d="M471.05,381.09 471.05,379.552 471.125,381.097 z" />
<path d="M471.05,370.581 471.03,370.563 471.05,370.581 z" />
<path d="M471.05,381.09 471.03,379.554 471.05,379.552 z" />
<path d="M471.03,381.088 471.03,379.554 471.05,381.09 z" />
<path d="M470.983,370.521 470.983,370.52 471.03,370.563 z" />
<path d="M471.03,381.088 470.983,379.558 471.03,379.554 z" />
<path d="M470.983,381.084 470.983,379.558 471.03,381.088 z" />
<path d="M470.983,370.521 470.954,370.495 470.983,370.52 z" />
<path d="M470.983,381.084 470.954,379.561 470.983,379.558 z" />
<path d="M470.954,381.082 470.954,379.561 470.983,381.084 z" />
<path d="M470.912,370.458 470.912,370.457 470.954,370.495 z" />
<path d="M470.954,381.082 470.912,379.564 470.954,379.561 z" />
<path d="M470.912,381.078 470.912,379.564 470.954,381.082 z" />
<path d="M470.912,370.458 470.694,370.27 470.912,370.457 z" />
<path d="M470.912,381.078 470.694,379.583 470.912,379.564 z" />
<path d="M470.694,381.059 470.694,379.583 470.912,381.078 z" />
<path d="M470.473,370.09 470.473,370.089 470.694,370.27 z" />
<path d="M470.694,381.059 470.473,379.603 470.694,379.583 z" />
<path d="M470.473,381.04 470.473,379.603 470.694,381.059 z" />
<path d="M470.473,370.09 470.428,370.054 470.473,370.089 z" />
<path d="M470.473,381.04 470.428,379.607 470.473,379.603 z" />
<path d="M470.428,381.036 470.428,379.607 470.473,381.04 z" />
<path d="M470.399,370.03 470.399,370.029 470.428,370.054 z" />
<path d="M470.428,381.036 470.399,379.609 470.428,379.607 z" />
<path d="M470.399,381.033 470.399,379.609 470.428,381.036 z" />
<path d="M470.399,370.03 470.348,369.991 470.399,370.029 z" />
<path d="M470.399,381.033 470.348,379.614 470.399,379.609 z" />
<path d="M470.348,381.029 470.348,379.614 470.399,381.033 z" />
<path d="M470.248,369.914 470.248,369.912 470.348,369.991 z" />
<path d="M470.348,381.029 470.248,379.622 470.348,379.614 z" />
<path d="M470.248,381.02 470.248,379.622 470.348,381.029 z" />
<path d="M470.248,369.914 470.146,369.836 470.248,369.912 z" />
<path d="M470.248,381.02 470.146,379.631 470.248,379.622 z" />
<path d="M470.146,381.011 470.146,379.631 470.248,381.02 z" />
<path d="M470.096,369.798 470.096,369.797 470.146,369.836 z" />
<path d="M470.146,381.011 470.096,379.636 470.146,379.631 z" />
<path d="M470.096,381.007 470.096,379.636 470.146,381.011 z" />
<path d="M470.096,369.798 470.065,369.775 470.096,369.797 z" />
<path d="M470.096,381.007 470.065,379.638 470.096,379.636 z" />
<path d="M470.065,381.004 470.065,379.638 470.096,381.007 z" />
<path d="M470.019,369.742 470.019,369.74 470.065,369.775 z" />
<path d="M470.065,381.004 470.019,379.642 470.065,379.638 z" />
<path d="M470.019,381 470.019,379.642 470.065,381.004 z" />
<path d="M470.019,369.742 469.896,369.652 470.019,369.74 z" />
<path d="M469.896,369.653 469.896,369.652 470.019,369.742 z" />
<path d="M470.019,381 469.896,379.653 470.019,379.642 z" />
<path d="M469.896,380.989 469.896,379.653 470.019,381 z" />
<path d="M469.896,369.653 469.786,369.574 469.896,369.652 z" />
<path d="M469.896,380.989 469.786,379.663 469.896,379.653 z" />
<path d="M469.786,380.979 469.786,379.663 469.896,380.989 z" />
<path d="M469.786,380.979 469.55,379.683 469.786,379.663 z" />
<path d="M469.55,380.959 469.55,379.683 469.786,380.979 z" />
<path d="M469.55,380.959 469.31,379.704 469.55,379.683 z" />
<path d="M469.31,380.938 469.31,379.704 469.55,380.959 z" />
<path d="M469.31,380.938 469.067,379.726 469.31,379.704 z" />
<path d="M469.067,380.917 469.067,379.726 469.31,380.938 z" />
<path d="M469.067,380.917 468.821,379.747 469.067,379.726 z" />
<path d="M468.821,380.895 468.821,379.747 469.067,380.917 z" />
<path d="M468.821,380.895 468.645,379.763 468.821,379.747 z" />
<path d="M468.645,380.88 468.645,379.763 468.821,380.895 z" />
<path d="M468.645,380.88 468.572,379.769 468.645,379.763 z" />
<path d="M468.572,380.873 468.572,379.769 468.645,380.88 z" />
<path d="M468.572,380.873 468.319,379.791 468.572,379.769 z" />
<path d="M468.319,380.851 468.319,379.791 468.572,380.873 z" />
<path d="M468.319,380.851 468.064,379.813 468.319,379.791 z" />
<path d="M468.064,380.829 468.064,379.813 468.319,380.851 z" />
<path d="M468.064,380.829 467.806,379.836 468.064,379.813 z" />
<path d="M467.806,380.806 467.806,379.836 468.064,380.829 z" />
<path d="M467.806,380.806 467.545,379.859 467.806,379.836 z" />
<path d="M467.545,380.783 467.545,379.859 467.806,380.806 z" />
<path d="M467.545,380.783 467.313,379.879 467.545,379.859 z" />
<path d="M467.313,380.763 467.313,379.879 467.545,380.783 z" />
<path d="M467.313,380.763 467.282,379.882 467.313,379.879 z" />
<path d="M467.282,380.76 467.282,379.882 467.313,380.763 z" />
<path d="M467.282,380.76 467.016,379.905 467.282,379.882 z" />
<path d="M467.016,380.737 467.016,379.905 467.282,380.76 z" />
<path d="M467.016,380.737 466.748,379.928 467.016,379.905 z" />
<path d="M466.748,380.714 466.748,379.928 467.016,380.737 z" />
<path d="M466.748,380.714 466.478,379.952 466.748,379.928 z" />
<path d="M466.478,380.69 466.478,379.952 466.748,380.714 z" />
<path d="M466.478,380.69 466.206,379.976 466.478,379.952 z" />
<path d="M466.206,380.666 466.206,379.976 466.478,380.69 z" />
<path d="M466.206,380.666 465.932,380 466.206,379.976 z" />
<path d="M465.932,380.642 465.932,380 466.206,380.666 z" />
<path d="M465.932,380.642 465.916,380.001 465.932,380 z" />
<path d="M465.916,380.641 465.916,380.001 465.932,380.642 z" />
<path d="M465.916,380.641 465.657,380.024 465.916,380.001 z" />
<path d="M465.657,380.618 465.657,380.024 465.916,380.641 z" />
<path d="M465.657,380.618 465.379,380.048 465.657,380.024 z" />
<path d="M465.379,380.594 465.379,380.048 465.657,380.618 z" />
<path d="M465.379,380.594 465.101,380.073 465.379,380.048 z" />
<path d="M465.101,380.57 465.101,380.073 465.379,380.594 z" />
<path d="M465.101,380.57 464.821,380.097 465.101,380.073 z" />
<path d="M464.821,380.545 464.821,380.097 465.101,380.57 z" />
<path d="M464.821,380.545 464.539,380.122 464.821,380.097 z" />
<path d="M464.539,380.52 464.539,380.122 464.821,380.545 z" />
<path d="M464.539,380.52 464.473,380.128 464.539,380.122 z" />
<path d="M464.473,380.515 464.473,380.128 464.539,380.52 z" />
<path d="M464.473,380.515 464.257,380.146 464.473,380.128 z" />
<path d="M464.257,380.496 464.257,380.146 464.473,380.515 z" />
<path d="M464.257,380.496 464.01,380.168 464.257,380.146 z" />
<path d="M464.01,380.474 464.01,380.168 464.257,380.496 z" />
<path d="M464.01,380.321 464.01,380.168 464.01,380.168 z" />
<path d="M464.01,380.283 464.01,380.168 464.01,380.321 z" />
<path d="M464.01,380.359 464.01,380.283 464.01,380.321 z" />
<path d="M464.01,380.474 464.01,380.359 464.01,380.321 z" />
<path d="M464.01,380.474 464.01,380.359 464.01,380.474 z" />
<path d="M464.01,380.283 464.009,380.168 464.01,380.168 z" />
<path d="M464.009,380.245 464.009,380.168 464.01,380.283 z" />
<path d="M464.01,380.359 464.009,380.245 464.01,380.283 z" />
<path d="M464.009,380.397 464.009,380.245 464.01,380.359 z" />
<path d="M464.01,380.474 464.009,380.397 464.01,380.359 z" />
<path d="M464.009,380.474 464.009,380.397 464.01,380.474 z" />
<path d="M464.009,380.245 464.007,380.168 464.009,380.168 z" />
<path d="M464.007,380.207 464.007,380.168 464.009,380.245 z" />
<path d="M464.009,380.397 464.007,380.207 464.009,380.245 z" />
<path d="M464.007,380.435 464.007,380.207 464.009,380.397 z" />
<path d="M464.009,380.474 464.007,380.435 464.009,380.397 z" />
<path d="M464.007,380.474 464.007,380.435 464.009,380.474 z" />
<path d="M464.007,380.207 464.004,380.169 464.007,380.168 z" />
<path d="M464.007,380.435 464.004,380.169 464.007,380.207 z" />
<path d="M464.004,380.474 464.004,380.169 464.007,380.435 z" />
<path d="M464.007,380.474 464.004,380.474 464.007,380.435 z" />
<path d="M463.973,380.171 463.973,379.968 464.004,380.169 z" />
<path d="M464.004,380.474 463.973,380.171 464.004,380.169 z" />
<path d="M463.973,380.471 463.973,380.171 464.004,380.474 z" />
<path d="M463.973,380.674 463.973,380.471 464.004,380.474 z" />
<path d="M463.973,380.171 463.971,379.953 463.973,379.968 z" />
<path d="M463.971,380.171 463.971,379.953 463.973,380.171 z" />
<path d="M463.973,380.471 463.971,380.171 463.973,380.171 z" />
<path d="M463.971,380.471 463.971,380.171 463.973,380.471 z" />
<path d="M463.973,380.674 463.971,380.471 463.973,380.471 z" />
<path d="M463.971,380.689 463.971,380.471 463.973,380.674 z" />
<path d="M463.971,380.171 463.912,379.743 463.971,379.953 z" />
<path d="M463.912,380.177 463.912,379.743 463.971,380.171 z" />
<path d="M463.971,380.471 463.912,380.177 463.971,380.171 z" />
<path d="M463.912,380.466 463.912,380.177 463.971,380.471 z" />
<path d="M463.971,380.689 463.912,380.466 463.971,380.471 z" />
<path d="M463.912,380.899 463.912,380.466 463.971,380.689 z" />
<path d="M463.912,380.177 463.827,379.542 463.912,379.743 z" />
<path d="M463.827,380.184 463.827,379.542 463.912,380.177 z" />
<path d="M463.912,380.466 463.827,380.184 463.912,380.177 z" />
<path d="M463.827,380.458 463.827,380.184 463.912,380.466 z" />
<path d="M463.912,380.899 463.827,380.458 463.912,380.466 z" />
<path d="M463.827,381.1 463.827,380.458 463.912,380.899 z" />
<path d="M463.827,380.184 463.718,379.354 463.827,379.542 z" />
<path d="M463.718,380.194 463.718,379.354 463.827,380.184 z" />
<path d="M463.827,380.458 463.718,380.194 463.827,380.184 z" />
<path d="M463.718,380.449 463.718,380.194 463.827,380.458 z" />
<path d="M463.827,381.1 463.718,380.449 463.827,380.458 z" />
<path d="M463.718,381.288 463.718,380.449 463.827,381.1 z" />
<path d="M463.718,380.194 463.689,379.315 463.718,379.354 z" />
<path d="M463.689,380.196 463.689,379.315 463.718,380.194 z" />
<path d="M463.718,380.449 463.689,380.196 463.718,380.194 z" />
<path d="M463.689,380.446 463.689,380.196 463.718,380.449 z" />
<path d="M463.718,381.288 463.689,380.446 463.718,380.449 z" />
<path d="M463.689,381.327 463.689,380.446 463.718,381.288 z" />
<path d="M463.689,380.196 463.587,379.18 463.689,379.315 z" />
<path d="M463.587,380.205 463.587,379.18 463.689,380.196 z" />
<path d="M463.689,380.446 463.587,380.205 463.689,380.196 z" />
<path d="M463.587,380.437 463.587,380.205 463.689,380.446 z" />
<path d="M463.689,381.327 463.587,380.437 463.689,380.446 z" />
<path d="M463.587,381.462 463.587,380.437 463.689,381.327 z" />
<path d="M463.587,380.205 463.435,379.024 463.587,379.18 z" />
<path d="M463.435,380.218 463.435,379.024 463.587,380.205 z" />
<path d="M463.587,380.437 463.435,380.218 463.587,380.205 z" />
<path d="M463.435,380.424 463.435,380.218 463.587,380.437 z" />
<path d="M463.587,381.462 463.435,380.424 463.587,380.437 z" />
<path d="M463.435,381.618 463.435,380.424 463.587,381.462 z" />
<path d="M463.435,380.218 463.404,379 463.435,379.024 z" />
<path d="M463.404,380.221 463.404,379 463.435,380.218 z" />
<path d="M463.435,380.424 463.404,380.221 463.435,380.218 z" />
<path d="M463.404,380.421 463.404,380.221 463.435,380.424 z" />
<path d="M463.435,381.618 463.404,380.421 463.435,380.424 z" />
<path d="M463.404,381.642 463.404,380.421 463.435,381.618 z" />
<path d="M463.404,380.221 463.264,378.888 463.404,379 z" />
<path d="M463.264,380.233 463.264,378.888 463.404,380.221 z" />
<path d="M463.404,380.421 463.264,380.233 463.404,380.221 z" />
<path d="M463.264,380.409 463.264,380.233 463.404,380.421 z" />
<path d="M463.404,381.642 463.264,380.409 463.404,380.421 z" />
<path d="M463.264,381.754 463.264,380.409 463.404,381.642 z" />
<path d="M463.264,380.233 463.119,378.799 463.264,378.888 z" />
<path d="M463.119,380.246 463.119,378.799 463.264,380.233 z" />
<path d="M463.264,380.409 463.119,380.246 463.264,380.233 z" />
<path d="M463.119,380.396 463.119,380.246 463.264,380.409 z" />
<path d="M463.264,381.754 463.119,380.396 463.264,380.409 z" />
<path d="M463.119,381.843 463.119,380.396 463.264,381.754 z" />
<path d="M463.119,380.246 463.078,378.774 463.119,378.799 z" />
<path d="M463.078,380.25 463.078,378.774 463.119,380.246 z" />
<path d="M463.119,380.396 463.078,380.25 463.119,380.246 z" />
<path d="M463.078,380.393 463.078,380.25 463.119,380.396 z" />
<path d="M463.119,381.843 463.078,380.393 463.119,380.396 z" />
<path d="M463.078,381.868 463.078,380.393 463.119,381.843 z" />
<path d="M463.078,380.25 463.001,378.74 463.078,378.774 z" />
<path d="M463.001,380.256 463.001,378.74 463.078,380.25 z" />
<path d="M463.078,380.393 463.001,380.256 463.078,380.25 z" />
<path d="M463.001,380.386 463.001,380.256 463.078,380.393 z" />
<path d="M463.078,381.868 463.001,380.386 463.078,380.393 z" />
<path d="M463.001,381.902 463.001,380.386 463.078,381.868 z" />
<path d="M463.001,380.256 462.88,378.685 463.001,378.74 z" />
<path d="M462.88,380.267 462.88,378.685 463.001,380.256 z" />
<path d="M463.001,380.386 462.88,380.267 463.001,380.256 z" />
<path d="M462.88,380.375 462.88,380.267 463.001,380.386 z" />
<path d="M463.001,381.902 462.88,380.375 463.001,380.386 z" />
<path d="M462.88,381.957 462.88,380.375 463.001,381.902 z" />
<path d="M462.88,380.267 462.833,378.67 462.88,378.685 z" />
<path d="M462.833,380.271 462.833,378.67 462.88,380.267 z" />
<path d="M462.88,380.375 462.833,380.271 462.88,380.267 z" />
<path d="M462.833,380.371 462.833,380.271 462.88,380.375 z" />
<path d="M462.88,381.957 462.833,380.371 462.88,380.375 z" />
<path d="M462.833,381.972 462.833,380.371 462.88,381.957 z" />
<path d="M462.833,380.271 462.671,378.621 462.833,378.67 z" />
<path d="M462.671,380.285 462.671,378.621 462.833,380.271 z" />
<path d="M462.833,380.371 462.671,380.285 462.833,380.271 z" />
<path d="M462.671,380.357 462.671,380.285 462.833,380.371 z" />
<path d="M462.833,381.972 462.671,380.357 462.833,380.371 z" />
<path d="M462.671,382.022 462.671,380.357 462.833,381.972 z" />
<path d="M462.671,380.285 462.547,378.599 462.671,378.621 z" />
<path d="M462.547,380.296 462.547,378.599 462.671,380.285 z" />
<path d="M462.671,380.357 462.547,380.296 462.671,380.285 z" />
<path d="M462.547,380.346 462.547,380.296 462.671,380.357 z" />
<path d="M462.671,382.022 462.547,380.346 462.671,380.357 z" />
<path d="M462.547,382.044 462.547,380.346 462.671,382.022 z" />
<path d="M462.547,380.296 462.457,378.583 462.547,378.599 z" />
<path d="M462.457,380.304 462.457,378.583 462.547,380.296 z" />
<path d="M462.547,380.346 462.457,380.304 462.547,380.296 z" />
<path d="M462.457,380.338 462.457,380.304 462.547,380.346 z" />
<path d="M462.547,382.044 462.457,380.338 462.547,380.346 z" />
<path d="M462.457,382.059 462.457,380.338 462.547,382.044 z" />
<path d="M462.457,380.304 462.261,378.573 462.457,378.583 z" />
<path d="M462.261,380.321 462.261,378.573 462.457,380.304 z" />
<path d="M462.457,380.338 462.261,380.321 462.457,380.304 z" />
<path d="M462.457,382.059 462.261,380.321 462.457,380.338 z" />
<path d="M462.261,382.069 462.261,380.321 462.457,382.059 z" />
<path d="M462.261,382.069 462.239,378.572 462.261,378.573 z" />
<path d="M462.239,382.07 462.239,378.572 462.261,382.069 z" />
<path d="M462.239,382.07 462.022,378.588 462.239,378.572 z" />
<path d="M462.022,382.054 462.022,378.588 462.239,382.07 z" />
<path d="M462.022,382.054 461.975,378.598 462.022,378.588 z" />
<path d="M461.975,382.044 461.975,378.598 462.022,382.054 z" />
<path d="M461.975,382.044 461.808,378.631 461.975,378.598 z" />
<path d="M461.808,382.011 461.808,378.631 461.975,382.044 z" />
<path d="M461.808,382.011 461.689,378.671 461.808,378.631 z" />
<path d="M461.689,381.971 461.689,378.671 461.808,382.011 z" />
<path d="M461.689,381.971 461.602,378.701 461.689,378.671 z" />
<path d="M461.602,381.941 461.602,378.701 461.689,381.971 z" />
<path d="M461.602,381.941 461.52,378.74 461.602,378.701 z" />
<path d="M461.52,381.902 461.52,378.74 461.602,381.941 z" />
<path d="M461.52,381.902 461.405,378.795 461.52,378.74 z" />
<path d="M461.405,381.847 461.405,378.795 461.52,381.902 z" />
<path d="M461.405,381.847 461.403,378.797 461.405,378.795 z" />
<path d="M461.403,381.845 461.403,378.797 461.405,381.847 z" />
<path d="M461.403,381.845 461.222,378.914 461.403,378.797 z" />
<path d="M461.222,381.729 461.222,378.914 461.403,381.845 z" />
<path d="M461.222,381.729 461.117,379.001 461.222,378.914 z" />
<path d="M461.117,381.641 461.117,379.001 461.222,381.729 z" />
<path d="M461.117,381.641 461.055,379.054 461.117,379.001 z" />
<path d="M461.055,381.589 461.055,379.054 461.117,381.641 z" />
<path d="M461.055,381.589 460.907,379.213 461.055,379.054 z" />
<path d="M460.907,381.429 460.907,379.213 461.055,381.589 z" />
<path d="M460.907,381.429 460.833,379.317 460.907,379.213 z" />
<path d="M460.833,381.325 460.833,379.317 460.907,381.429 z" />
<path d="M460.833,381.325 460.78,379.39 460.833,379.317 z" />
<path d="M460.78,381.252 460.78,379.39 460.833,381.325 z" />
<path d="M460.78,381.252 460.675,379.582 460.78,379.39 z" />
<path d="M460.675,381.06 460.675,379.582 460.78,381.252 z" />
<path d="M460.675,381.06 460.596,379.785 460.675,379.582 z" />
<path d="M460.596,380.858 460.596,379.785 460.675,381.06 z" />
<path d="M460.596,380.858 460.548,379.971 460.596,379.785 z" />
<path d="M460.548,380.671 460.548,379.971 460.596,380.858 z" />
<path d="M460.548,380.671 460.542,379.996 460.548,379.971 z" />
<path d="M460.542,380.646 460.542,379.996 460.548,380.671 z" />
<path d="M460.542,380.646 460.515,380.212 460.542,379.996 z" />
<path d="M460.515,380.43 460.515,380.212 460.542,380.646 z" />
<path d="M454.626,369.654 454.626,369.652 454.735,369.574 z" />
<path d="M454.626,369.654 454.503,369.74 454.626,369.652 z" />
<path d="M454.503,369.743 454.503,369.74 454.626,369.654 z" />
<path d="M454.503,369.743 454.376,369.836 454.503,369.74 z" />
<path d="M454.339,369.863 454.339,369.863 454.376,369.836 z" />
<path d="M454.339,369.863 454.317,369.879 454.339,369.863 z" />
<path d="M454.274,369.914 454.274,369.912 454.317,369.879 z" />
<path d="M454.274,369.914 454.049,370.089 454.274,369.912 z" />
<path d="M454.049,370.091 454.049,370.089 454.274,369.914 z" />
<path d="M454.049,370.091 453.983,370.143 454.049,370.089 z" />
<path d="M453.953,370.167 453.953,370.166 453.983,370.143 z" />
<path d="M453.953,370.167 453.919,370.195 453.953,370.166 z" />
<path d="M453.827,370.273 453.827,370.27 453.919,370.195 z" />
<path d="M453.827,370.273 453.61,370.457 453.827,370.27 z" />
<path d="M453.61,370.458 453.61,370.457 453.827,370.273 z" />
<path d="M453.61,370.458 453.59,370.474 453.61,370.457 z" />
<path d="M453.579,370.484 453.579,370.484 453.59,370.474 z" />
<path d="M453.579,370.484 453.554,370.507 453.579,370.484 z" />
<path d="M453.472,370.582 453.472,370.581 453.554,370.507 z" />
<path d="M453.472,370.582 453.397,370.648 453.472,370.581 z" />
<path d="M453.397,370.651 453.397,370.648 453.472,370.582 z" />
<path d="M453.397,370.651 453.244,370.792 453.397,370.648 z" />
<path d="M453.218,370.816 453.218,370.815 453.244,370.792 z" />
<path d="M453.218,370.816 453.207,370.825 453.218,370.815 z" />
<path d="M453.188,370.845 453.188,370.844 453.207,370.825 z" />
<path d="M453.188,370.845 452.984,371.044 453.188,370.844 z" />
<path d="M452.984,371.047 452.984,371.044 453.188,370.845 z" />
<path d="M452.984,371.047 452.9,371.129 452.984,371.044 z" />
<path d="M452.869,371.161 452.869,371.16 452.9,371.129 z" />
<path d="M452.869,371.161 452.843,371.188 452.869,371.16 z" />
<path d="M452.783,371.251 452.783,371.248 452.843,371.188 z" />
<path d="M452.783,371.251 452.588,371.457 452.783,371.248 z" />
<path d="M452.588,371.459 452.588,371.457 452.783,371.251 z" />
<path d="M452.588,371.459 452.551,371.498 452.588,371.457 z" />
<path d="M452.533,371.519 452.533,371.518 452.551,371.498 z" />
<path d="M452.533,371.519 452.503,371.552 452.533,371.518 z" />
<path d="M452.43,371.635 452.43,371.633 452.503,371.552 z" />
<path d="M452.43,371.635 452.397,371.67 452.43,371.633 z" />
<path d="M452.397,371.674 452.397,371.67 452.43,371.635 z" />
<path d="M452.397,371.674 452.21,371.888 452.397,371.67 z" />
<path d="M475.378,380.607 475.378,380.035 475.381,380.321 z" />
<path d="M475.378,380.607 475.369,379.749 475.378,380.035 z" />
<path d="M475.369,380.893 475.369,379.749 475.378,380.607 z" />
<path d="M475.369,380.893 475.353,379.463 475.369,379.749 z" />
<path d="M475.353,381.179 475.353,379.463 475.369,380.893 z" />
<path d="M475.353,381.179 475.331,379.178 475.353,379.463 z" />
<path d="M475.331,381.465 475.331,379.178 475.353,381.179 z" />
<path d="M475.331,381.465 464.01,380.168 475.331,379.178 z" />
<path d="M464.01,380.474 464.01,380.168 475.331,381.465 z" />
<path d="M464.01,380.321 464.01,380.168 464.01,380.168 z" />
<path d="M464.01,380.283 464.01,380.168 464.01,380.321 z" />
<path d="M464.01,380.474 464.01,380.359 464.01,380.321 z" />
<path d="M464.01,380.474 464.01,380.359 464.01,380.474 z" />
<path d="M464.01,380.283 464.009,380.168 464.01,380.168 z" />
<path d="M464.009,380.245 464.009,380.168 464.01,380.283 z" />
<path d="M464.01,380.474 464.009,380.397 464.01,380.359 z" />
<path d="M464.009,380.474 464.009,380.397 464.01,380.474 z" />
<path d="M464.009,380.245 464.007,380.168 464.009,380.168 z" />
<path d="M464.007,380.207 464.007,380.168 464.009,380.245 z" />
<path d="M464.009,380.474 464.007,380.435 464.009,380.397 z" />
<path d="M464.007,380.474 464.007,380.435 464.009,380.474 z" />
<path d="M464.007,380.207 464.004,380.169 464.007,380.168 z" />
<path d="M464.007,380.474 464.004,380.474 464.007,380.435 z" />
</g>
<g stroke-width="0.75" clip-path="url(#clipId0)" fill="none" stroke="rgb(0,0,0)" >
<ellipse rx="1.74936" ry="1.74936" cx="462.261" cy="380.321" />
<polyline points="475.331,379.178 484.045,378.415 " />
<polyline points="475.381,380.321 484.128,380.321 " />
</g>
<g stroke-width="0.3" clip-path="url(#clipId0)" fill="rgb(0,0,0)" stroke="none" >
<path d="M483.708,376.539 483.708,376.055 483.796,376.524 z" />
<path d="M483.708,376.539 483.61,375.588 483.708,376.055 z" />
<path d="M483.61,376.557 483.61,375.588 483.708,376.539 z" />
<path d="M483.61,376.557 483.501,375.124 483.61,375.588 z" />
<path d="M483.501,376.576 483.501,375.124 483.61,376.557 z" />
<path d="M483.501,376.576 483.383,374.661 483.501,375.124 z" />
<path d="M483.383,376.597 483.383,374.661 483.501,376.576 z" />
<path d="M483.383,376.597 475.182,376.859 483.383,374.661 z" />
<path d="M475.182,378.043 475.182,376.859 483.383,376.597 z" />
<path d="M475.182,378.043 475.129,376.873 475.182,376.859 z" />
<path d="M475.129,377.761 475.129,376.873 475.182,378.043 z" />
<path d="M475.129,377.761 475.07,376.889 475.129,376.873 z" />
<path d="M475.07,377.481 475.07,376.889 475.129,377.761 z" />
<path d="M475.07,377.481 475.005,376.906 475.07,376.889 z" />
<path d="M475.005,377.203 475.005,376.906 475.07,377.481 z" />
<path d="M475.005,377.203 474.934,376.925 475.005,376.906 z" />
</g>
<g stroke-width="0.75" clip-path="url(#clipId0)" fill="none" stroke="rgb(0,0,0)" >
<ellipse rx="21.867" ry="21.867" cx="462.261" cy="380.321" />
<ellipse rx="13.1202" ry="13.1202" cx="462.261" cy="380.321" />
<polyline points="474.934,376.925 483.383,374.661 " />
<polyline points="475.182,378.043 483.796,376.524 " />
</g>
<g stroke-width="0.3" clip-path="url(#clipId0)" fill="rgb(0,0,0)" stroke="none" >
<path d="M482.641,372.903 482.641,372.396 482.809,372.842 z" />
<path d="M482.641,372.903 482.463,371.953 482.641,372.396 z" />
<path d="M482.463,372.968 482.463,371.953 482.641,372.903 z" />
<path d="M482.463,372.968 482.276,371.514 482.463,371.953 z" />
<path d="M482.276,373.036 482.276,371.514 482.463,372.968 z" />
<path d="M482.276,373.036 482.079,371.08 482.276,371.514 z" />
<path d="M482.079,373.108 482.079,371.08 482.276,373.036 z" />
<path d="M482.079,373.108 474.59,374.572 482.079,371.08 z" />
<path d="M474.59,375.834 474.59,374.572 482.079,373.108 z" />
<path d="M474.59,375.834 474.489,374.619 474.59,374.572 z" />
<path d="M474.489,375.566 474.489,374.619 474.59,375.834 z" />
<path d="M474.489,375.566 474.382,374.669 474.489,374.619 z" />
<path d="M474.382,375.3 474.382,374.669 474.489,375.566 z" />
<path d="M474.382,375.3 474.27,374.721 474.382,374.669 z" />
<path d="M474.27,375.037 474.27,374.721 474.382,375.3 z" />
<path d="M474.27,375.037 474.152,374.776 474.27,374.721 z" />
</g>
<g stroke-width="0.75" clip-path="url(#clipId0)" fill="none" stroke="rgb(0,0,0)" >
<ellipse rx="21.867" ry="21.867" cx="462.261" cy="380.321" />
<ellipse rx="13.1202" ry="13.1202" cx="462.261" cy="380.321" />
<polyline points="474.152,374.776 482.079,371.08 " />
<polyline points="474.59,375.834 482.809,372.842 " />
</g>
<g stroke-width="0.3" clip-path="url(#clipId0)" fill="rgb(0,0,0)" stroke="none" >
<path d="M480.955,369.528 480.955,368.977 481.198,369.388 z" />
<path d="M480.955,369.528 480.703,368.572 480.955,368.977 z" />
<path d="M480.703,369.673 480.703,368.572 480.955,369.528 z" />
<path d="M480.703,369.673 480.443,368.172 480.703,368.572 z" />
<path d="M480.443,369.824 480.443,368.172 480.703,369.673 z" />
<path d="M480.443,369.824 480.173,367.779 480.443,368.172 z" />
<path d="M480.173,369.979 480.173,367.779 480.443,369.824 z" />
<path d="M480.173,369.979 473.623,372.365 480.173,367.779 z" />
<path d="M473.623,373.761 473.623,372.365 480.173,369.979 z" />
<path d="M473.623,373.761 473.478,372.467 473.623,372.365 z" />
<path d="M473.478,373.515 473.478,372.467 473.623,373.761 z" />
<path d="M473.478,373.515 473.326,372.573 473.478,372.467 z" />
<path d="M473.326,373.272 473.326,372.573 473.478,373.515 z" />
<path d="M473.326,373.272 473.17,372.682 473.326,372.573 z" />
<path d="M473.17,373.032 473.17,372.682 473.326,373.272 z" />
<path d="M473.17,373.032 473.008,372.796 473.17,372.682 z" />
</g>
<g stroke-width="0.75" clip-path="url(#clipId0)" fill="none" stroke="rgb(0,0,0)" >
<ellipse rx="21.867" ry="21.867" cx="462.261" cy="380.321" />
<ellipse rx="13.1202" ry="13.1202" cx="462.261" cy="380.321" />
<polyline points="473.008,372.796 480.173,367.779 " />
<polyline points="473.623,373.761 481.198,369.388 " />
</g>
<g stroke-width="0.3" clip-path="url(#clipId0)" fill="rgb(0,0,0)" stroke="none" >
<path d="M478.701,366.526 478.701,365.903 479.012,366.265 z" />
<path d="M478.701,366.526 478.383,365.548 478.701,365.903 z" />
<path d="M478.383,366.793 478.383,365.548 478.701,366.526 z" />
<path d="M478.383,366.793 478.057,365.2 478.383,365.548 z" />
<path d="M478.057,367.067 478.057,365.2 478.383,366.793 z" />
<path d="M478.057,367.067 477.723,364.859 478.057,365.2 z" />
<path d="M477.723,367.347 477.723,364.859 478.057,367.067 z" />
<path d="M477.723,367.347 472.312,370.27 477.723,364.859 z" />
<path d="M472.312,371.888 472.312,370.27 477.723,367.347 z" />
<path d="M472.312,371.888 472.125,370.457 472.312,370.27 z" />
<path d="M472.125,371.67 472.125,370.457 472.312,371.888 z" />
<path d="M472.125,371.67 471.934,370.648 472.125,370.457 z" />
<path d="M471.934,371.457 471.934,370.648 472.125,371.67 z" />
<path d="M471.934,371.457 471.738,370.844 471.934,370.648 z" />
<path d="M471.738,371.248 471.738,370.844 471.934,371.457 z" />
<path d="M471.738,371.248 471.538,371.044 471.738,370.844 z" />
</g>
<g stroke-width="0.75" clip-path="url(#clipId0)" fill="none" stroke="rgb(0,0,0)" >
<ellipse rx="21.867" ry="21.867" cx="462.261" cy="380.321" />
<ellipse rx="13.1202" ry="13.1202" cx="462.261" cy="380.321" />
<polyline points="471.538,371.044 477.723,364.859 " />
<polyline points="472.312,371.888 479.012,366.265 " />
</g>
<g stroke-width="0.3" clip-path="url(#clipId0)" fill="rgb(0,0,0)" stroke="none" >
<path d="M475.948,364.009 475.948,363.267 476.317,363.57 z" />
<path d="M475.948,364.009 475.573,362.973 475.948,363.267 z" />
<path d="M475.573,364.457 475.573,362.973 475.948,364.009 z" />
<path d="M475.573,364.457 475.191,362.687 475.573,362.973 z" />
<path d="M475.191,364.912 475.191,362.687 475.573,364.457 z" />
<path d="M475.191,364.912 474.803,362.409 475.191,362.687 z" />
<path d="M474.803,365.374 474.803,362.409 475.191,364.912 z" />
<path d="M474.803,365.374 470.694,368.277 474.803,362.409 z" />
<path d="M470.694,370.27 470.694,368.277 474.803,365.374 z" />
<path d="M470.694,370.27 470.473,368.593 470.694,368.277 z" />
<path d="M470.473,370.089 470.473,368.593 470.694,370.27 z" />
<path d="M470.473,370.089 470.248,368.914 470.473,368.593 z" />
<path d="M470.248,369.912 470.248,368.914 470.473,370.089 z" />
<path d="M470.248,369.912 470.019,369.241 470.248,368.914 z" />
<path d="M470.019,369.74 470.019,369.241 470.248,369.912 z" />
<path d="M470.019,369.74 469.786,369.574 470.019,369.241 z" />
</g>
<g stroke-width="0.75" clip-path="url(#clipId0)" fill="none" stroke="rgb(0,0,0)" >
<ellipse rx="21.867" ry="21.867" cx="462.261" cy="380.321" />
<ellipse rx="13.1202" ry="13.1202" cx="462.261" cy="380.321" />
<polyline points="469.786,369.574 474.803,362.409 " />
<polyline points="470.694,370.27 476.317,363.57 " />
</g>
<g stroke-width="0.3" clip-path="url(#clipId0)" fill="rgb(0,0,0)" stroke="none" >
<path d="M472.779,362.104 472.779,361.15 473.194,361.384 z" />
<path d="M472.779,362.104 472.358,360.925 472.779,361.15 z" />
<path d="M472.358,362.832 472.358,360.925 472.779,362.104 z" />
<path d="M472.358,362.832 471.932,360.709 472.358,360.925 z" />
<path d="M471.932,363.57 471.932,360.709 472.358,362.832 z" />
<path d="M471.932,363.57 471.502,360.503 471.932,360.709 z" />
<path d="M471.502,364.315 471.502,360.503 471.932,363.57 z" />
<path d="M471.502,364.315 468.821,366.253 471.502,360.503 z" />
<path d="M468.821,368.959 468.821,366.253 471.502,364.315 z" />
<path d="M468.821,368.959 468.572,366.788 468.821,366.253 z" />
<path d="M468.572,368.818 468.572,366.788 468.821,368.959 z" />
<path d="M468.572,368.818 468.319,367.329 468.572,366.788 z" />
<path d="M468.319,368.683 468.319,367.329 468.572,368.818 z" />
<path d="M468.319,368.683 468.064,367.877 468.319,367.329 z" />
<path d="M468.064,368.554 468.064,367.877 468.319,368.683 z" />
<path d="M468.064,368.554 467.806,368.43 468.064,367.877 z" />
</g>
<g stroke-width="0.75" clip-path="url(#clipId0)" fill="none" stroke="rgb(0,0,0)" >
<ellipse rx="21.867" ry="21.867" cx="462.261" cy="380.321" />
<ellipse rx="13.1202" ry="13.1202" cx="462.261" cy="380.321" />
<polyline points="467.806,368.43 471.502,360.503 " />
<polyline points="468.821,368.959 473.194,361.384 " />
</g>
<g stroke-width="0.3" clip-path="url(#clipId0)" fill="rgb(0,0,0)" stroke="none" >
<path d="M469.29,361.009 469.29,359.615 469.74,359.773 z" />
<path d="M469.29,361.009 468.836,359.466 469.29,359.615 z" />
<path d="M468.836,362.255 468.836,359.466 469.29,361.009 z" />
<path d="M468.836,362.255 468.38,359.328 468.836,359.466 z" />
<path d="M468.38,363.509 468.38,359.328 468.836,362.255 z" />
<path d="M468.38,363.509 467.921,359.199 468.38,359.328 z" />
<path d="M467.921,364.771 467.921,359.199 468.38,363.509 z" />
<path d="M467.921,364.771 466.748,363.574 467.921,359.199 z" />
<path d="M466.748,367.992 466.748,363.574 467.921,364.771 z" />
<path d="M466.748,367.992 466.478,364.582 466.748,363.574 z" />
<path d="M466.478,367.897 466.478,364.582 466.748,367.992 z" />
<path d="M466.478,367.897 466.206,365.597 466.478,364.582 z" />
<path d="M466.206,367.808 466.206,365.597 466.478,367.897 z" />
<path d="M466.206,367.808 465.932,366.619 466.206,365.597 z" />
<path d="M465.932,367.725 465.932,366.619 466.206,367.808 z" />
<path d="M465.932,367.725 465.657,367.648 465.932,366.619 z" />
</g>
<g stroke-width="0.75" clip-path="url(#clipId0)" fill="none" stroke="rgb(0,0,0)" >
<ellipse rx="21.867" ry="21.867" cx="462.261" cy="380.321" />
<ellipse rx="13.1202" ry="13.1202" cx="462.261" cy="380.321" />
<polyline points="465.657,367.648 467.921,359.199 " />
<polyline points="466.748,367.992 469.74,359.773 " />
</g>
<g stroke-width="0.3" clip-path="url(#clipId0)" fill="rgb(0,0,0)" stroke="none" >
<path d="M465.587,361.456 465.587,358.709 466.058,358.786 z" />
<path d="M465.587,361.456 465.115,358.641 465.587,358.709 z" />
<path d="M465.115,364.134 465.115,358.641 465.587,361.456 z" />
<path d="M465.115,364.134 464.642,358.584 465.115,358.641 z" />
<path d="M464.642,366.82 464.642,358.584 465.115,364.134 z" />
<path d="M464.642,366.82 464.539,358.574 464.642,358.584 z" />
<path d="M464.539,367.4 464.539,358.574 464.642,366.82 z" />
<path d="M464.539,367.4 464.257,358.546 464.539,358.574 z" />
<path d="M464.257,367.354 464.257,358.546 464.539,367.4 z" />
<path d="M464.257,367.354 464.167,358.537 464.257,358.546 z" />
<path d="M464.167,367.341 464.167,358.537 464.257,367.354 z" />
<path d="M464.167,367.341 463.973,360.747 464.167,358.537 z" />
<path d="M463.973,367.313 463.973,360.747 464.167,367.341 z" />
<path d="M463.973,367.313 463.689,363.995 463.973,360.747 z" />
<path d="M463.689,367.279 463.689,363.995 463.973,367.313 z" />
<path d="M463.689,367.279 463.404,367.251 463.689,363.995 z" />
</g>
<g stroke-width="0.75" clip-path="url(#clipId0)" fill="none" stroke="rgb(0,0,0)" >
<ellipse rx="21.867" ry="21.867" cx="462.261" cy="380.321" />
<ellipse rx="13.1202" ry="13.1202" cx="462.261" cy="380.321" />
<polyline points="463.404,367.251 464.167,358.537 " />
<polyline points="464.539,367.4 466.058,358.786 " />
</g>
<g stroke-width="0.3" clip-path="url(#clipId0)" fill="rgb(0,0,0)" stroke="none" >
<path d="M462.261,367.201 461.975,358.457 462.261,358.454 z" />
<path d="M461.975,367.204 461.975,358.457 462.261,367.201 z" />
<path d="M461.975,367.204 461.784,358.459 461.975,358.457 z" />
<path d="M461.784,367.21 461.784,358.459 461.975,367.204 z" />
<path d="M461.784,367.21 461.689,358.462 461.784,358.459 z" />
<path d="M461.689,367.213 461.689,358.462 461.784,367.21 z" />
<path d="M461.689,367.213 461.403,358.472 461.689,358.462 z" />
<path d="M461.403,367.229 461.403,358.472 461.689,367.213 z" />
<path d="M461.403,367.229 461.307,358.475 461.403,358.472 z" />
<path d="M461.307,367.236 461.307,358.475 461.403,367.229 z" />
<path d="M461.307,367.236 461.117,358.485 461.307,358.475 z" />
<path d="M461.117,367.251 461.117,358.485 461.307,367.236 z" />
<path d="M461.117,367.251 460.831,358.501 461.117,358.485 z" />
<path d="M460.831,363.974 460.831,358.501 461.117,367.251 z" />
<path d="M460.831,363.974 460.355,358.537 460.831,358.501 z" />
</g>
<g stroke-width="0.75" clip-path="url(#clipId0)" fill="none" stroke="rgb(0,0,0)" >
<ellipse rx="21.867" ry="21.867" cx="462.261" cy="380.321" />
<ellipse rx="13.1202" ry="13.1202" cx="462.261" cy="380.321" />
<polyline points="461.117,367.251 460.355,358.537 " />
<polyline points="462.261,367.201 462.261,358.454 " />
</g>
<g stroke-width="0.3" clip-path="url(#clipId0)" fill="rgb(0,0,0)" stroke="none" >
<path d="M459.701,367.453 459.701,365.805 459.983,367.4 z" />
<path d="M459.701,367.453 459.421,364.216 459.701,365.805 z" />
<path d="M459.421,367.512 459.421,364.216 459.701,367.453 z" />
<path d="M459.421,367.512 459.142,362.635 459.421,364.216 z" />
<path d="M459.142,367.577 459.142,362.635 459.421,367.512 z" />
<path d="M459.142,367.577 458.865,361.063 459.142,362.635 z" />
<path d="M458.865,367.648 458.865,361.063 459.142,367.577 z" />
<path d="M458.865,367.648 458.464,358.786 458.865,361.063 z" />
<path d="M458.464,366.15 458.464,358.786 458.865,367.648 z" />
<path d="M458.464,366.15 457.995,358.874 458.464,358.786 z" />
<path d="M457.995,364.4 457.995,358.874 458.464,366.15 z" />
<path d="M457.995,364.4 457.528,358.972 457.995,358.874 z" />
<path d="M457.528,362.658 457.528,358.972 457.995,364.4 z" />
<path d="M457.528,362.658 457.063,359.081 457.528,358.972 z" />
<path d="M457.063,360.924 457.063,359.081 457.528,362.658 z" />
<path d="M457.063,360.924 456.601,359.199 457.063,359.081 z" />
</g>
<g stroke-width="0.75" clip-path="url(#clipId0)" fill="none" stroke="rgb(0,0,0)" >
<ellipse rx="21.867" ry="21.867" cx="462.261" cy="380.321" />
<ellipse rx="13.1202" ry="13.1202" cx="462.261" cy="380.321" />
<polyline points="458.865,367.648 456.601,359.199 " />
<polyline points="459.983,367.4 458.464,358.786 " />
</g>
<g stroke-width="0.3" clip-path="url(#clipId0)" fill="rgb(0,0,0)" stroke="none" >
<path d="M457.506,368.093 457.506,367.256 457.774,367.992 z" />
<path d="M457.506,368.093 457.24,366.526 457.506,367.256 z" />
<path d="M457.24,368.2 457.24,366.526 457.506,368.093 z" />
<path d="M457.24,368.2 456.977,365.803 457.24,366.526 z" />
<path d="M456.977,368.312 456.977,365.803 457.24,368.2 z" />
<path d="M456.977,368.312 456.716,365.087 456.977,365.803 z" />
<path d="M456.716,368.43 456.716,365.087 456.977,368.312 z" />
<path d="M456.716,368.43 454.782,359.773 456.716,365.087 z" />
<path d="M454.782,364.282 454.782,359.773 456.716,368.43 z" />
<path d="M454.782,364.282 454.335,359.941 454.782,359.773 z" />
<path d="M454.335,363.325 454.335,359.941 454.782,364.282 z" />
<path d="M454.335,363.325 453.893,360.119 454.335,359.941 z" />
<path d="M453.893,362.376 453.893,360.119 454.335,363.325 z" />
<path d="M453.893,362.376 453.454,360.306 453.893,360.119 z" />
<path d="M453.454,361.435 453.454,360.306 453.893,362.376 z" />
<path d="M453.454,361.435 453.02,360.503 453.454,360.306 z" />
</g>
<g stroke-width="0.75" clip-path="url(#clipId0)" fill="none" stroke="rgb(0,0,0)" >
<ellipse rx="21.867" ry="21.867" cx="462.261" cy="380.321" />
<ellipse rx="13.1202" ry="13.1202" cx="462.261" cy="380.321" />
<polyline points="456.716,368.43 453.02,360.503 " />
<polyline points="457.774,367.992 454.782,359.773 " />
</g>
<g stroke-width="0.3" clip-path="url(#clipId0)" fill="rgb(0,0,0)" stroke="none" >
<path d="M455.455,369.104 455.455,368.532 455.701,368.959 z" />
<path d="M455.455,369.104 455.211,368.111 455.455,368.532 z" />
<path d="M455.211,369.256 455.211,368.111 455.455,369.104 z" />
<path d="M455.211,369.256 454.972,367.696 455.211,368.111 z" />
<path d="M454.972,369.412 454.972,367.696 455.211,369.256 z" />
<path d="M454.972,369.412 454.735,367.287 454.972,367.696 z" />
<path d="M454.735,369.574 454.735,367.287 454.972,369.412 z" />
<path d="M454.735,369.574 451.327,361.384 454.735,367.287 z" />
<path d="M451.327,364.706 451.327,361.384 454.735,369.574 z" />
<path d="M451.327,364.706 450.917,361.627 451.327,361.384 z" />
<path d="M450.917,364.12 450.917,361.627 451.327,364.706 z" />
<path d="M450.917,364.12 450.512,361.879 450.917,361.627 z" />
<path d="M450.512,363.542 450.512,361.879 450.917,364.12 z" />
<path d="M450.512,363.542 450.112,362.139 450.512,361.879 z" />
<path d="M450.112,362.971 450.112,362.139 450.512,363.542 z" />
<path d="M450.112,362.971 449.719,362.409 450.112,362.139 z" />
</g>
<g stroke-width="0.75" clip-path="url(#clipId0)" fill="none" stroke="rgb(0,0,0)" >
<ellipse rx="21.867" ry="21.867" cx="462.261" cy="380.321" />
<ellipse rx="13.1202" ry="13.1202" cx="462.261" cy="380.321" />
<polyline points="454.735,369.574 449.719,362.409 " />
<polyline points="455.701,368.959 451.327,361.384 " />
</g>
<g stroke-width="0.3" clip-path="url(#clipId0)" fill="rgb(0,0,0)" stroke="none" >
<path d="M453.61,370.457 453.61,370.012 453.827,370.27 z" />
<path d="M453.61,370.457 453.397,369.758 453.61,370.012 z" />
<path d="M453.397,370.648 453.397,369.758 453.61,370.457 z" />
<path d="M453.397,370.648 453.188,369.509 453.397,369.758 z" />
<path d="M453.188,370.844 453.188,369.509 453.397,370.648 z" />
<path d="M453.188,370.844 452.984,369.265 453.188,369.509 z" />
<path d="M452.984,371.044 452.984,369.265 453.188,370.844 z" />
<path d="M452.984,371.044 448.205,363.57 452.984,369.265 z" />
<path d="M448.205,366.265 448.205,363.57 452.984,371.044 z" />
<path d="M448.205,366.265 447.843,363.881 448.205,363.57 z" />
<path d="M447.843,365.903 447.843,363.881 448.205,366.265 z" />
<path d="M447.843,365.903 447.488,364.199 447.843,363.881 z" />
<path d="M447.488,365.548 447.488,364.199 447.843,365.903 z" />
<path d="M447.488,365.548 447.14,364.525 447.488,364.199 z" />
<path d="M447.14,365.2 447.14,364.525 447.488,365.548 z" />
<path d="M447.14,365.2 446.799,364.859 447.14,364.525 z" />
</g>
<g stroke-width="0.75" clip-path="url(#clipId0)" fill="none" stroke="rgb(0,0,0)" >
<ellipse rx="21.867" ry="21.867" cx="462.261" cy="380.321" />
<ellipse rx="13.1202" ry="13.1202" cx="462.261" cy="380.321" />
<polyline points="452.984,371.044 446.799,364.859 " />
<polyline points="453.827,370.27 448.205,363.57 " />
</g>
<g stroke-width="0.3" clip-path="url(#clipId0)" fill="rgb(0,0,0)" stroke="none" >
<path d="M452.029,372.109 452.029,371.735 452.21,371.888 z" />
<path d="M452.029,372.109 451.852,371.587 452.029,371.735 z" />
<path d="M451.852,372.334 451.852,371.587 452.029,372.109 z" />
<path d="M451.852,372.334 451.68,371.443 451.852,371.587 z" />
<path d="M451.68,372.563 451.68,371.443 451.852,372.334 z" />
<path d="M451.68,372.563 451.513,371.303 451.68,371.443 z" />
<path d="M451.513,372.796 451.513,371.303 451.68,372.563 z" />
<path d="M451.513,372.796 445.51,366.265 451.513,371.303 z" />
<path d="M445.51,368.592 445.51,366.265 451.513,372.796 z" />
<path d="M445.51,368.592 445.207,366.634 445.51,366.265 z" />
<path d="M445.207,368.38 445.207,366.634 445.51,368.592 z" />
<path d="M445.207,368.38 444.913,367.009 445.207,366.634 z" />
<path d="M444.913,368.174 444.913,367.009 445.207,368.38 z" />
<path d="M444.913,368.174 444.626,367.391 444.913,367.009 z" />
<path d="M444.626,367.973 444.626,367.391 444.913,368.174 z" />
<path d="M444.626,367.973 444.349,367.779 444.626,367.391 z" />
</g>
<g stroke-width="0.75" clip-path="url(#clipId0)" fill="none" stroke="rgb(0,0,0)" >
<ellipse rx="21.867" ry="21.867" cx="462.261" cy="380.321" />
<ellipse rx="13.1202" ry="13.1202" cx="462.261" cy="380.321" />
<polyline points="451.513,372.796 444.349,367.779 " />
<polyline points="452.21,371.888 445.51,366.265 " />
</g>
<g stroke-width="0.3" clip-path="url(#clipId0)" fill="rgb(0,0,0)" stroke="none" >
<path d="M450.758,374.01 450.758,373.68 450.898,373.761 z" />
<path d="M450.758,374.01 450.623,373.602 450.758,373.68 z" />
<path d="M450.623,374.263 450.623,373.602 450.758,374.01 z" />
<path d="M450.623,374.263 450.494,373.527 450.623,373.602 z" />
<path d="M450.494,374.518 450.494,373.527 450.623,374.263 z" />
<path d="M450.494,374.518 450.37,373.456 450.494,373.527 z" />
<path d="M450.37,374.776 450.37,373.456 450.494,374.518 z" />
<path d="M450.37,374.776 443.324,369.388 450.37,373.456 z" />
<path d="M443.324,371.49 443.324,369.388 450.37,374.776 z" />
<path d="M443.324,371.49 443.09,369.803 443.324,369.388 z" />
<path d="M443.09,371.381 443.09,369.803 443.324,371.49 z" />
<path d="M443.09,371.381 442.865,370.224 443.09,369.803 z" />
<path d="M442.865,371.276 442.865,370.224 443.09,371.381 z" />
<path d="M442.865,371.276 442.649,370.65 442.865,370.224 z" />
<path d="M442.649,371.176 442.649,370.65 442.865,371.276 z" />
<path d="M442.649,371.176 442.443,371.08 442.649,370.65 z" />
</g>
<g stroke-width="0.75" clip-path="url(#clipId0)" fill="none" stroke="rgb(0,0,0)" >
<ellipse rx="21.867" ry="21.867" cx="462.261" cy="380.321" />
<ellipse rx="13.1202" ry="13.1202" cx="462.261" cy="380.321" />
<polyline points="450.37,374.776 442.443,371.08 " />
<polyline points="450.898,373.761 443.324,369.388 " />
</g>
<g stroke-width="0.3" clip-path="url(#clipId0)" fill="rgb(0,0,0)" stroke="none" >
<path d="M449.837,376.104 449.837,375.799 449.932,375.834 z" />
<path d="M449.837,376.104 449.748,375.767 449.837,375.799 z" />
<path d="M449.748,376.376 449.748,375.767 449.837,376.104 z" />
<path d="M449.748,376.376 449.665,375.736 449.748,375.767 z" />
<path d="M449.665,376.65 449.665,375.736 449.748,376.376 z" />
<path d="M449.665,376.65 449.588,375.708 449.665,375.736 z" />
<path d="M449.588,376.925 449.588,375.708 449.665,376.65 z" />
<path d="M449.588,376.925 441.713,372.842 449.588,375.708 z" />
<path d="M441.713,374.815 441.713,372.842 449.588,376.925 z" />
<path d="M441.713,374.815 441.554,373.292 441.713,372.842 z" />
<path d="M441.554,374.773 441.554,373.292 441.713,374.815 z" />
<path d="M441.554,374.773 441.406,373.746 441.554,373.292 z" />
<path d="M441.406,374.733 441.406,373.746 441.554,374.773 z" />
<path d="M441.406,374.733 441.268,374.202 441.406,373.746 z" />
<path d="M441.268,374.696 441.268,374.202 441.406,374.733 z" />
<path d="M441.268,374.696 441.139,374.661 441.268,374.202 z" />
</g>
<g stroke-width="0.75" clip-path="url(#clipId0)" fill="none" stroke="rgb(0,0,0)" >
<ellipse rx="21.867" ry="21.867" cx="462.261" cy="380.321" />
<ellipse rx="13.1202" ry="13.1202" cx="462.261" cy="380.321" />
<polyline points="449.588,376.925 441.139,374.661 " />
<polyline points="449.932,375.834 441.713,372.842 " />
</g>
<g stroke-width="0.3" clip-path="url(#clipId0)" fill="rgb(0,0,0)" stroke="none" >
<path d="M449.293,378.325 449.293,378.035 449.34,378.043 z" />
<path d="M449.293,378.325 449.253,378.027 449.293,378.035 z" />
<path d="M449.253,378.609 449.253,378.027 449.293,378.325 z" />
<path d="M449.253,378.609 449.219,378.021 449.253,378.027 z" />
<path d="M449.219,378.893 449.219,378.021 449.253,378.609 z" />
<path d="M449.219,378.893 449.191,378.016 449.219,378.021 z" />
<path d="M449.191,379.178 449.191,378.016 449.219,378.893 z" />
<path d="M449.191,379.178 440.726,376.524 449.191,378.016 z" />
<path d="M440.726,378.437 440.726,376.524 449.191,379.178 z" />
<path d="M440.726,378.437 440.648,376.995 440.726,376.524 z" />
<path d="M440.648,378.43 440.648,376.995 440.726,378.437 z" />
<path d="M440.648,378.43 440.581,377.467 440.648,376.995 z" />
<path d="M440.581,378.424 440.581,377.467 440.648,378.43 z" />
<path d="M440.581,378.424 440.524,377.94 440.581,377.467 z" />
<path d="M440.524,378.419 440.524,377.94 440.581,378.424 z" />
<path d="M440.524,378.419 440.477,378.415 440.524,377.94 z" />
</g>
<g stroke-width="0.75" clip-path="url(#clipId0)" fill="none" stroke="rgb(0,0,0)" >
<ellipse rx="21.867" ry="21.867" cx="462.261" cy="380.321" />
<ellipse rx="13.1202" ry="13.1202" cx="462.261" cy="380.321" />
<polyline points="449.191,379.178 440.477,378.415 " />
<polyline points="449.34,378.043 440.726,376.524 " />
</g>
<g stroke-width="0.3" clip-path="url(#clipId0)" fill="rgb(0,0,0)" stroke="none" >
<path d="M449.169,381.466 449.169,381.179 449.191,381.465 z" />
<path d="M449.169,381.466 449.153,380.893 449.169,381.179 z" />
<path d="M449.153,381.468 449.153,380.893 449.169,381.466 z" />
<path d="M449.153,381.468 449.144,380.607 449.153,380.893 z" />
<path d="M449.144,381.469 449.144,380.607 449.153,381.468 z" />
<path d="M449.144,381.469 449.141,380.321 449.144,380.607 z" />
<path d="M449.141,381.469 449.141,380.321 449.144,381.469 z" />
<path d="M449.141,381.469 440.477,380.321 449.141,380.321 z" />
<path d="M440.477,382.227 440.477,380.321 449.141,381.469 z" />
<path d="M440.477,382.227 440.441,380.321 440.477,380.321 z" />
<path d="M440.441,381.751 440.441,380.321 440.477,382.227 z" />
<path d="M440.441,381.751 440.415,380.321 440.441,380.321 z" />
<path d="M440.415,381.275 440.415,380.321 440.441,381.751 z" />
<path d="M440.415,381.275 440.399,380.321 440.415,380.321 z" />
<path d="M440.399,380.798 440.399,380.321 440.415,381.275 z" />
<path d="M440.399,380.798 440.394,380.321 440.399,380.321 z" />
</g>
<g stroke-width="0.75" clip-path="url(#clipId0)" fill="none" stroke="rgb(0,0,0)" >
<ellipse rx="21.867" ry="21.867" cx="462.261" cy="380.321" />
<ellipse rx="13.1202" ry="13.1202" cx="462.261" cy="380.321" />
<polyline points="449.191,381.465 440.477,382.227 " />
<polyline points="449.141,380.321 440.394,380.321 " />
</g>
<g stroke-width="0.3" clip-path="url(#clipId0)" fill="rgb(0,0,0)" stroke="none" >
<path d="M449.517,383.736 449.517,383.44 449.588,383.717 z" />
<path d="M449.517,383.736 449.452,383.161 449.517,383.44 z" />
<path d="M449.452,383.753 449.452,383.161 449.517,383.736 z" />
<path d="M449.452,383.753 449.393,382.881 449.452,383.161 z" />
<path d="M449.393,383.769 449.393,382.881 449.452,383.753 z" />
<path d="M449.393,383.769 449.34,382.599 449.393,382.881 z" />
<path d="M449.34,383.783 449.34,382.599 449.393,383.769 z" />
<path d="M449.34,383.783 441.139,384.045 449.34,382.599 z" />
<path d="M441.139,385.981 441.139,384.045 449.34,383.783 z" />
<path d="M441.139,385.981 441.021,384.066 441.139,384.045 z" />
<path d="M441.021,385.519 441.021,384.066 441.139,385.981 z" />
<path d="M441.021,385.519 440.912,384.085 441.021,384.066 z" />
<path d="M440.912,385.054 440.912,384.085 441.021,385.519 z" />
<path d="M440.912,385.054 440.814,384.103 440.912,384.085 z" />
<path d="M440.814,384.587 440.814,384.103 440.912,385.054 z" />
<path d="M440.814,384.587 440.726,384.118 440.814,384.103 z" />
</g>
<g stroke-width="0.75" clip-path="url(#clipId0)" fill="none" stroke="rgb(0,0,0)" >
<ellipse rx="21.867" ry="21.867" cx="462.261" cy="380.321" />
<ellipse rx="13.1202" ry="13.1202" cx="462.261" cy="380.321" />
<polyline points="449.588,383.717 441.139,385.981 " />
<polyline points="449.34,382.599 440.726,384.118 " />
</g>
<g stroke-width="0.3" clip-path="url(#clipId0)" fill="rgb(0,0,0)" stroke="none" >
<path d="M450.252,385.921 450.252,385.605 450.37,385.866 z" />
<path d="M450.252,385.921 450.139,385.342 450.252,385.605 z" />
<path d="M450.139,385.973 450.139,385.342 450.252,385.921 z" />
<path d="M450.139,385.973 450.033,385.076 450.139,385.342 z" />
<path d="M450.033,386.023 450.033,385.076 450.139,385.973 z" />
<path d="M450.033,386.023 449.932,384.808 450.033,385.076 z" />
<path d="M449.932,386.07 449.932,384.808 450.033,386.023 z" />
<path d="M449.932,386.07 442.443,387.534 449.932,384.808 z" />
<path d="M442.443,389.562 442.443,387.534 449.932,386.07 z" />
<path d="M442.443,389.562 442.246,387.606 442.443,387.534 z" />
<path d="M442.246,389.128 442.246,387.606 442.443,389.562 z" />
<path d="M442.246,389.128 442.058,387.674 442.246,387.606 z" />
<path d="M442.058,388.689 442.058,387.674 442.246,389.128 z" />
<path d="M442.058,388.689 441.881,387.739 442.058,387.674 z" />
<path d="M441.881,388.247 441.881,387.739 442.058,388.689 z" />
<path d="M441.881,388.247 441.713,387.8 441.881,387.739 z" />
</g>
<g stroke-width="0.75" clip-path="url(#clipId0)" fill="none" stroke="rgb(0,0,0)" >
<ellipse rx="21.867" ry="21.867" cx="462.261" cy="380.321" />
<ellipse rx="13.1202" ry="13.1202" cx="462.261" cy="380.321" />
<polyline points="450.37,385.866 442.443,389.562 " />
<polyline points="449.932,384.808 441.713,387.8 " />
</g>
<g stroke-width="0.3" clip-path="url(#clipId0)" fill="rgb(0,0,0)" stroke="none" >
<path d="M451.352,387.96 451.352,387.61 451.513,387.847 z" />
<path d="M451.352,387.96 451.195,387.371 451.352,387.61 z" />
<path d="M451.195,388.069 451.195,387.371 451.352,387.96 z" />
<path d="M451.195,388.069 451.044,387.127 451.195,387.371 z" />
<path d="M451.044,388.175 451.044,387.127 451.195,388.069 z" />
<path d="M451.044,388.175 450.898,386.881 451.044,387.127 z" />
<path d="M450.898,388.277 450.898,386.881 451.044,388.175 z" />
<path d="M450.898,388.277 444.349,390.663 450.898,386.881 z" />
<path d="M444.349,392.863 444.349,390.663 450.898,388.277 z" />
<path d="M444.349,392.863 444.079,390.818 444.349,390.663 z" />
<path d="M444.079,392.47 444.079,390.818 444.349,392.863 z" />
<path d="M444.079,392.47 443.818,390.969 444.079,390.818 z" />
<path d="M443.818,392.07 443.818,390.969 444.079,392.47 z" />
<path d="M443.818,392.07 443.567,391.114 443.818,390.969 z" />
<path d="M443.567,391.665 443.567,391.114 443.818,392.07 z" />
<path d="M443.567,391.665 443.324,391.255 443.567,391.114 z" />
</g>
<g stroke-width="0.75" clip-path="url(#clipId0)" fill="none" stroke="rgb(0,0,0)" >
<ellipse rx="21.867" ry="21.867" cx="462.261" cy="380.321" />
<ellipse rx="13.1202" ry="13.1202" cx="462.261" cy="380.321" />
<polyline points="451.513,387.847 444.349,392.863 " />
<polyline points="450.898,386.881 443.324,391.255 " />
</g>
<g stroke-width="0.3" clip-path="url(#clipId0)" fill="rgb(0,0,0)" stroke="none" >
<path d="M452.783,389.799 452.783,389.394 452.984,389.598 z" />
<path d="M452.783,389.799 452.588,389.185 452.783,389.394 z" />
<path d="M452.588,389.994 452.588,389.185 452.783,389.799 z" />
<path d="M452.588,389.994 452.397,388.972 452.588,389.185 z" />
<path d="M452.397,390.185 452.397,388.972 452.588,389.994 z" />
<path d="M452.397,390.185 452.21,388.755 452.397,388.972 z" />
<path d="M452.21,390.372 452.21,388.755 452.397,390.185 z" />
<path d="M452.21,390.372 446.799,393.295 452.21,388.755 z" />
<path d="M446.799,395.783 446.799,393.295 452.21,390.372 z" />
<path d="M446.799,395.783 446.465,393.575 446.799,393.295 z" />
<path d="M446.465,395.442 446.465,393.575 446.799,395.783 z" />
<path d="M446.465,395.442 446.139,393.849 446.465,393.575 z" />
<path d="M446.139,395.094 446.139,393.849 446.465,395.442 z" />
<path d="M446.139,395.094 445.82,394.116 446.139,393.849 z" />
<path d="M445.82,394.739 445.82,394.116 446.139,395.094 z" />
<path d="M445.82,394.739 445.51,394.377 445.82,394.116 z" />
</g>
<g stroke-width="0.75" clip-path="url(#clipId0)" fill="none" stroke="rgb(0,0,0)" >
<ellipse rx="21.867" ry="21.867" cx="462.261" cy="380.321" />
<ellipse rx="13.1202" ry="13.1202" cx="462.261" cy="380.321" />
<polyline points="452.984,389.598 446.799,395.783 " />
<polyline points="452.21,388.755 445.51,394.377 " />
</g>
<g stroke-width="0.3" clip-path="url(#clipId0)" fill="rgb(0,0,0)" stroke="none" >
<path d="M454.503,391.401 454.503,390.902 454.735,391.069 z" />
<path d="M454.503,391.401 454.274,390.73 454.503,390.902 z" />
<path d="M454.274,391.728 454.274,390.73 454.503,391.401 z" />
<path d="M454.274,391.728 454.049,390.553 454.274,390.73 z" />
<path d="M454.049,392.049 454.049,390.553 454.274,391.728 z" />
<path d="M454.049,392.049 453.827,390.372 454.049,390.553 z" />
<path d="M453.827,392.365 453.827,390.372 454.049,392.049 z" />
<path d="M453.827,392.365 449.719,395.269 453.827,390.372 z" />
<path d="M449.719,398.233 449.719,395.269 453.827,392.365 z" />
<path d="M449.719,398.233 449.331,395.731 449.719,395.269 z" />
<path d="M449.331,397.956 449.331,395.731 449.719,398.233 z" />
<path d="M449.331,397.956 448.949,396.185 449.331,395.731 z" />
<path d="M448.949,397.669 448.949,396.185 449.331,397.956 z" />
<path d="M448.949,397.669 448.574,396.633 448.949,396.185 z" />
<path d="M448.574,397.375 448.574,396.633 448.949,397.669 z" />
<path d="M448.574,397.375 448.205,397.072 448.574,396.633 z" />
</g>
<g stroke-width="0.75" clip-path="url(#clipId0)" fill="none" stroke="rgb(0,0,0)" >
<ellipse rx="21.867" ry="21.867" cx="462.261" cy="380.321" />
<ellipse rx="13.1202" ry="13.1202" cx="462.261" cy="380.321" />
<polyline points="454.735,391.069 449.719,398.233 " />
<polyline points="453.827,390.372 448.205,397.072 " />
</g>
<g stroke-width="0.3" clip-path="url(#clipId0)" fill="rgb(0,0,0)" stroke="none" >
<path d="M456.458,392.765 456.458,392.088 456.716,392.212 z" />
<path d="M456.458,392.765 456.203,391.959 456.458,392.088 z" />
<path d="M456.203,393.313 456.203,391.959 456.458,392.765 z" />
<path d="M456.203,393.313 455.95,391.824 456.203,391.959 z" />
<path d="M455.95,393.854 455.95,391.824 456.203,393.313 z" />
<path d="M455.95,393.854 455.701,391.683 455.95,391.824 z" />
<path d="M455.701,394.389 455.701,391.683 455.95,393.854 z" />
<path d="M455.701,394.389 453.02,396.328 455.701,391.683 z" />
<path d="M453.02,400.139 453.02,396.328 455.701,394.389 z" />
<path d="M453.02,400.139 452.589,397.073 453.02,396.328 z" />
<path d="M452.589,399.933 452.589,397.073 453.02,400.139 z" />
<path d="M452.589,399.933 452.164,397.81 452.589,397.073 z" />
<path d="M452.164,399.717 452.164,397.81 452.589,399.933 z" />
<path d="M452.164,399.717 451.743,398.538 452.164,397.81 z" />
<path d="M451.743,399.492 451.743,398.538 452.164,399.717 z" />
<path d="M451.743,399.492 451.327,399.258 451.743,398.538 z" />
</g>
<g stroke-width="0.75" clip-path="url(#clipId0)" fill="none" stroke="rgb(0,0,0)" >
<ellipse rx="21.867" ry="21.867" cx="462.261" cy="380.321" />
<ellipse rx="13.1202" ry="13.1202" cx="462.261" cy="380.321" />
<polyline points="456.716,392.212 453.02,400.139 " />
<polyline points="455.701,391.683 451.327,399.258 " />
</g>
<g stroke-width="0.3" clip-path="url(#clipId0)" fill="rgb(0,0,0)" stroke="none" >
<path d="M458.59,394.023 458.59,392.917 458.865,392.994 z" />
<path d="M458.59,394.023 458.316,392.834 458.59,392.917 z" />
<path d="M458.316,395.045 458.316,392.834 458.59,394.023 z" />
<path d="M458.316,395.045 458.044,392.745 458.316,392.834 z" />
<path d="M458.044,396.06 458.044,392.745 458.316,395.045 z" />
<path d="M458.044,396.06 457.774,392.65 458.044,392.745 z" />
<path d="M457.774,397.068 457.774,392.65 458.044,396.06 z" />
<path d="M457.774,397.068 456.601,395.871 457.774,392.65 z" />
<path d="M456.601,401.443 456.601,395.871 457.774,397.068 z" />
<path d="M456.601,401.443 456.142,397.133 456.601,395.871 z" />
<path d="M456.142,401.314 456.142,397.133 456.601,401.443 z" />
<path d="M456.142,401.314 455.685,398.387 456.142,397.133 z" />
<path d="M455.685,401.176 455.685,398.387 456.142,401.314 z" />
<path d="M455.685,401.176 455.232,399.633 455.685,398.387 z" />
<path d="M455.232,401.028 455.232,399.633 455.685,401.176 z" />
<path d="M455.232,401.028 454.782,400.869 455.232,399.633 z" />
</g>
<g stroke-width="0.75" clip-path="url(#clipId0)" fill="none" stroke="rgb(0,0,0)" >
<ellipse rx="21.867" ry="21.867" cx="462.261" cy="380.321" />
<ellipse rx="13.1202" ry="13.1202" cx="462.261" cy="380.321" />
<polyline points="458.865,392.994 456.601,401.443 " />
<polyline points="457.774,392.65 454.782,400.869 " />
</g>
<g stroke-width="0.3" clip-path="url(#clipId0)" fill="rgb(0,0,0)" stroke="none" >
<path d="M460.833,396.647 460.833,393.363 461.117,393.391 z" />
<path d="M460.833,396.647 460.548,393.329 460.833,393.363 z" />
<path d="M460.548,399.895 460.548,393.329 460.833,396.647 z" />
<path d="M460.548,399.895 460.355,393.301 460.548,393.329 z" />
<path d="M460.355,402.105 460.355,393.301 460.548,399.895 z" />
<path d="M460.355,402.105 460.265,393.289 460.355,393.301 z" />
<path d="M460.265,402.096 460.265,393.289 460.355,402.105 z" />
<path d="M460.265,402.096 459.983,393.242 460.265,393.289 z" />
<path d="M459.983,402.068 459.983,393.242 460.265,402.096 z" />
<path d="M459.983,402.068 459.88,393.822 459.983,393.242 z" />
<path d="M459.88,402.058 459.88,393.822 459.983,402.068 z" />
<path d="M459.88,402.058 459.407,396.508 459.88,393.822 z" />
<path d="M459.407,402.001 459.407,396.508 459.88,402.058 z" />
<path d="M459.407,402.001 458.934,399.186 459.407,396.508 z" />
<path d="M458.934,401.934 458.934,399.186 459.407,402.001 z" />
<path d="M458.934,401.934 458.464,401.856 458.934,399.186 z" />
</g>
<g stroke-width="0.75" clip-path="url(#clipId0)" fill="none" stroke="rgb(0,0,0)" >
<ellipse rx="21.867" ry="21.867" cx="462.261" cy="380.321" />
<ellipse rx="13.1202" ry="13.1202" cx="462.261" cy="380.321" />
<polyline points="461.117,393.391 460.355,402.105 " />
<polyline points="459.983,393.242 458.464,401.856 " />
</g>
<g stroke-width="0.3" clip-path="url(#clipId0)" fill="rgb(0,0,0)" stroke="none" >
<path d="M463.691,402.141 463.691,396.668 464.167,402.105 z" />
<path d="M463.691,402.141 463.404,393.391 463.691,396.668 z" />
<path d="M463.404,402.157 463.404,393.391 463.691,402.141 z" />
<path d="M463.404,402.157 463.215,393.406 463.404,393.391 z" />
<path d="M463.215,402.167 463.215,393.406 463.404,402.157 z" />
<path d="M463.215,402.167 463.119,393.413 463.215,393.406 z" />
<path d="M463.119,402.17 463.119,393.413 463.215,402.167 z" />
<path d="M463.119,402.17 462.833,393.429 463.119,393.413 z" />
<path d="M462.833,402.18 462.833,393.429 463.119,402.17 z" />
<path d="M462.833,402.18 462.738,393.432 462.833,393.429 z" />
<path d="M462.738,402.183 462.738,393.432 462.833,402.18 z" />
<path d="M462.738,402.183 462.547,393.438 462.738,393.432 z" />
<path d="M462.547,402.185 462.547,393.438 462.738,402.183 z" />
<path d="M462.547,402.185 462.261,393.441 462.547,393.438 z" />
<path d="M462.261,402.188 462.261,393.441 462.547,402.185 z" />
</g>
<g stroke-width="0.75" clip-path="url(#clipId0)" fill="none" stroke="rgb(0,0,0)" >
<ellipse rx="21.867" ry="21.867" cx="462.261" cy="380.321" />
<ellipse rx="13.1202" ry="13.1202" cx="462.261" cy="380.321" />
<polyline points="463.404,393.391 464.167,402.105 " />
<polyline points="462.261,393.441 462.261,402.188 " />
</g>
<g stroke-width="0.3" clip-path="url(#clipId0)" fill="rgb(0,0,0)" stroke="none" >
<path d="M467.458,401.561 467.458,399.718 467.921,401.443 z" />
<path d="M467.458,401.561 466.994,397.984 467.458,399.718 z" />
<path d="M466.994,401.67 466.994,397.984 467.458,401.561 z" />
<path d="M466.994,401.67 466.527,396.242 466.994,397.984 z" />
<path d="M466.527,401.768 466.527,396.242 466.994,401.67 z" />
<path d="M466.527,401.768 466.058,394.492 466.527,396.242 z" />
<path d="M466.058,401.856 466.058,394.492 466.527,401.768 z" />
<path d="M466.058,401.856 465.657,392.994 466.058,394.492 z" />
<path d="M465.657,399.579 465.657,392.994 466.058,401.856 z" />
<path d="M465.657,399.579 465.379,393.065 465.657,392.994 z" />
<path d="M465.379,398.007 465.379,393.065 465.657,399.579 z" />
<path d="M465.379,398.007 465.101,393.13 465.379,393.065 z" />
<path d="M465.101,396.426 465.101,393.13 465.379,398.007 z" />
<path d="M465.101,396.426 464.821,393.189 465.101,393.13 z" />
<path d="M464.821,394.837 464.821,393.189 465.101,396.426 z" />
<path d="M464.821,394.837 464.539,393.242 464.821,393.189 z" />
</g>
<g stroke-width="0.75" clip-path="url(#clipId0)" fill="none" stroke="rgb(0,0,0)" >
<ellipse rx="21.867" ry="21.867" cx="462.261" cy="380.321" />
<ellipse rx="13.1202" ry="13.1202" cx="462.261" cy="380.321" />
<polyline points="465.657,392.994 467.921,401.443 " />
<polyline points="464.539,393.242 466.058,401.856 " />
</g>
<g stroke-width="0.3" clip-path="url(#clipId0)" fill="rgb(0,0,0)" stroke="none" >
<path d="M471.068,400.336 471.068,399.207 471.502,400.139 z" />
<path d="M471.068,400.336 470.629,398.267 471.068,399.207 z" />
<path d="M470.629,400.524 470.629,398.267 471.068,400.336 z" />
<path d="M470.629,400.524 470.186,397.317 470.629,398.267 z" />
<path d="M470.186,400.701 470.186,397.317 470.629,400.524 z" />
<path d="M470.186,400.701 469.74,396.36 470.186,397.317 z" />
<path d="M469.74,400.869 469.74,396.36 470.186,400.701 z" />
<path d="M469.74,400.869 467.806,392.212 469.74,396.36 z" />
<path d="M467.806,395.555 467.806,392.212 469.74,400.869 z" />
<path d="M467.806,395.555 467.545,392.33 467.806,392.212 z" />
<path d="M467.545,394.839 467.545,392.33 467.806,395.555 z" />
<path d="M467.545,394.839 467.282,392.443 467.545,392.33 z" />
<path d="M467.282,394.116 467.282,392.443 467.545,394.839 z" />
<path d="M467.282,394.116 467.016,392.549 467.282,392.443 z" />
<path d="M467.016,393.386 467.016,392.549 467.282,394.116 z" />
<path d="M467.016,393.386 466.748,392.65 467.016,392.549 z" />
</g>
<g stroke-width="0.75" clip-path="url(#clipId0)" fill="none" stroke="rgb(0,0,0)" >
<ellipse rx="21.867" ry="21.867" cx="462.261" cy="380.321" />
<ellipse rx="13.1202" ry="13.1202" cx="462.261" cy="380.321" />
<polyline points="467.806,392.212 471.502,400.139 " />
<polyline points="466.748,392.65 469.74,400.869 " />
</g>
<g stroke-width="0.3" clip-path="url(#clipId0)" fill="rgb(0,0,0)" stroke="none" >
<path d="M474.41,398.503 474.41,397.671 474.803,398.233 z" />
<path d="M474.41,398.503 474.01,397.101 474.41,397.671 z" />
<path d="M474.01,398.764 474.01,397.101 474.41,398.503 z" />
<path d="M474.01,398.764 473.605,396.522 474.01,397.101 z" />
<path d="M473.605,399.015 473.605,396.522 474.01,398.764 z" />
<path d="M473.605,399.015 473.194,395.936 473.605,396.522 z" />
<path d="M473.194,399.258 473.194,395.936 473.605,399.015 z" />
<path d="M473.194,399.258 469.786,391.069 473.194,395.936 z" />
<path d="M469.786,393.356 469.786,391.069 473.194,399.258 z" />
<path d="M469.786,393.356 469.55,391.23 469.786,391.069 z" />
<path d="M469.55,392.946 469.55,391.23 469.786,393.356 z" />
<path d="M469.55,392.946 469.31,391.387 469.55,391.23 z" />
<path d="M469.31,392.531 469.31,391.387 469.55,392.946 z" />
<path d="M469.31,392.531 469.067,391.538 469.31,391.387 z" />
<path d="M469.067,392.11 469.067,391.538 469.31,392.531 z" />
<path d="M469.067,392.11 468.821,391.683 469.067,391.538 z" />
</g>
<g stroke-width="0.75" clip-path="url(#clipId0)" fill="none" stroke="rgb(0,0,0)" >
<ellipse rx="21.867" ry="21.867" cx="462.261" cy="380.321" />
<ellipse rx="13.1202" ry="13.1202" cx="462.261" cy="380.321" />
<polyline points="469.786,391.069 474.803,398.233 " />
<polyline points="468.821,391.683 473.194,399.258 " />
</g>
<g stroke-width="0.3" clip-path="url(#clipId0)" fill="rgb(0,0,0)" stroke="none" >
<path d="M477.382,396.117 477.382,395.442 477.723,395.783 z" />
<path d="M477.382,396.117 477.034,395.094 477.382,395.442 z" />
<path d="M477.034,396.443 477.034,395.094 477.382,396.117 z" />
<path d="M477.034,396.443 476.679,394.739 477.034,395.094 z" />
<path d="M476.679,396.762 476.679,394.739 477.034,396.443 z" />
<path d="M476.679,396.762 476.317,394.377 476.679,394.739 z" />
<path d="M476.317,397.072 476.317,394.377 476.679,396.762 z" />
<path d="M476.317,397.072 471.538,389.598 476.317,394.377 z" />
<path d="M471.538,391.377 471.538,389.598 476.317,397.072 z" />
<path d="M471.538,391.377 471.334,389.799 471.538,389.598 z" />
<path d="M471.334,391.134 471.334,389.799 471.538,391.377 z" />
<path d="M471.334,391.134 471.125,389.994 471.334,389.799 z" />
<path d="M471.125,390.885 471.125,389.994 471.334,391.134 z" />
<path d="M471.125,390.885 470.912,390.185 471.125,389.994 z" />
<path d="M470.912,390.631 470.912,390.185 471.125,390.885 z" />
<path d="M470.912,390.631 470.694,390.372 470.912,390.185 z" />
</g>
<g stroke-width="0.75" clip-path="url(#clipId0)" fill="none" stroke="rgb(0,0,0)" >
<ellipse rx="21.867" ry="21.867" cx="462.261" cy="380.321" />
<ellipse rx="13.1202" ry="13.1202" cx="462.261" cy="380.321" />
<polyline points="471.538,389.598 477.723,395.783 " />
<polyline points="470.694,390.372 476.317,397.072 " />
</g>
<g stroke-width="0.3" clip-path="url(#clipId0)" fill="rgb(0,0,0)" stroke="none" >
<path d="M479.895,393.251 479.895,392.669 480.173,392.863 z" />
<path d="M479.895,393.251 479.609,392.468 479.895,392.669 z" />
<path d="M479.609,393.633 479.609,392.468 479.895,393.251 z" />
<path d="M479.609,393.633 479.315,392.262 479.609,392.468 z" />
<path d="M479.315,394.008 479.315,392.262 479.609,393.633 z" />
<path d="M479.315,394.008 479.012,392.05 479.315,392.262 z" />
<path d="M479.012,394.377 479.012,392.05 479.315,394.008 z" />
<path d="M479.012,394.377 473.008,387.847 479.012,392.05 z" />
<path d="M473.008,389.339 473.008,387.847 479.012,394.377 z" />
<path d="M473.008,389.339 472.842,388.079 473.008,387.847 z" />
<path d="M472.842,389.199 472.842,388.079 473.008,389.339 z" />
<path d="M472.842,389.199 472.67,388.308 472.842,388.079 z" />
<path d="M472.67,389.055 472.67,388.308 472.842,389.199 z" />
<path d="M472.67,389.055 472.493,388.533 472.67,388.308 z" />
<path d="M472.493,388.907 472.493,388.533 472.67,389.055 z" />
<path d="M472.493,388.907 472.312,388.755 472.493,388.533 z" />
</g>
<g stroke-width="0.75" clip-path="url(#clipId0)" fill="none" stroke="rgb(0,0,0)" >
<ellipse rx="21.867" ry="21.867" cx="462.261" cy="380.321" />
<ellipse rx="13.1202" ry="13.1202" cx="462.261" cy="380.321" />
<polyline points="473.008,387.847 480.173,392.863 " />
<polyline points="472.312,388.755 479.012,394.377 " />
</g>
<g stroke-width="0.3" clip-path="url(#clipId0)" fill="rgb(0,0,0)" stroke="none" >
<path d="M481.873,389.993 481.873,389.466 482.079,389.562 z" />
<path d="M481.873,389.993 481.657,389.366 481.873,389.466 z" />
<path d="M481.657,390.418 481.657,389.366 481.873,389.993 z" />
<path d="M481.657,390.418 481.432,389.261 481.657,389.366 z" />
<path d="M481.432,390.839 481.432,389.261 481.657,390.418 z" />
<path d="M481.432,390.839 481.198,389.152 481.432,389.261 z" />
<path d="M481.198,391.255 481.198,389.152 481.432,390.839 z" />
<path d="M481.198,391.255 474.152,385.866 481.198,389.152 z" />
<path d="M474.152,387.186 474.152,385.866 481.198,391.255 z" />
<path d="M474.152,387.186 474.028,386.124 474.152,385.866 z" />
<path d="M474.028,387.115 474.028,386.124 474.152,387.186 z" />
<path d="M474.028,387.115 473.899,386.379 474.028,386.124 z" />
<path d="M473.899,387.04 473.899,386.379 474.028,387.115 z" />
<path d="M473.899,387.04 473.764,386.632 473.899,386.379 z" />
<path d="M473.764,386.962 473.764,386.632 473.899,387.04 z" />
<path d="M473.764,386.962 473.623,386.881 473.764,386.632 z" />
</g>
<g stroke-width="0.75" clip-path="url(#clipId0)" fill="none" stroke="rgb(0,0,0)" >
<ellipse rx="21.867" ry="21.867" cx="462.261" cy="380.321" />
<ellipse rx="13.1202" ry="13.1202" cx="462.261" cy="380.321" />
<polyline points="474.152,385.866 482.079,389.562 " />
<polyline points="473.623,386.881 481.198,391.255 " />
</g>
<g stroke-width="0.3" clip-path="url(#clipId0)" fill="rgb(0,0,0)" stroke="none" >
<path d="M483.254,386.44 483.254,385.946 483.383,385.981 z" />
<path d="M483.254,386.44 483.116,385.909 483.254,385.946 z" />
<path d="M483.116,386.897 483.116,385.909 483.254,386.44 z" />
<path d="M483.116,386.897 482.967,385.869 483.116,385.909 z" />
<path d="M482.967,387.35 482.967,385.869 483.116,386.897 z" />
<path d="M482.967,387.35 482.809,385.827 482.967,385.869 z" />
<path d="M482.809,387.8 482.809,385.827 482.967,387.35 z" />
<path d="M482.809,387.8 474.934,383.717 482.809,385.827 z" />
<path d="M474.934,384.934 474.934,383.717 482.809,387.8 z" />
<path d="M474.934,384.934 474.857,383.992 474.934,383.717 z" />
<path d="M474.857,384.906 474.857,383.992 474.934,384.934 z" />
<path d="M474.857,384.906 474.774,384.266 474.857,383.992 z" />
<path d="M474.774,384.875 474.774,384.266 474.857,384.906 z" />
<path d="M474.774,384.875 474.685,384.538 474.774,384.266 z" />
<path d="M474.685,384.843 474.685,384.538 474.774,384.875 z" />
<path d="M474.685,384.843 474.59,384.808 474.685,384.538 z" />
</g>
<g stroke-width="0.75" clip-path="url(#clipId0)" fill="none" stroke="rgb(0,0,0)" >
<ellipse rx="21.867" ry="21.867" cx="462.261" cy="380.321" />
<ellipse rx="13.1202" ry="13.1202" cx="462.261" cy="380.321" />
<polyline points="474.934,383.717 483.383,385.981 " />
<polyline points="474.59,384.808 482.809,387.8 " />
</g>
<g stroke-width="0.3" clip-path="url(#clipId0)" fill="rgb(0,0,0)" stroke="none" >
<path d="M483.998,382.702 483.998,382.223 484.045,382.227 z" />
<path d="M483.998,382.702 483.941,382.218 483.998,382.223 z" />
<path d="M483.941,383.175 483.941,382.218 483.998,382.702 z" />
<path d="M483.941,383.175 483.873,382.212 483.941,382.218 z" />
<path d="M483.873,383.648 483.873,382.212 483.941,383.175 z" />
<path d="M483.873,383.648 483.796,382.205 483.873,382.212 z" />
<path d="M483.796,384.118 483.796,382.205 483.873,383.648 z" />
<path d="M483.796,384.118 475.331,381.465 483.796,382.205 z" />
<path d="M475.331,382.626 475.331,381.465 483.796,384.118 z" />
<path d="M475.331,382.626 475.303,381.749 475.331,381.465 z" />
<path d="M475.303,382.621 475.303,381.749 475.331,382.626 z" />
<path d="M475.303,382.621 475.269,382.034 475.303,381.749 z" />
<path d="M475.269,382.615 475.269,382.034 475.303,382.621 z" />
<path d="M475.269,382.615 475.228,382.317 475.269,382.034 z" />
<path d="M475.228,382.608 475.228,382.317 475.269,382.615 z" />
<path d="M475.228,382.608 475.182,382.599 475.228,382.317 z" />
</g>
<g stroke-width="0.75" clip-path="url(#clipId0)" fill="none" stroke="rgb(0,0,0)" >
<ellipse rx="21.867" ry="21.867" cx="462.261" cy="380.321" />
<ellipse rx="13.1202" ry="13.1202" cx="462.261" cy="380.321" />
<polyline points="475.331,381.465 484.045,382.227 " />
<polyline points="475.182,382.599 483.796,384.118 " />
<polyline points="464.004,380.474 475.331,381.465 " />
<polyline points="464.004,380.169 475.331,379.178 " />
</g>
</svg>
